<svg width="34" height="34" viewBox="0 0 34 34" fill="none" xmlns="http://www.w3.org/2000/svg">
<path d="M1.4165 5.66699V14.167H9.9165" stroke="#0E0E0E" stroke-width="2" stroke-linecap="round" stroke-linejoin="round"/>
<path d="M32.5835 28.333V19.833H24.0835" stroke="#0E0E0E" stroke-width="2" stroke-linecap="round" stroke-linejoin="round"/>
<path d="M29.0273 12.7496C28.3088 10.7192 27.0877 8.9039 25.4779 7.47309C23.8681 6.04228 21.9221 5.04258 19.8214 4.56728C17.7208 4.09198 15.5339 4.15656 13.465 4.75501C11.396 5.35345 9.5124 6.46626 7.98984 7.98958L1.4165 14.1662M32.5832 19.8329L26.0098 26.0096C24.4873 27.5329 22.6036 28.6457 20.5347 29.2441C18.4657 29.8426 16.2789 29.9072 14.1782 29.4319C12.0776 28.9566 10.1316 27.9569 8.52175 26.5261C6.91194 25.0953 5.69082 23.28 4.97234 21.2496" stroke="#0E0E0E" stroke-width="2" stroke-linecap="round" stroke-linejoin="round"/>
</svg>
