<svg width="12" height="12" viewBox="0 0 12 12" fill="none" xmlns="http://www.w3.org/2000/svg">
<path d="M6 0C2.6916 0 0 2.6916 0 6C0 9.3084 2.6916 12 6 12C9.3084 12 12 9.3084 12 6C12 2.6916 9.3084 0 6 0ZM6 10.7233C3.3956 10.7233 1.27657 8.60453 1.27657 6C1.27657 3.39547 3.3956 1.2767 6 1.2767C8.60441 1.2767 10.7234 3.39547 10.7234 6C10.7234 8.60453 8.60441 10.7233 6 10.7233Z" fill="#808080"/>
<path d="M9.12979 5.81423H6.43337V2.57216C6.43337 2.29933 6.21217 2.07812 5.93934 2.07812C5.66651 2.07812 5.44531 2.29933 5.44531 2.57216V6.30826C5.44531 6.58109 5.66651 6.80229 5.93934 6.80229H9.12979C9.40262 6.80229 9.62382 6.58109 9.62382 6.30826C9.62382 6.03543 9.40262 5.81423 9.12979 5.81423Z" fill="#808080"/>
</svg>
