<svg width="28" height="28" viewBox="0 0 28 28" fill="none" xmlns="http://www.w3.org/2000/svg">
<path d="M18.375 14.875H9.625C9.142 14.875 8.75 15.267 8.75 15.75C8.75 16.233 9.142 16.625 9.625 16.625H18.375C18.858 16.625 19.25 16.233 19.25 15.75C19.25 15.267 18.858 14.875 18.375 14.875ZM20.125 9.625H7.875C7.392 9.625 7 10.017 7 10.5C7 10.983 7.392 11.375 7.875 11.375H20.125C20.608 11.375 21 10.983 21 10.5C21 10.017 20.608 9.625 20.125 9.625ZM14 0C6.26852 0 0 5.48448 0 12.25C0 16.1167 2.05187 19.5589 5.25 21.8041V28L11.3829 24.2786C12.2317 24.4187 13.1049 24.5 14 24.5C21.7324 24.5 28 19.0155 28 12.25C28 5.48448 21.7324 0 14 0ZM14 22.75C12.978 22.75 11.991 22.631 11.0425 22.4289L6.92295 24.9051L6.97809 20.8469C3.82026 18.9473 1.75 15.8078 1.75 12.25C1.75 6.45139 7.23448 1.75 14 1.75C20.7655 1.75 26.25 6.45139 26.25 12.25C26.25 18.0486 20.7655 22.75 14 22.75Z" fill="#0E0E0E"/>
</svg>
