<svg width="34" height="34" viewBox="0 0 34 34" fill="none" xmlns="http://www.w3.org/2000/svg">
<path d="M28.3333 12.75H15.5833C14.0185 12.75 12.75 14.0185 12.75 15.5833V28.3333C12.75 29.8981 14.0185 31.1667 15.5833 31.1667H28.3333C29.8981 31.1667 31.1667 29.8981 31.1667 28.3333V15.5833C31.1667 14.0185 29.8981 12.75 28.3333 12.75Z" stroke="#0E0E0E" stroke-width="2" stroke-linecap="round" stroke-linejoin="round"/>
<path d="M7.0835 21.2497H5.66683C4.91538 21.2497 4.19471 20.9512 3.66336 20.4198C3.13201 19.8885 2.8335 19.1678 2.8335 18.4163V5.66634C2.8335 4.91489 3.13201 4.19422 3.66336 3.66287C4.19471 3.13152 4.91538 2.83301 5.66683 2.83301H18.4168C19.1683 2.83301 19.8889 3.13152 20.4203 3.66287C20.9517 4.19422 21.2502 4.91489 21.2502 5.66634V7.08301" stroke="#0E0E0E" stroke-width="2" stroke-linecap="round" stroke-linejoin="round"/>
</svg>
