<svg width="34" height="34" viewBox="0 0 34 34" fill="none" xmlns="http://www.w3.org/2000/svg">
<path d="M2.83203 4.25H11.332C12.8349 4.25 14.2763 4.84702 15.339 5.90973C16.4017 6.97243 16.9987 8.41377 16.9987 9.91667V29.75C16.9987 28.6228 16.5509 27.5418 15.7539 26.7448C14.9569 25.9478 13.8759 25.5 12.7487 25.5H2.83203V4.25Z" stroke="#0E0E0E" stroke-width="2" stroke-linecap="round" stroke-linejoin="round"/>
<path d="M31.1667 4.25H22.6667C21.1638 4.25 19.7224 4.84702 18.6597 5.90973C17.597 6.97243 17 8.41377 17 9.91667V29.75C17 28.6228 17.4478 27.5418 18.2448 26.7448C19.0418 25.9478 20.1228 25.5 21.25 25.5H31.1667V4.25Z" stroke="#0E0E0E" stroke-width="2" stroke-linecap="round" stroke-linejoin="round"/>
</svg>
