<svg width="34" height="34" viewBox="0 0 34 34" fill="none" xmlns="http://www.w3.org/2000/svg">
<path d="M15.582 5.66797H5.66536C4.91392 5.66797 4.19325 5.96648 3.6619 6.49783C3.13054 7.02919 2.83203 7.74986 2.83203 8.5013V28.3346C2.83203 29.0861 3.13054 29.8068 3.6619 30.3381C4.19325 30.8695 4.91392 31.168 5.66536 31.168H25.4987C26.2501 31.168 26.9708 30.8695 27.5022 30.3381C28.0335 29.8068 28.332 29.0861 28.332 28.3346V18.418" stroke="#0E0E0E" stroke-width="2" stroke-linecap="round" stroke-linejoin="round"/>
<path d="M26.207 3.54036C26.7706 2.97678 27.535 2.66016 28.332 2.66016C29.1291 2.66016 29.8934 2.97678 30.457 3.54036C31.0206 4.10395 31.3372 4.86833 31.3372 5.66536C31.3372 6.46239 31.0206 7.22677 30.457 7.79036L16.9987 21.2487L11.332 22.6654L12.7487 16.9987L26.207 3.54036Z" stroke="#0E0E0E" stroke-width="2" stroke-linecap="round" stroke-linejoin="round"/>
</svg>
