<svg width="211" height="217" viewBox="0 0 211 217" fill="none" xmlns="http://www.w3.org/2000/svg">
<path d="M170.617 128.936C169.103 129.34 167.545 129.605 165.996 129.722L162.01 130.021L164.157 133.283C164.992 134.555 165.706 135.903 166.267 137.302C167.404 140.094 167.981 142.997 167.981 145.934C167.981 159.001 156.993 169.632 143.486 169.632C138.484 169.632 133.838 168.16 129.954 165.661C125.451 162.761 122.092 158.428 120.347 153.375V194.541H105.503H105.497H90.6565V170.102V153.375C88.9113 158.428 85.5487 162.761 81.0486 165.661C77.1656 168.16 72.5159 169.632 67.514 169.632C54.0075 169.632 43.019 159.001 43.019 145.934C43.019 142.997 43.5986 140.094 44.733 137.302C45.2971 135.903 46.0076 134.555 46.8428 133.283L48.9932 130.021L45.0041 129.722C43.4553 129.605 41.9002 129.34 40.3825 128.936C29.7992 126.095 22.4101 116.713 22.4101 106.109C22.4101 96.3376 28.7863 87.4374 38.2758 83.9641C39.7655 83.4214 41.2987 83.0204 42.8382 82.7702L46.9955 82.0948L44.2718 78.9834C43.2434 77.8015 42.3396 76.5322 41.5761 75.1966C39.566 71.7022 38.5064 67.7405 38.5064 63.7396C38.5064 50.6727 49.4949 40.0449 63.0014 40.0449C66.5822 40.0449 70.0757 40.8077 73.3885 42.3122C74.8064 42.9604 76.1714 43.7473 77.4367 44.6458L80.7151 46.9703L81.2418 43.069C81.4444 41.5675 81.7965 40.0781 82.2889 38.646C85.6516 28.9649 94.979 22.4646 105.5 22.4616C116.021 22.4646 125.352 28.9649 128.714 38.646C129.207 40.0781 129.559 41.5675 129.761 43.069L130.285 46.9703L133.563 44.6458C134.832 43.7473 136.197 42.9604 137.615 42.3122C140.924 40.8077 144.421 40.0449 148.002 40.0449C161.508 40.0449 172.497 50.6727 172.497 63.7396C172.497 67.7405 171.434 71.7022 169.427 75.1966C168.663 76.5322 167.757 77.8015 166.728 78.9834L164.008 82.0948L168.165 82.7702C169.704 83.0204 171.238 83.4214 172.724 83.9641C182.217 87.4374 188.593 96.3376 188.593 106.109C188.593 116.713 181.201 126.095 170.617 128.936ZM211 105.781C211 91.4654 202.682 78.5794 189.575 72.2298C191.641 67.5747 192.682 62.6543 192.682 57.5589C192.682 36.8551 175.27 20.0104 153.867 20.0104C149.417 20.0104 145.06 20.743 140.874 22.1963C134.648 8.81881 120.77 0.00301498 105.503 0H105.5H105.497C90.2296 0.00301498 76.3522 8.81881 70.1287 22.1963C65.9433 20.743 61.5866 20.0104 57.1332 20.0104C35.7328 20.0104 18.3214 36.8551 18.3214 57.5589C18.3214 62.6543 19.3623 67.5747 21.4285 72.2298C8.31771 78.5794 0 91.4654 0 105.781C0 121.287 10.1346 135.339 24.9687 140.854C23.9621 144.227 23.4573 147.662 23.4573 151.105C23.4573 171.809 40.8687 188.653 62.2691 188.653C67.7415 188.653 72.9459 187.538 77.6704 185.554V217H133.333V185.554C138.057 187.538 143.262 188.653 148.734 188.653C170.134 188.653 187.546 171.809 187.546 151.105C187.546 147.662 187.038 144.227 186.034 140.854C200.869 135.339 211 121.287 211 105.781Z" fill="#F3F3F3"/>
</svg>
