<svg width="10" height="19" viewBox="0 0 10 19" fill="none" xmlns="http://www.w3.org/2000/svg">
<path d="M9.62363 0.00395335L7.22503 0C4.53029 0 2.78884 1.83534 2.78884 4.67602V6.83198H0.377156C0.168758 6.83198 0 7.00553 0 7.21961V10.3433C0 10.5574 0.168951 10.7308 0.377156 10.7308H2.78884V18.613C2.78884 18.827 2.95759 19.0004 3.16599 19.0004H6.31255C6.52094 19.0004 6.6897 18.8268 6.6897 18.613V10.7308H9.50952C9.71792 10.7308 9.88667 10.5574 9.88667 10.3433L9.88783 7.21961C9.88783 7.11682 9.848 7.01838 9.77738 6.94564C9.70675 6.8729 9.61054 6.83198 9.51048 6.83198H6.6897V5.00435C6.6897 4.12591 6.89348 3.67998 8.00744 3.67998L9.62324 3.67938C9.83145 3.67938 10.0002 3.50583 10.0002 3.29195V0.391382C10.0002 0.177703 9.83164 0.00434868 9.62363 0.00395335Z" fill="#0E0E0E"/>
</svg>
