<svg width="36" height="40" viewBox="0 0 36 40" fill="none" xmlns="http://www.w3.org/2000/svg">
<g filter="url(#filter0_d)">
<path d="M29.5511 17.8422C28.2701 15.9815 27.6165 14.5854 27.4423 12.2623C27.3119 10.5262 28.0417 8.52139 28.0417 8.52139C27.1372 9.12384 27.1271 9.05931 26.53 9.55275C23.4221 12.1215 22.61 14.6923 22.515 15.0246C22.5085 15.0482 22.5047 15.0618 22.5047 15.0618L22.515 15.0246C22.515 15.0246 24.9441 5.52149 18.1821 1.09621C17.6209 0.729067 16.3265 0 16.3265 0C16.3265 0 19.6838 8.23083 13.6727 13.1137C12.4896 8.2848 6.24339 8.22539 6.24339 8.22539C6.24339 8.22539 6.72339 9.90784 6.80051 10.3058C7.81278 15.5537 4.71016 17.2144 4.07998 22.1754C4.15187 21.606 4.12328 21.8326 4.07955 22.1785C4.07934 22.1796 4.07912 22.1809 4.07912 22.1822C4.07923 22.1815 4.07923 22.1811 4.07934 22.1805C4.07912 22.182 4.07902 22.1834 4.07891 22.1846C3.58707 26.0791 5.44286 29.0955 8.2947 31.1307C8.42782 29.7561 8.99134 28.3924 9.77448 27.2546C10.6608 25.9675 11.113 25.0016 11.233 23.3947C11.3226 22.1936 10.8184 20.8065 10.8184 20.8065C11.4433 21.2237 11.4512 21.1791 11.8641 21.5203C13.6108 22.9639 14.3091 24.4086 14.5449 25.023C14.5528 25.0182 14.5609 25.0135 14.5695 25.0089C14.2716 23.6641 13.4318 18.4238 17.639 15.6704C18.027 15.4169 18.9225 14.9124 18.9225 14.9124C18.9225 14.9124 16.54 20.122 21.7853 24.3536C21.6681 22.6218 22.3288 21.0227 23.5652 19.7906C24.2369 19.1218 25.4473 18.8004 25.4473 18.8004C25.4473 18.8004 25.1149 19.965 25.0617 20.24C24.3614 23.8713 27.4099 26.6948 26.7586 30.1344C26.6365 30.7791 26.4615 31.4048 26.2176 31.9999H26.5088C28.055 31.1742 29.49 30.1004 30.4727 28.627C32.7088 25.2747 31.7039 20.9689 29.5511 17.8422Z" fill="#FF0400"/>
</g>
<defs>
<filter id="filter0_d" x="0" y="0" width="35.7344" height="39.9999" filterUnits="userSpaceOnUse" color-interpolation-filters="sRGB">
<feFlood flood-opacity="0" result="BackgroundImageFix"/>
<feColorMatrix in="SourceAlpha" type="matrix" values="0 0 0 0 0 0 0 0 0 0 0 0 0 0 0 0 0 0 127 0"/>
<feOffset dy="4"/>
<feGaussianBlur stdDeviation="2"/>
<feColorMatrix type="matrix" values="0 0 0 0 0 0 0 0 0 0 0 0 0 0 0 0 0 0 0.25 0"/>
<feBlend mode="normal" in2="BackgroundImageFix" result="effect1_dropShadow"/>
<feBlend mode="normal" in="SourceGraphic" in2="effect1_dropShadow" result="shape"/>
</filter>
</defs>
</svg>
