<svg width="28" height="32" viewBox="0 0 28 32" fill="none" xmlns="http://www.w3.org/2000/svg">
<path d="M25.5511 17.8422C24.2701 15.9815 23.6165 14.5854 23.4423 12.2623C23.3119 10.5262 24.0417 8.52139 24.0417 8.52139C23.1372 9.12384 23.1271 9.05931 22.53 9.55275C19.4221 12.1215 18.61 14.6923 18.515 15.0246C18.5085 15.0482 18.5047 15.0618 18.5047 15.0618L18.515 15.0246C18.515 15.0246 20.9441 5.52149 14.1821 1.09621C13.6209 0.729067 12.3265 0 12.3265 0C12.3265 0 15.6838 8.23083 9.67272 13.1137C8.48958 8.2848 2.24339 8.22539 2.24339 8.22539C2.24339 8.22539 2.72339 9.90784 2.80051 10.3058C3.81278 15.5537 0.710164 17.2144 0.0799774 22.1754C0.151871 21.606 0.123284 21.8326 0.0795506 22.1785C0.0793372 22.1796 0.0791239 22.1809 0.0791239 22.1822C0.0792306 22.1815 0.0792307 22.1811 0.0793373 22.1805C0.079124 22.182 0.0790174 22.1834 0.0789107 22.1846C-0.412929 26.0791 1.44286 29.0955 4.2947 31.1307C4.42782 29.7561 4.99134 28.3924 5.77448 27.2546C6.66078 25.9675 7.11304 25.0016 7.23304 23.3947C7.32264 22.1936 6.81843 20.8065 6.81843 20.8065C7.44328 21.2237 7.45118 21.1791 7.86408 21.5203C9.61075 22.9639 10.3091 24.4086 10.5449 25.023C10.5528 25.0182 10.5609 25.0135 10.5695 25.0089C10.2716 23.6641 9.43176 18.4238 13.639 15.6704C14.027 15.4169 14.9225 14.9124 14.9225 14.9124C14.9225 14.9124 12.54 20.122 17.7853 24.3536C17.6681 22.6218 18.3288 21.0227 19.5652 19.7906C20.2369 19.1218 21.4473 18.8004 21.4473 18.8004C21.4473 18.8004 21.1149 19.965 21.0617 20.24C20.3614 23.8713 23.4099 26.6948 22.7586 30.1344C22.6365 30.7791 22.4615 31.4048 22.2176 31.9999H22.5088C24.055 31.1742 25.49 30.1004 26.4727 28.627C28.7088 25.2747 27.7039 20.9689 25.5511 17.8422Z" fill="#FF0400"/>
</svg>
