<svg width="48" height="48" viewBox="0 0 48 48" fill="none" xmlns="http://www.w3.org/2000/svg">
<path d="M37.1791 10.6139L40.5552 2.67477C40.7389 2.24296 40.5749 1.74187 40.1715 1.50205L38.5149 0.517398C37.2161 -0.254727 35.5571 -0.131165 34.387 0.824429L34.1312 1.03321C33.4954 1.55268 32.5724 1.55268 31.9359 1.03284L31.9256 1.02449C30.6002 -0.057852 28.6776 -0.0562582 27.354 1.02862C26.7177 1.55015 25.7936 1.55071 25.1567 1.03049L24.8969 0.818242C23.7323 -0.13304 22.079 -0.259883 20.7829 0.502679L19.0819 1.50337C18.6751 1.74271 18.5096 2.24699 18.6956 2.68077L22.0928 10.6071C19.6354 11.4946 17.5386 13.1919 16.1628 15.4215C15.8908 15.862 16.0276 16.4397 16.4682 16.7116C16.9089 16.9834 17.4865 16.8466 17.7584 16.406C18.9392 14.4923 20.7528 13.0446 22.8765 12.3163H36.3733C40.3057 13.6631 42.9373 17.3376 42.9373 21.5056V23.993C42.9373 24.5106 43.3571 24.9305 43.8748 24.9305C44.3926 24.9305 44.8123 24.5106 44.8123 23.993V21.5056C44.8123 16.6035 41.7604 12.2751 37.1791 10.6139ZM35.2149 10.4413H24.0614L20.7438 2.70084L21.7335 2.11874C22.3563 1.75218 23.1509 1.81321 23.7107 2.27043L23.9705 2.48259C25.2959 3.5653 27.2187 3.56371 28.5426 2.47874C29.1787 1.9573 30.1027 1.95665 30.7403 2.47724L30.7505 2.48559C32.0736 3.56605 33.9941 3.56605 35.3171 2.4854L35.5728 2.27662C36.1352 1.81743 36.9324 1.75809 37.5566 2.12905L38.509 2.69512L35.2149 10.4413Z" fill="black"/>
<path d="M44.5378 26.872C44.3634 26.6977 44.1216 26.5974 43.875 26.5974C43.6284 26.5974 43.3866 26.6976 43.2122 26.872C43.0378 27.0474 42.9375 27.2882 42.9375 27.5349C42.9375 27.7814 43.0378 28.0233 43.2122 28.1976C43.3866 28.3729 43.6284 28.4732 43.875 28.4732C44.1216 28.4732 44.3634 28.3729 44.5378 28.1976C44.7122 28.0233 44.8125 27.7814 44.8125 27.5349C44.8125 27.2882 44.7122 27.0463 44.5378 26.872Z" fill="black"/>
<path d="M14.3425 41.8177C14.1681 41.6433 13.9262 41.543 13.6797 41.543C13.4331 41.543 13.1912 41.6433 13.0169 41.8177C12.8425 41.992 12.7422 42.2339 12.7422 42.4805C12.7422 42.727 12.8425 42.9689 13.0169 43.1433C13.1912 43.3176 13.4331 43.418 13.6797 43.418C13.9262 43.418 14.1681 43.3177 14.3425 43.1433C14.5169 42.9689 14.6172 42.727 14.6172 42.4805C14.6172 42.2339 14.5169 41.992 14.3425 41.8177Z" fill="black"/>
<path d="M48 39.1805C48 38.1426 47.5537 37.2072 46.843 36.5555C47.5536 35.9037 48 34.9684 48 33.9305C48 31.9661 46.4018 30.368 44.4375 30.368H34.3125C32.3482 30.368 30.75 31.9661 30.75 33.9305C30.75 34.9684 31.1963 35.9037 31.907 36.5555C31.1964 37.2072 30.75 38.1426 30.75 39.1805C30.75 40.2184 31.1963 41.1537 31.907 41.8055C31.1964 42.4572 30.75 43.3926 30.75 44.4305C30.75 45.0407 30.9044 45.6154 31.1759 46.118H27.3584V42.4522C27.3584 37.4943 23.547 33.4106 18.7005 32.9755C18.5691 32.9365 18.4309 32.9277 18.296 32.9475C18.2802 32.9468 18.2644 32.9464 18.2486 32.9457C19.4656 31.7568 20.2231 30.0994 20.2231 28.2677V18.9305C20.2231 18.4128 19.8034 17.993 19.2856 17.993H12.341C9.47053 17.993 7.13531 20.3282 7.13531 23.1985V28.2676C7.13531 30.0993 7.89281 31.7567 9.10978 32.9456C9.09403 32.9463 9.07819 32.9467 9.06244 32.9474C8.92753 32.9277 8.78934 32.9364 8.65791 32.9755C3.81141 33.4106 0 37.4944 0 42.4522V47.0555C0 47.5732 0.419719 47.993 0.9375 47.993H15.375H26.4209H34.3125H43.875H44.4375C46.4018 47.993 48 46.3948 48 44.4305C48 43.3926 47.5537 42.4572 46.843 41.8055C47.5537 41.1537 48 40.2184 48 39.1805ZM9.01031 24.5117V23.1985C9.01031 21.3621 10.5045 19.868 12.341 19.868H18.3481V22.3768C18.3481 23.6445 17.3167 24.6759 16.049 24.6759H9.01031V24.5117ZM9.01031 28.2677V26.5509H16.049C16.8981 26.5509 17.6883 26.2954 18.3481 25.8582V28.2676C18.3481 30.842 16.2536 32.9364 13.6793 32.9364C11.1049 32.9364 9.01031 30.8421 9.01031 28.2677ZM16.169 34.8114L13.6792 37.3013L11.1893 34.8114H16.169ZM25.4834 46.1181H15.375V46.118H1.875V43.4199H9.52528C10.0431 43.4199 10.4628 43 10.4628 42.4824C10.4628 41.9647 10.0431 41.5449 9.52528 41.5449H1.93078C2.34516 38.0604 5.11247 35.2893 8.59519 34.8689L13.0163 39.2901C13.1994 39.4731 13.4393 39.5647 13.6793 39.5647C13.9192 39.5647 14.1592 39.4731 14.3422 39.2901L18.7633 34.8689C22.5436 35.3252 25.4834 38.5509 25.4834 42.4523V46.1181ZM44.4375 46.118H43.875H34.3125C33.382 46.118 32.625 45.361 32.625 44.4305C32.625 43.5 33.382 42.743 34.3125 42.743H44.4375C45.368 42.743 46.125 43.5 46.125 44.4305C46.125 45.361 45.368 46.118 44.4375 46.118ZM44.4375 40.868H34.3125C33.382 40.868 32.625 40.1109 32.625 39.1805C32.625 38.25 33.382 37.493 34.3125 37.493H44.4375C45.368 37.493 46.125 38.25 46.125 39.1805C46.125 40.1109 45.368 40.868 44.4375 40.868ZM44.4375 35.618H34.3125C33.382 35.618 32.625 34.8609 32.625 33.9305C32.625 33 33.382 32.243 34.3125 32.243H44.4375C45.368 32.243 46.125 33 46.125 33.9305C46.125 34.8609 45.368 35.618 44.4375 35.618Z" fill="black"/>
<path d="M35.0642 21.3736C34.3137 21.3736 33.7031 20.8583 33.7031 20.2251C33.7031 19.5918 34.3137 19.0765 35.0642 19.0765C35.8147 19.0765 36.4253 19.5918 36.4253 20.2251C36.4253 20.7427 36.845 21.1626 37.3628 21.1626C37.8805 21.1626 38.3003 20.7427 38.3003 20.2251C38.3003 18.8624 37.3303 17.7079 36.0017 17.3314V17.1914C36.0017 16.6737 35.582 16.2539 35.0642 16.2539C34.5464 16.2539 34.1267 16.6737 34.1267 17.1914V17.3314C32.7982 17.7079 31.8281 18.8624 31.8281 20.2251C31.8281 21.8922 33.2798 23.2486 35.0642 23.2486C35.8147 23.2486 36.4253 23.7638 36.4253 24.3971C36.4253 25.0304 35.8147 25.5457 35.0642 25.5457C34.3137 25.5457 33.7031 25.0304 33.7031 24.3971C33.7031 23.8794 33.2834 23.4596 32.7656 23.4596C32.2478 23.4596 31.8281 23.8794 31.8281 24.3971C31.8281 25.7598 32.7981 26.9143 34.1267 27.2908V27.3509C34.1267 27.8686 34.5464 28.2884 35.0642 28.2884C35.582 28.2884 36.0017 27.8686 36.0017 27.3509V27.2908C37.3302 26.9143 38.3003 25.7598 38.3003 24.3971C38.3003 22.73 36.8486 21.3736 35.0642 21.3736Z" fill="black"/>
</svg>
