<svg width="48" height="48" viewBox="0 0 48 48" fill="none" xmlns="http://www.w3.org/2000/svg">
<path d="M40.9706 7.02947C36.4375 2.49638 30.4106 0 24 0C17.5894 0 11.5625 2.49638 7.02938 7.02947C2.49647 11.5625 0 17.5894 0 24C0 30.4106 2.49647 36.4375 7.02938 40.9705C11.5625 45.5036 17.5894 48 24 48C30.4106 48 36.4375 45.5036 40.9706 40.9705C45.5035 36.4375 48 30.4106 48 24C48 17.5894 45.5035 11.5625 40.9706 7.02947ZM24 46.125C11.8002 46.125 1.875 36.1998 1.875 24C1.875 11.8002 11.8002 1.875 24 1.875C36.1998 1.875 46.125 11.8002 46.125 24C46.125 36.1998 36.1998 46.125 24 46.125Z" fill="black"/>
<path d="M43.8845 20.1519C42.6207 13.5852 38.1931 8.07404 32.0402 5.40948C31.5652 5.2037 31.0132 5.42214 30.8074 5.89717C30.6017 6.37229 30.82 6.92429 31.2952 7.12998C36.8788 9.54807 40.8968 14.5485 42.0432 20.5062C42.1296 20.9548 42.5224 21.2667 42.9629 21.2667C43.0216 21.2667 43.0812 21.2612 43.141 21.2497C43.6494 21.1519 43.9823 20.6604 43.8845 20.1519Z" fill="black"/>
<path d="M28.3549 4.218L28.3304 4.21266C27.8245 4.10353 27.3255 4.42547 27.2165 4.93172C27.1075 5.43787 27.4294 5.93653 27.9356 6.04556L27.9466 6.048C28.0154 6.06337 28.084 6.07068 28.1517 6.07068C28.5811 6.07068 28.9684 5.77368 29.0658 5.33718C29.1785 4.83178 28.8603 4.33078 28.3549 4.218Z" fill="black"/>
<path d="M16.916 40.9615C11.2172 38.5784 7.12005 33.5442 5.95595 27.495C5.85817 26.9866 5.3673 26.6532 4.85823 26.7516C4.34973 26.8494 4.01692 27.3409 4.1147 27.8493C4.74573 31.1279 6.20233 34.232 8.32736 36.8258C10.4278 39.3896 13.1476 41.4178 16.1926 42.6912C16.3107 42.7407 16.4334 42.7641 16.5539 42.7641C16.9206 42.7641 17.2689 42.5475 17.4191 42.188C17.6189 41.7103 17.3936 41.1612 16.916 40.9615Z" fill="black"/>
<path d="M20.0701 41.9532L20.0121 41.9405C19.5071 41.8282 19.0059 42.1468 18.8936 42.6522C18.7813 43.1576 19.1 43.6584 19.6055 43.7707L19.6711 43.7852C19.7383 43.7998 19.8054 43.8068 19.8715 43.8068C20.3029 43.8068 20.6911 43.5073 20.7866 43.0687C20.8968 42.5628 20.576 42.0634 20.0701 41.9532Z" fill="black"/>
<path d="M43.0703 27.2131C42.565 27.1028 42.0651 27.4237 41.9548 27.9296C40.3894 35.1132 34.7136 40.6526 27.495 42.0417C26.9865 42.1394 26.6536 42.631 26.7514 43.1394C26.8378 43.588 27.2306 43.8999 27.6711 43.8999C27.7298 43.8999 27.7895 43.8943 27.8492 43.8828C31.74 43.1341 35.3025 41.2671 38.1515 38.4837C40.9961 35.7044 42.9448 32.1929 43.7867 28.3287C43.8969 27.8228 43.5762 27.3234 43.0703 27.2131Z" fill="black"/>
<path d="M21.2484 4.8583C21.1505 4.34989 20.6591 4.01651 20.1506 4.11486C16.2598 4.86355 12.6973 6.73058 9.84829 9.51401C7.00373 12.2932 5.05504 15.8047 4.21307 19.669C4.10292 20.1749 4.42363 20.6743 4.92951 20.7845C4.99673 20.7992 5.06395 20.8062 5.13004 20.8062C5.56138 20.8062 5.9496 20.5068 6.04513 20.0681C7.61048 12.8844 13.2863 7.34511 20.5049 5.95601C21.0134 5.85823 21.3462 5.3667 21.2484 4.8583Z" fill="black"/>
<path d="M24 20.8125C22.2424 20.8125 20.8125 22.2424 20.8125 24C20.8125 25.7576 22.2424 27.1875 24 27.1875C25.7576 27.1875 27.1875 25.7576 27.1875 24C27.1875 22.2424 25.7576 20.8125 24 20.8125ZM24 25.3125C23.2763 25.3125 22.6875 24.7237 22.6875 24C22.6875 23.2763 23.2763 22.6875 24 22.6875C24.7237 22.6875 25.3125 23.2763 25.3125 24C25.3125 24.7237 24.7237 25.3125 24 25.3125Z" fill="black"/>
<path d="M24.0156 3.75C23.4979 3.75 23.0781 4.16972 23.0781 4.6875V6.78825C23.0781 7.30603 23.4979 7.72575 24.0156 7.72575C24.5334 7.72575 24.9531 7.30603 24.9531 6.78825V4.6875C24.9531 4.16972 24.5333 3.75 24.0156 3.75Z" fill="black"/>
<path d="M23.9844 39.6055C23.4667 39.6055 23.0469 40.0252 23.0469 40.543V43.312C23.0469 43.8298 23.4667 44.2495 23.9844 44.2495C24.5021 44.2495 24.9219 43.8298 24.9219 43.312V40.543C24.9219 40.0252 24.5021 39.6055 23.9844 39.6055Z" fill="black"/>
<path d="M43.3125 23.0781H40.7812C40.2636 23.0781 39.8438 23.4978 39.8438 24.0156C39.8438 24.5334 40.2636 24.9531 40.7812 24.9531H43.3125C43.8302 24.9531 44.25 24.5334 44.25 24.0156C44.25 23.4978 43.8302 23.0781 43.3125 23.0781Z" fill="black"/>
<path d="M7.40625 23.0469H4.6875C4.16981 23.0469 3.75 23.4666 3.75 23.9844C3.75 24.5021 4.16981 24.9219 4.6875 24.9219H7.40625C7.92394 24.9219 8.34375 24.5021 8.34375 23.9844C8.34375 23.4666 7.92394 23.0469 7.40625 23.0469Z" fill="black"/>
<path d="M21.75 23.0625H17.4687C16.9511 23.0625 16.5312 23.4822 16.5312 24C16.5312 24.5178 16.9511 24.9375 17.4687 24.9375H21.75C22.2677 24.9375 22.6875 24.5178 22.6875 24C22.6875 23.4822 22.2677 23.0625 21.75 23.0625Z" fill="black"/>
<path d="M24 12.0312C23.4823 12.0312 23.0625 12.4509 23.0625 12.9687V21.75C23.0625 22.2678 23.4823 22.6875 24 22.6875C24.5177 22.6875 24.9375 22.2678 24.9375 21.75V12.9687C24.9375 12.4509 24.5177 12.0312 24 12.0312Z" fill="black"/>
</svg>
