<svg width="48" height="48" viewBox="0 0 48 48" fill="none" xmlns="http://www.w3.org/2000/svg">
<path d="M38.813 13.9453C39.3307 13.9453 39.7505 13.5256 39.7505 13.0078V2.8125C39.7505 1.26169 38.4888 0 36.938 0H2.81299C1.26218 0 0.000488281 1.26169 0.000488281 2.8125V45.1875C0.000488281 46.7383 1.26218 48 2.81299 48H36.938C38.4888 48 39.7505 46.7383 39.7505 45.1875V38.2808C39.7505 37.763 39.3307 37.3433 38.813 37.3433C38.2953 37.3433 37.8755 37.763 37.8755 38.2808V45.1875C37.8755 45.7044 37.4549 46.125 36.938 46.125H2.81299C2.29605 46.125 1.87549 45.7044 1.87549 45.1875V2.8125C1.87549 2.29556 2.29605 1.875 2.81299 1.875H36.938C37.4549 1.875 37.8755 2.29556 37.8755 2.8125V13.0078C37.8755 13.5256 38.2953 13.9453 38.813 13.9453Z" fill="#0E0E0E"/>
<path d="M19.8755 5.0625C15.1196 5.0625 11.2505 8.93166 11.2505 13.6875C11.2505 16.1547 12.2921 18.383 13.9582 19.9565C13.9894 19.9898 14.0226 20.0214 14.0589 20.0502C15.5936 21.4545 17.6362 22.3124 19.8754 22.3124C22.1146 22.3124 24.1571 21.4544 25.6919 20.0502C25.7282 20.0214 25.7614 19.9897 25.7926 19.9565C27.4589 18.383 28.5005 16.1547 28.5005 13.6875C28.5005 8.93166 24.6313 5.0625 19.8755 5.0625ZM19.8755 20.4375C18.3446 20.4375 16.9318 19.9245 15.7982 19.0624C16.6222 17.6013 18.1598 16.6875 19.8755 16.6875C21.5912 16.6875 23.1288 17.6013 23.9528 19.0624C22.819 19.9245 21.4063 20.4375 19.8755 20.4375ZM18.3755 13.3125V12.7031C18.3755 11.8761 19.0484 11.2031 19.8755 11.2031C20.7025 11.2031 21.3755 11.8761 21.3755 12.7031V13.3125C21.3755 14.1396 20.7025 14.8125 19.8755 14.8125C19.0484 14.8125 18.3755 14.1396 18.3755 13.3125ZM25.3074 17.689C24.6159 16.6636 23.6577 15.8661 22.5452 15.3737C22.9868 14.803 23.2505 14.0882 23.2505 13.3125V12.7031C23.2505 10.8421 21.7365 9.32812 19.8755 9.32812C18.0145 9.32812 16.5005 10.8421 16.5005 12.7031V13.3125C16.5005 14.0882 16.7642 14.803 17.2058 15.3737C16.0932 15.8661 15.135 16.6636 14.4436 17.689C13.6159 16.5684 13.1255 15.1844 13.1255 13.6875C13.1255 9.96553 16.1535 6.9375 19.8755 6.9375C23.5974 6.9375 26.6255 9.96553 26.6255 13.6875C26.6255 15.1844 26.1351 16.5684 25.3074 17.689Z" fill="#0E0E0E"/>
<path d="M24.938 41.0625H19.8755C19.3578 41.0625 18.938 41.4822 18.938 42C18.938 42.5178 19.3578 42.9375 19.8755 42.9375H24.938C25.4557 42.9375 25.8755 42.5178 25.8755 42C25.8755 41.4822 25.4557 41.0625 24.938 41.0625Z" fill="#0E0E0E"/>
<path d="M24.938 35.8125H11.6255C11.1078 35.8125 10.688 36.2322 10.688 36.75C10.688 37.2678 11.1078 37.6875 11.6255 37.6875H24.938C25.4557 37.6875 25.8755 37.2678 25.8755 36.75C25.8755 36.2322 25.4557 35.8125 24.938 35.8125Z" fill="#0E0E0E"/>
<path d="M24.938 30.5625H11.6255C11.1078 30.5625 10.688 30.9822 10.688 31.5C10.688 32.0178 11.1078 32.4375 11.6255 32.4375H24.938C25.4557 32.4375 25.8755 32.0178 25.8755 31.5C25.8755 30.9822 25.4557 30.5625 24.938 30.5625Z" fill="#0E0E0E"/>
<path d="M8.28426 25.5872C8.10998 25.4128 7.86811 25.3125 7.62061 25.3125C7.37395 25.3125 7.13207 25.4128 6.95779 25.5872C6.78342 25.7616 6.68311 26.0034 6.68311 26.25C6.68311 26.4966 6.78332 26.7384 6.95779 26.9128C7.13311 27.0872 7.37395 27.1875 7.62061 27.1875C7.86811 27.1875 8.10904 27.0872 8.28426 26.9128C8.45864 26.7384 8.55904 26.4966 8.55904 26.25C8.55904 26.0034 8.45873 25.7616 8.28426 25.5872Z" fill="#0E0E0E"/>
<path d="M8.28426 30.8372C8.10904 30.6628 7.86811 30.5625 7.62061 30.5625C7.37395 30.5625 7.13311 30.6628 6.95779 30.8372C6.78342 31.0116 6.68311 31.2534 6.68311 31.5C6.68311 31.7466 6.78332 31.9884 6.95779 32.1628C7.13311 32.3372 7.37395 32.4375 7.62061 32.4375C7.86811 32.4375 8.10904 32.3372 8.28426 32.1628C8.45864 31.9884 8.55904 31.7466 8.55904 31.5C8.55904 31.2534 8.45873 31.0116 8.28426 30.8372Z" fill="#0E0E0E"/>
<path d="M8.28426 36.0872C8.10904 35.9128 7.86811 35.8125 7.62061 35.8125C7.37395 35.8125 7.13311 35.9128 6.95779 36.0872C6.78342 36.2616 6.68311 36.5034 6.68311 36.75C6.68311 36.9966 6.78332 37.2384 6.95779 37.4128C7.13207 37.5872 7.37395 37.6875 7.62061 37.6875C7.86811 37.6875 8.10998 37.5872 8.28426 37.4128C8.45864 37.2384 8.55904 36.9966 8.55904 36.75C8.55904 36.5034 8.45873 36.2616 8.28426 36.0872Z" fill="#0E0E0E"/>
<path d="M24.938 25.3125H11.6255C11.1078 25.3125 10.688 25.7322 10.688 26.25C10.688 26.7678 11.1078 27.1875 11.6255 27.1875H24.938C25.4557 27.1875 25.8755 26.7678 25.8755 26.25C25.8755 25.7322 25.4557 25.3125 24.938 25.3125Z" fill="#0E0E0E"/>
<path d="M46.0314 12.2175C45.1206 11.6917 44.0595 11.552 43.0435 11.8241C42.0276 12.0964 41.1784 12.7479 40.6527 13.6587L28.855 34.0927C28.7904 34.2048 28.7495 34.329 28.7352 34.4575L27.9047 41.896C27.8635 42.2662 28.0452 42.6257 28.3677 42.812C28.5132 42.896 28.675 42.9376 28.8363 42.9376C29.0324 42.9376 29.2278 42.8762 29.3923 42.755L35.419 38.3165C35.5231 38.2398 35.6103 38.1424 35.6749 38.0303L47.4725 17.5963C48.5581 15.7161 47.9116 13.3031 46.0314 12.2175ZM30.0058 39.9744L30.4395 36.0902L33.1528 37.6567L30.0058 39.9744ZM34.5199 36.2809L30.9476 34.2184L40.4149 17.8206L43.9872 19.8831L34.5199 36.2809ZM45.8487 16.6587L44.9247 18.2593L41.3523 16.1968L42.2764 14.5962C42.5518 14.1191 42.9966 13.7779 43.5287 13.6353C44.061 13.4926 44.6168 13.5659 45.0938 13.8413C45.5709 14.1168 45.9121 14.5615 46.0547 15.0937C46.1973 15.6258 46.1242 16.1816 45.8487 16.6587Z" fill="#0E0E0E"/>
</svg>
