<svg width="18" height="19" viewBox="0 0 18 19" fill="none" xmlns="http://www.w3.org/2000/svg">
<path d="M14.7 0.00390625H3.29999C1.48039 0.00390625 0 1.4843 0 3.3039V14.7039C0 16.5235 1.48039 18.0043 3.29999 18.0043H14.7C16.5196 18.0043 18.0004 16.5239 18.0004 14.7039V3.3039C18.0004 1.4843 16.52 0.00390625 14.7 0.00390625ZM8.99997 14.9297C5.7328 14.9297 3.07456 12.2715 3.07456 9.00388C3.07456 5.7367 5.7328 3.07847 8.99997 3.07847C12.2676 3.07847 14.9258 5.7367 14.9258 9.00388C14.9258 12.2711 12.2671 14.9297 8.99997 14.9297ZM15.1163 4.30361C14.3429 4.30361 13.7139 3.67463 13.7139 2.90162C13.7139 2.12862 14.3429 1.49964 15.1163 1.49964C15.8893 1.49964 16.5183 2.12862 16.5183 2.90162C16.5183 3.67463 15.8893 4.30361 15.1163 4.30361Z" fill="#0E0E0E"/>
<path d="M8.99511 5.58203C7.10903 5.58203 5.57324 7.11697 5.57324 9.00304C5.57324 10.89 7.10903 12.4253 8.99511 12.4253C10.882 12.4253 12.4165 10.89 12.4165 9.00304C12.4165 7.1174 10.8816 5.58203 8.99511 5.58203Z" fill="#0E0E0E"/>
</svg>
