<svg width="32" height="30" viewBox="0 0 32 30" fill="none" xmlns="http://www.w3.org/2000/svg">
<path d="M20.9582 9.62467L25.9166 4.66634M28.7499 1.83301L25.9166 4.66634L28.7499 1.83301ZM15.1357 15.4472C15.8672 16.1689 16.4487 17.0282 16.8467 17.9756C17.2447 18.923 17.4514 19.9398 17.4549 20.9674C17.4583 21.995 17.2584 23.0131 16.8668 23.9632C16.4751 24.9132 15.8994 25.7764 15.1728 26.503C14.4461 27.2297 13.583 27.8054 12.6329 28.1971C11.6829 28.5887 10.6647 28.7886 9.63713 28.7851C8.60953 28.7817 7.59275 28.575 6.64535 28.177C5.69796 27.779 4.83865 27.1975 4.1169 26.466C2.69759 24.9965 1.91223 23.0283 1.92998 20.9853C1.94773 18.9424 2.76718 16.9881 4.21181 15.5435C5.65645 14.0989 7.6107 13.2794 9.65365 13.2617C11.6966 13.2439 13.6648 14.0293 15.1343 15.4486L15.1357 15.4472ZM15.1357 15.4472L20.9582 9.62467L15.1357 15.4472ZM20.9582 9.62467L25.2082 13.8747L30.1666 8.91634L25.9166 4.66634L20.9582 9.62467Z" stroke="#0E0E0E" stroke-width="2" stroke-linecap="round" stroke-linejoin="round"/>
</svg>
