<svg width="59" height="59" viewBox="0 0 59 59" fill="none" xmlns="http://www.w3.org/2000/svg">
<path d="M29.499 9.78906C20.5647 9.78906 14.1109 16.4476 13.0874 23.5998C12.4493 28.3679 13.9905 33.0156 17.1933 36.5315C20.0109 39.5417 21.5521 43.5633 21.5521 47.7053L21.54 54.2314C21.54 56.8683 23.7194 58.9995 26.4165 58.9995H32.7018C35.3989 58.9995 37.5783 56.8683 37.5783 54.2314L37.5903 47.7053C37.5903 43.4429 38.9991 39.5417 41.6962 36.7844C44.6462 33.7742 46.1874 29.885 46.1874 25.8634C46.1754 16.9413 38.6017 9.78906 29.499 9.78906ZM35.134 54.2314C35.134 55.4836 34.1106 56.4951 32.8222 56.4951H26.5369C25.2486 56.4951 24.2251 55.4957 24.2251 54.2314V51.3416H35.122V54.2314H35.134ZM39.9021 35.0264C36.6993 38.2895 35.0256 42.8047 35.0256 47.7053V48.8371H24.1288V47.7053C24.1288 43.0576 22.2023 38.4219 18.9994 34.906C16.1819 31.8958 15.026 28.0067 15.5317 23.9851C16.4348 17.9647 22.0337 12.3056 29.511 12.3056C37.3375 12.3056 43.6227 18.4584 43.6227 25.8634C43.6227 29.2469 42.3344 32.5099 39.9021 35.0264Z" fill="#B8B8B8" fill-opacity="0.77"/>
<path d="M30.7759 0H28.2112V6.02051H30.7759V0Z" fill="#B8B8B8" fill-opacity="0.77"/>
<path d="M45.0439 11.6068L46.8381 13.4009L51.233 9.17448L49.4269 7.38037L45.0439 11.6068Z" fill="#B8B8B8" fill-opacity="0.77"/>
<path d="M58.9989 27.1177H52.7135V29.6342H58.9989V27.1177Z" fill="#B8B8B8" fill-opacity="0.77"/>
<path d="M6.28541 27.1187H0V29.6352H6.28541V27.1187Z" fill="#B8B8B8" fill-opacity="0.77"/>
<path d="M9.52393 7.36914L7.71777 9.16325L12.1127 13.3896L13.9069 11.5955L9.52393 7.36914Z" fill="#B8B8B8" fill-opacity="0.77"/>
</svg>
