<svg width="41" height="42" viewBox="0 0 41 42" fill="none" xmlns="http://www.w3.org/2000/svg">
<path d="M32.5777 24.7304C32.2886 24.8079 31.991 24.8588 31.6953 24.8814L30.9342 24.9386L31.3442 25.5643C31.5037 25.8084 31.6399 26.0669 31.7471 26.3352C31.9642 26.8707 32.0743 27.4276 32.0743 27.9908C32.0743 30.4971 29.9762 32.5362 27.3972 32.5362C26.4422 32.5362 25.555 32.254 24.8135 31.7746C23.9537 31.2183 23.3122 30.3873 22.979 29.418V37.314H20.1448H20.1436H17.31V32.6264V29.418C16.9767 30.3873 16.3347 31.2183 15.4754 31.7746C14.734 32.254 13.8462 32.5362 12.8911 32.5362C10.3122 32.5362 8.21406 30.4971 8.21406 27.9908C8.21406 27.4276 8.32474 26.8707 8.54133 26.3352C8.64904 26.0669 8.78471 25.8084 8.94418 25.5643L9.35477 24.9386L8.5931 24.8814C8.29736 24.8588 8.00043 24.8079 7.71064 24.7304C5.68986 24.1857 4.279 22.3861 4.279 20.3522C4.279 18.478 5.49647 16.7709 7.30839 16.1047C7.59283 16.0006 7.88559 15.9237 8.17954 15.8757L8.97334 15.7462L8.45327 15.1494C8.2569 14.9227 8.08434 14.6792 7.93855 14.4231C7.55474 13.7528 7.35243 12.993 7.35243 12.2256C7.35243 9.71927 9.45057 7.68081 12.0295 7.68081C12.7132 7.68081 13.3803 7.82712 14.0128 8.11568C14.2836 8.24001 14.5442 8.39095 14.7858 8.56328L15.4118 9.00914L15.5123 8.26083C15.551 7.97285 15.6183 7.68717 15.7123 7.41248C16.3543 5.5556 18.1353 4.30882 20.1442 4.30824C22.1531 4.30882 23.9347 5.5556 24.5767 7.41248C24.6707 7.68717 24.738 7.97285 24.7767 8.26083L24.8766 9.00914L25.5026 8.56328C25.7448 8.39095 26.0054 8.24001 26.2762 8.11568C26.9081 7.82712 27.5758 7.68081 28.2595 7.68081C30.8384 7.68081 32.9366 9.71927 32.9366 12.2256C32.9366 12.993 32.7336 13.7528 32.3504 14.4231C32.2046 14.6792 32.0315 14.9227 31.8351 15.1494L31.3156 15.7462L32.1094 15.8757C32.4034 15.9237 32.6962 16.0006 32.98 16.1047C34.7925 16.7709 36.01 18.478 36.01 20.3522C36.01 22.3861 34.5985 24.1857 32.5777 24.7304ZM40.2884 20.2892C40.2884 17.5435 38.7002 15.0719 36.1974 13.854C36.5919 12.9611 36.7907 12.0174 36.7907 11.0401C36.7907 7.06898 33.4662 3.83809 29.3794 3.83809C28.5296 3.83809 27.6977 3.97862 26.8986 4.25735C25.7097 1.69149 23.0599 0.000578287 20.1448 0H20.1436C17.2285 0.000578287 14.5787 1.69149 13.3904 4.25735C12.5912 3.97862 11.7594 3.83809 10.909 3.83809C6.82283 3.83809 3.49829 7.06898 3.49829 11.0401C3.49829 12.0174 3.69704 12.9611 4.09156 13.854C1.58819 15.0719 0 17.5435 0 20.2892C0 23.2633 1.9351 25.9587 4.76753 27.0164C4.57533 27.6635 4.47893 28.3222 4.47893 28.9826C4.47893 32.9537 7.80347 36.1846 11.8897 36.1846C12.9346 36.1846 13.9283 35.9706 14.8304 35.5901V41.6216H25.4586V35.5901C26.3607 35.9706 27.3544 36.1846 28.3993 36.1846C32.4855 36.1846 35.8101 32.9537 35.8101 28.9826C35.8101 28.3222 35.7131 27.6635 35.5215 27.0164C38.3539 25.9587 40.2884 23.2633 40.2884 20.2892Z" fill="#F3F3F3"/>
<path d="M32.5777 24.7304C32.2886 24.8079 31.991 24.8588 31.6953 24.8814L30.9342 24.9386L31.3442 25.5643C31.5037 25.8084 31.6399 26.0669 31.7471 26.3352C31.9642 26.8707 32.0743 27.4276 32.0743 27.9908C32.0743 30.4971 29.9762 32.5362 27.3972 32.5362C26.4422 32.5362 25.555 32.254 24.8135 31.7746C23.9537 31.2183 23.3122 30.3873 22.979 29.418V37.314H20.1448H20.1436H17.31V32.6264V29.418C16.9767 30.3873 16.3347 31.2183 15.4754 31.7746C14.734 32.254 13.8462 32.5362 12.8911 32.5362C10.3122 32.5362 8.21406 30.4971 8.21406 27.9908C8.21406 27.4276 8.32474 26.8707 8.54133 26.3352C8.64904 26.0669 8.78471 25.8084 8.94418 25.5643L9.35477 24.9386L8.5931 24.8814C8.29736 24.8588 8.00043 24.8079 7.71064 24.7304C5.68986 24.1857 4.279 22.3861 4.279 20.3522C4.279 18.478 5.49647 16.7709 7.30839 16.1047C7.59283 16.0006 7.88559 15.9237 8.17954 15.8757L8.97334 15.7462L8.45327 15.1494C8.2569 14.9227 8.08434 14.6792 7.93855 14.4231C7.55474 13.7528 7.35243 12.993 7.35243 12.2256C7.35243 9.71927 9.45057 7.68081 12.0295 7.68081C12.7132 7.68081 13.3803 7.82712 14.0128 8.11568C14.2836 8.24001 14.5442 8.39095 14.7858 8.56328L15.4118 9.00914L15.5123 8.26083C15.551 7.97285 15.6183 7.68717 15.7123 7.41248C16.3543 5.5556 18.1353 4.30882 20.1442 4.30824C22.1531 4.30882 23.9347 5.5556 24.5767 7.41248C24.6707 7.68717 24.738 7.97285 24.7767 8.26083L24.8766 9.00914L25.5026 8.56328C25.7448 8.39095 26.0054 8.24001 26.2762 8.11568C26.9081 7.82712 27.5758 7.68081 28.2595 7.68081C30.8384 7.68081 32.9366 9.71927 32.9366 12.2256C32.9366 12.993 32.7336 13.7528 32.3504 14.4231C32.2046 14.6792 32.0315 14.9227 31.8351 15.1494L31.3156 15.7462L32.1094 15.8757C32.4034 15.9237 32.6962 16.0006 32.98 16.1047C34.7925 16.7709 36.01 18.478 36.01 20.3522C36.01 22.3861 34.5985 24.1857 32.5777 24.7304Z" fill="#F3F3F3"/>
</svg>
