<svg width="34" height="34" viewBox="0 0 34 34" fill="none" xmlns="http://www.w3.org/2000/svg">
<path d="M22.667 2.83301V11.333H31.167" stroke="#0E0E0E" stroke-width="2" stroke-linecap="round" stroke-linejoin="round"/>
<path d="M32.5837 1.41699L22.667 11.3337" stroke="#0E0E0E" stroke-width="2" stroke-linecap="round" stroke-linejoin="round"/>
<path d="M31.166 23.9698V28.2198C31.1676 28.6144 31.0868 29.0049 30.9288 29.3664C30.7707 29.7279 30.5389 30.0524 30.2482 30.3191C29.9574 30.5858 29.6142 30.7889 29.2404 30.9153C28.8667 31.0417 28.4707 31.0887 28.0777 31.0531C23.7184 30.5795 19.531 29.0899 15.8519 26.704C12.429 24.5289 9.52694 21.6269 7.35188 18.204C4.95768 14.5082 3.46772 10.3004 3.00271 5.92148C2.96731 5.52972 3.01387 5.13489 3.13942 4.76211C3.26497 4.38934 3.46677 4.04679 3.73196 3.75628C3.99715 3.46576 4.31993 3.23365 4.67975 3.07472C5.03956 2.91579 5.42853 2.83352 5.82188 2.83315H10.0719C10.7594 2.82638 11.4259 3.06984 11.9472 3.51815C12.4685 3.96646 12.809 4.58903 12.9052 5.26981C13.0846 6.62991 13.4173 7.96534 13.8969 9.25065C14.0875 9.7577 14.1287 10.3088 14.0157 10.8386C13.9028 11.3683 13.6403 11.8546 13.2594 12.2398L11.4602 14.039C13.4769 17.5857 16.4135 20.5223 19.9602 22.539L21.7594 20.7398C22.1446 20.3589 22.6308 20.0964 23.1606 19.9834C23.6904 19.8705 24.2415 19.9117 24.7485 20.1023C26.0338 20.5819 27.3693 20.9146 28.7294 21.094C29.4175 21.1911 30.046 21.5377 30.4953 22.0679C30.9446 22.5982 31.1833 23.275 31.166 23.9698Z" stroke="#0E0E0E" stroke-width="2" stroke-linecap="round" stroke-linejoin="round"/>
</svg>
