<svg width="24" height="24" viewBox="0 0 24 24" fill="none" xmlns="http://www.w3.org/2000/svg">
<path d="M21.9999 15.9201V18.9201C22.0011 19.1986 21.944 19.4743 21.8324 19.7294C21.7209 19.9846 21.5572 20.2137 21.352 20.402C21.1468 20.5902 20.9045 20.7336 20.6407 20.8228C20.3769 20.912 20.0973 20.9452 19.8199 20.9201C16.7428 20.5857 13.7869 19.5342 11.1899 17.8501C8.77376 16.3148 6.72527 14.2663 5.18993 11.8501C3.49991 9.2413 2.44818 6.27109 2.11993 3.1801C2.09494 2.90356 2.12781 2.62486 2.21643 2.36172C2.30506 2.09859 2.4475 1.85679 2.6347 1.65172C2.82189 1.44665 3.04974 1.28281 3.30372 1.17062C3.55771 1.05843 3.83227 1.00036 4.10993 1.0001H7.10993C7.59524 0.995321 8.06572 1.16718 8.43369 1.48363C8.80166 1.80008 9.04201 2.23954 9.10993 2.7201C9.23656 3.68016 9.47138 4.62282 9.80993 5.5301C9.94448 5.88802 9.9736 6.27701 9.89384 6.65098C9.81408 7.02494 9.6288 7.36821 9.35993 7.6401L8.08993 8.9101C9.51349 11.4136 11.5864 13.4865 14.0899 14.9101L15.3599 13.6401C15.6318 13.3712 15.9751 13.1859 16.3491 13.1062C16.723 13.0264 17.112 13.0556 17.4699 13.1901C18.3772 13.5286 19.3199 13.7635 20.2799 13.8901C20.7657 13.9586 21.2093 14.2033 21.5265 14.5776C21.8436 14.9519 22.0121 15.4297 21.9999 15.9201Z" stroke="#0E0E0E" stroke-linecap="round" stroke-linejoin="round"/>
</svg>
