<svg width="60" height="62" viewBox="0 0 60 62" fill="none" xmlns="http://www.w3.org/2000/svg">
<path d="M48.5168 36.8387C48.0861 36.9541 47.643 37.03 47.2026 37.0636L46.0692 37.1488L46.6798 38.0809C46.9173 38.4444 47.1202 38.8295 47.2797 39.2292C47.6032 40.0268 47.7671 40.8564 47.7671 41.6954C47.7671 45.4288 44.6424 48.4662 40.8017 48.4662C39.3794 48.4662 38.0581 48.0458 36.9539 47.3317C35.6733 46.503 34.718 45.2652 34.2218 43.8214V55.5833H30.0009H29.9991H25.7791V48.6006V43.8214C25.2828 45.2652 24.3266 46.503 23.047 47.3317C21.9428 48.0458 20.6206 48.4662 19.1983 48.4662C15.3576 48.4662 12.2329 45.4288 12.2329 41.6954C12.2329 40.8564 12.3977 40.0268 12.7203 39.2292C12.8807 38.8295 13.0827 38.4444 13.3202 38.0809L13.9317 37.1488L12.7974 37.0636C12.357 37.03 11.9147 36.9541 11.4832 36.8387C8.47369 36.0273 6.37255 33.3465 6.37255 30.3169C6.37255 27.525 8.18569 24.9821 10.8841 23.9897C11.3077 23.8347 11.7437 23.7201 12.1815 23.6486L13.3637 23.4557L12.5891 22.5667C12.2967 22.229 12.0397 21.8663 11.8226 21.4847C11.251 20.4863 10.9497 19.3544 10.9497 18.2113C10.9497 14.4779 14.0744 11.4414 17.9151 11.4414C18.9333 11.4414 19.9267 11.6593 20.8688 12.0892C21.272 12.2744 21.6601 12.4992 22.0199 12.7559L22.9522 13.4201L23.1019 12.3054C23.1595 11.8764 23.2597 11.4509 23.3997 11.0417C24.3559 8.27568 27.0082 6.41846 30 6.4176C32.9918 6.41846 35.645 8.27568 36.6012 11.0417C36.7412 11.4509 36.8413 11.8764 36.8989 12.3054L37.0478 13.4201L37.9801 12.7559C38.3408 12.4992 38.7289 12.2744 39.1321 12.0892C40.0732 11.6593 41.0676 11.4414 42.0858 11.4414C45.9265 11.4414 49.0512 14.4779 49.0512 18.2113C49.0512 19.3544 48.749 20.4863 48.1783 21.4847C47.9612 21.8663 47.7033 22.229 47.4109 22.5667L46.6372 23.4557L47.8194 23.6486C48.2572 23.7201 48.6932 23.8347 49.1159 23.9897C51.8152 24.9821 53.6283 27.525 53.6283 30.3169C53.6283 33.3465 51.5263 36.0273 48.5168 36.8387ZM60 30.223C60 26.133 57.6348 22.4512 53.9075 20.6371C54.495 19.3071 54.791 17.9012 54.791 16.4454C54.791 10.53 49.8399 5.71726 43.7536 5.71726C42.4881 5.71726 41.2492 5.92658 40.0591 6.34179C38.2885 2.51966 34.3423 0.000861422 30.0009 0H29.9991C25.6577 0.000861422 21.7115 2.51966 19.9418 6.34179C18.7517 5.92658 17.5128 5.71726 16.2464 5.71726C10.161 5.71726 5.20988 10.53 5.20988 16.4454C5.20988 17.9012 5.50586 19.3071 6.0934 20.6371C2.36523 22.4512 0 26.133 0 30.223C0 34.6533 2.88187 38.6684 7.10011 40.2439C6.81387 41.2079 6.67031 42.189 6.67031 43.1728C6.67031 49.0881 11.6214 53.9009 17.7068 53.9009C19.263 53.9009 20.7429 53.5822 22.0864 53.0154V62H37.9145V53.0154C39.258 53.5822 40.7379 53.9009 42.294 53.9009C48.3795 53.9009 53.3306 49.0881 53.3306 43.1728C53.3306 42.189 53.1861 41.2079 52.9008 40.2439C57.119 38.6684 60 34.6533 60 30.223Z" fill="#F3F3F3"/>
<path d="M48.5168 36.8387C48.0861 36.9541 47.643 37.03 47.2026 37.0636L46.0692 37.1488L46.6798 38.0809C46.9173 38.4444 47.1202 38.8295 47.2797 39.2292C47.6032 40.0268 47.7671 40.8564 47.7671 41.6954C47.7671 45.4288 44.6424 48.4662 40.8017 48.4662C39.3794 48.4662 38.0581 48.0458 36.9539 47.3317C35.6733 46.503 34.718 45.2652 34.2218 43.8214V55.5833H30.0009H29.9991H25.7791V48.6006V43.8214C25.2828 45.2652 24.3266 46.503 23.047 47.3317C21.9428 48.0458 20.6206 48.4662 19.1983 48.4662C15.3576 48.4662 12.2329 45.4288 12.2329 41.6954C12.2329 40.8564 12.3977 40.0268 12.7203 39.2292C12.8807 38.8295 13.0827 38.4444 13.3202 38.0809L13.9317 37.1488L12.7974 37.0636C12.357 37.03 11.9147 36.9541 11.4832 36.8387C8.47369 36.0273 6.37255 33.3465 6.37255 30.3169C6.37255 27.525 8.18569 24.9821 10.8841 23.9897C11.3077 23.8347 11.7437 23.7201 12.1815 23.6486L13.3637 23.4557L12.5891 22.5667C12.2967 22.229 12.0397 21.8663 11.8226 21.4847C11.251 20.4863 10.9497 19.3544 10.9497 18.2113C10.9497 14.4779 14.0744 11.4414 17.9151 11.4414C18.9333 11.4414 19.9267 11.6593 20.8688 12.0892C21.272 12.2744 21.6601 12.4992 22.0199 12.7559L22.9522 13.4201L23.1019 12.3054C23.1595 11.8764 23.2597 11.4509 23.3997 11.0417C24.3559 8.27568 27.0082 6.41846 30 6.4176C32.9918 6.41846 35.645 8.27568 36.6012 11.0417C36.7412 11.4509 36.8413 11.8764 36.8989 12.3054L37.0478 13.4201L37.9801 12.7559C38.3408 12.4992 38.7289 12.2744 39.1321 12.0892C40.0732 11.6593 41.0676 11.4414 42.0858 11.4414C45.9265 11.4414 49.0512 14.4779 49.0512 18.2113C49.0512 19.3544 48.749 20.4863 48.1783 21.4847C47.9612 21.8663 47.7033 22.229 47.4109 22.5667L46.6372 23.4557L47.8194 23.6486C48.2572 23.7201 48.6932 23.8347 49.1159 23.9897C51.8152 24.9821 53.6283 27.525 53.6283 30.3169C53.6283 33.3465 51.5263 36.0273 48.5168 36.8387Z" fill="#F3F3F3"/>
</svg>
