<svg width="39" height="39" viewBox="0 0 39 39" fill="none" xmlns="http://www.w3.org/2000/svg">
<path d="M34.2995 19.4999V38H4.69947V19.4999M19.4997 37.9997V10.2495M19.4997 10.2495L11.175 10.2501C9.94837 10.2501 8.77199 9.76279 7.90463 8.89542C7.03727 8.02806 6.55 6.85167 6.55 5.62503C6.55 4.3984 7.03727 3.222 7.90463 2.35464C8.77199 1.48728 9.94837 1 11.175 1C17.65 1 19.4997 10.2495 19.4997 10.2495ZM19.4997 10.2495L27.8247 10.2501C29.0514 10.2501 30.2278 9.76279 31.0951 8.89542C31.9625 8.02806 32.4497 6.85167 32.4497 5.62503C32.4497 4.3984 31.9625 3.222 31.0951 2.35464C30.2278 1.48728 29.0514 1 27.8247 1C21.3497 1 19.4997 10.2495 19.4997 10.2495ZM1 10.2495H38V19.4996H1V10.2495Z" stroke="#FF0400" stroke-width="1.3"/>
</svg>
