<svg width="28" height="28" viewBox="0 0 28 28" fill="none" xmlns="http://www.w3.org/2000/svg">
<path d="M20.5022 9.06011C22.3787 9.06011 23.9 7.53889 23.9 5.66238C23.9 3.78586 22.3787 2.26465 20.5022 2.26465C18.6257 2.26465 17.1045 3.78586 17.1045 5.66238C17.1045 7.53889 18.6257 9.06011 20.5022 9.06011Z" stroke="#0E0E0E" stroke-width="1.59893" stroke-linecap="round" stroke-linejoin="round"/>
<path d="M6.91042 16.9888C8.78694 16.9888 10.3082 15.4676 10.3082 13.5911C10.3082 11.7146 8.78694 10.1934 6.91042 10.1934C5.03391 10.1934 3.5127 11.7146 3.5127 13.5911C3.5127 15.4676 5.03391 16.9888 6.91042 16.9888Z" stroke="#0E0E0E" stroke-width="1.59893" stroke-linecap="round" stroke-linejoin="round"/>
<path d="M20.5022 24.9166C22.3787 24.9166 23.9 23.3953 23.9 21.5188C23.9 19.6423 22.3787 18.1211 20.5022 18.1211C18.6257 18.1211 17.1045 19.6423 17.1045 21.5188C17.1045 23.3953 18.6257 24.9166 20.5022 24.9166Z" stroke="#0E0E0E" stroke-width="1.59893" stroke-linecap="round" stroke-linejoin="round"/>
<path d="M9.84473 15.3008L17.5802 19.8084" stroke="#0E0E0E" stroke-width="1.59893" stroke-linecap="round" stroke-linejoin="round"/>
<path d="M17.5689 7.37207L9.84473 11.8797" stroke="#0E0E0E" stroke-width="1.59893" stroke-linecap="round" stroke-linejoin="round"/>
</svg>
