<svg width="24" height="24" viewBox="0 0 24 24" fill="none" xmlns="http://www.w3.org/2000/svg">
<path d="M24 11.6908C24 18.1475 18.7256 23.3816 12.2181 23.3816C10.1523 23.3816 8.21147 22.8536 6.52293 21.927L0 23.9998L2.12667 17.7273C1.05387 15.9657 0.436 13.8996 0.436 11.6908C0.436 5.23408 5.71093 0 12.2181 0C18.7261 0 24 5.23408 24 11.6908ZM12.2181 1.86185C6.75573 1.86185 2.31253 6.27114 2.31253 11.6908C2.31253 13.8415 3.0136 15.8332 4.19947 17.4534L2.96187 21.1038L6.76853 19.8939C8.33253 20.9209 10.2061 21.5198 12.2184 21.5198C17.68 21.5198 22.124 17.111 22.124 11.6913C22.124 6.27167 17.6803 1.86185 12.2181 1.86185ZM18.1677 14.3833C18.0949 14.2641 17.9027 14.1921 17.6141 14.0489C17.3251 13.9057 15.9048 13.2121 15.6408 13.1169C15.376 13.0215 15.1829 12.9735 14.9907 13.2601C14.7984 13.5471 14.2448 14.1921 14.076 14.3833C13.9075 14.5751 13.7392 14.5991 13.4501 14.4556C13.1616 14.3124 12.2312 14.0095 11.128 13.0335C10.2696 12.274 9.68987 11.3364 9.52133 11.0492C9.35307 10.7626 9.50373 10.6076 9.648 10.465C9.77813 10.3364 9.93707 10.1303 10.0813 9.9631C10.2261 9.79563 10.2741 9.67644 10.3699 9.48497C10.4667 9.29377 10.4184 9.12657 10.3459 8.98284C10.2739 8.83964 9.69573 7.42952 9.4552 6.85566C9.21467 6.28234 8.9744 6.3778 8.8056 6.3778C8.63733 6.3778 8.44453 6.3538 8.252 6.3538C8.05947 6.3538 7.7464 6.42553 7.4816 6.7122C7.21707 6.99913 6.4712 7.69246 6.4712 9.10231C6.4712 10.5124 7.5056 11.8748 7.6504 12.0657C7.79467 12.2567 9.64773 15.2444 12.5837 16.3918C15.52 17.5388 15.52 17.1561 16.0496 17.1081C16.5787 17.0604 17.7579 16.415 17.9995 15.7462C18.2395 15.0764 18.2395 14.5028 18.1677 14.3833Z" fill="#00C364"/>
</svg>
