<svg width="26" height="20" viewBox="0 0 26 20" fill="none" xmlns="http://www.w3.org/2000/svg">
<path d="M22.826 0H3.17939C1.42562 0 0 1.42563 0 3.17943V16.6073C0 18.3611 1.42562 19.7867 3.17939 19.7867H22.8206C24.5744 19.7867 26 18.3611 26 16.6073V3.18481C26.0054 1.43101 24.5798 0 22.826 0ZM24.5529 16.6073C24.5529 17.5595 23.7782 18.3342 22.826 18.3342H3.17939C2.22719 18.3342 1.45251 17.5595 1.45251 16.6073V3.18481C1.45251 2.23259 2.22719 1.45791 3.17939 1.45791H22.8206C23.7728 1.45791 24.5475 2.23259 24.5475 3.18481V16.6073H24.5529Z" fill="#FF0400"/>
<path d="M16.397 9.72642L22.7558 4.02389C23.0517 3.7549 23.0786 3.29762 22.8096 2.99636C22.5406 2.70047 22.0833 2.67357 21.782 2.94256L13.0132 10.8131L11.3024 9.28528C11.2971 9.2799 11.2917 9.27452 11.2917 9.26914C11.254 9.23148 11.2164 9.1992 11.1733 9.16692L4.21201 2.93718C3.91075 2.66819 3.45348 2.69509 3.18449 2.99636C2.91551 3.29762 2.94241 3.7549 3.24367 4.02389L9.67777 9.77483L3.27057 15.7732C2.98007 16.0476 2.96393 16.5049 3.23829 16.8008C3.38354 16.9514 3.57721 17.0321 3.77088 17.0321C3.94841 17.0321 4.12594 16.9675 4.26581 16.8384L10.7698 10.7539L12.5344 12.3302C12.6742 12.4539 12.8464 12.5131 13.0185 12.5131C13.1907 12.5131 13.3682 12.4486 13.5027 12.3248L15.3157 10.7001L21.782 16.8438C21.9219 16.9783 22.1048 17.0429 22.2824 17.0429C22.476 17.0429 22.6643 16.9675 22.8096 16.8169C23.0839 16.5264 23.0732 16.0638 22.7827 15.7894L16.397 9.72642Z" fill="#FF0400"/>
</svg>
