<svg width="26" height="26" viewBox="0 0 26 26" fill="none" xmlns="http://www.w3.org/2000/svg">
<path d="M5.95573 26C5.32873 25.9997 4.73517 25.7064 4.34161 25.2028C3.94805 24.6996 3.7967 24.0396 3.92947 23.4075L5.26319 17.0259C5.31319 16.7905 5.24326 16.5453 5.07773 16.375L0.602253 11.724C0.0522777 11.1525 -0.139943 10.3114 0.104302 9.54733C0.348548 8.78289 0.988046 8.22463 1.75963 8.10204L7.4087 7.20631C7.61714 7.17322 7.79923 7.04436 7.90429 6.85595L11.1214 1.07512C11.5031 0.389046 12.2206 -0.0239947 12.9875 0.00108025C13.7544 0.0261552 14.4452 0.485167 14.784 1.19493L17.465 6.8152C17.5657 7.02695 17.7616 7.17357 17.988 7.207L24.2211 8.12537C24.9971 8.241 25.644 8.79787 25.8927 9.56475C26.1416 10.3313 25.9498 11.1772 25.3971 11.7508L20.9469 16.3743C20.7824 16.5453 20.7128 16.7905 20.7618 17.0259L22.0955 23.4075C22.2614 24.2002 21.9783 25.0214 21.3642 25.5284C20.7503 26.0355 19.9108 26.141 19.1967 25.8011L13.3027 22.9987C13.1189 22.9112 12.9068 22.9112 12.723 22.9987L6.82495 25.8046C6.55232 25.9338 6.25571 26.0003 5.95573 26ZM12.923 1.42687C12.6743 1.42234 12.4433 1.55921 12.3223 1.78349L9.10457 7.56502C8.79074 8.13164 8.24245 8.51926 7.61646 8.61608L1.96604 9.51216C1.70862 9.5529 1.49546 9.73923 1.41438 9.99415C1.33296 10.2491 1.39715 10.5291 1.58059 10.7196L6.05606 15.37C6.55131 15.8829 6.75975 16.6202 6.60975 17.3272L5.27839 23.7119C5.22299 23.9769 5.31758 24.2514 5.52298 24.4203C5.72837 24.5895 6.0091 24.624 6.24727 24.5094L12.1453 21.7035C12.697 21.4412 13.3324 21.4412 13.8837 21.7035L19.7821 24.5094C20.0203 24.624 20.3007 24.5895 20.5061 24.4203C20.7115 24.2514 20.8064 23.9769 20.7507 23.7119L19.4166 17.3307C19.2666 16.6234 19.4751 15.8861 19.9703 15.3727L24.4194 10.7502C24.6035 10.559 24.6674 10.2769 24.5843 10.0213C24.5012 9.76569 24.2853 9.58042 24.0265 9.54211L17.7866 8.61991C17.1076 8.51961 16.5201 8.0801 16.2174 7.44521L13.5365 1.82459C13.4263 1.58568 13.1946 1.43175 12.9382 1.42687H12.923Z" fill="#FF0400"/>
<path d="M12.923 1.42687C12.6743 1.42234 12.4433 1.55921 12.3223 1.78349L9.10457 7.56502C8.79074 8.13164 8.24245 8.51926 7.61646 8.61608L1.96604 9.51216C1.70862 9.5529 1.49546 9.73923 1.41438 9.99415C1.33296 10.2491 1.39715 10.5291 1.58059 10.7196L6.05606 15.37C6.55131 15.8829 6.75975 16.6202 6.60975 17.3272L5.27839 23.7119C5.22299 23.9769 5.31758 24.2514 5.52298 24.4203C5.72837 24.5895 6.0091 24.624 6.24727 24.5094L12.1453 21.7035C12.697 21.4412 13.3324 21.4412 13.8837 21.7035L19.7821 24.5094C20.0203 24.624 20.3007 24.5895 20.5061 24.4203C20.7115 24.2514 20.8064 23.9769 20.7507 23.7119L19.4166 17.3307C19.2666 16.6234 19.4751 15.8861 19.9703 15.3727L24.4194 10.7502C24.6035 10.559 24.6674 10.2769 24.5843 10.0213C24.5012 9.76569 24.2853 9.58042 24.0265 9.54211L17.7866 8.61991C17.1076 8.51961 16.5201 8.0801 16.2174 7.44521L13.5365 1.82459C13.4263 1.58568 13.1946 1.43175 12.9382 1.42687H12.923Z" fill="#FF0400"/>
</svg>
