<svg width="24" height="21" viewBox="0 0 24 21" fill="none" xmlns="http://www.w3.org/2000/svg">
<path d="M23.53 0.375736C23.1439 0.0263244 22.5951 -0.0901154 22.0977 0.0717891L0.995212 6.94248C0.420104 7.12971 0.0301044 7.63676 0.00165128 8.23415C-0.0267549 8.83158 0.313323 9.37257 0.86804 9.61235L6.08686 11.8676C6.11231 11.9843 7.61048 18.8473 7.66143 19.0806C7.72683 19.3803 7.88081 19.6472 8.20701 19.7293C8.53696 19.8123 8.77007 19.6342 9.01626 19.4521C9.15328 19.3508 12.8891 16.5879 12.8891 16.5879L17.4167 20.2473C17.6804 20.4605 18.0027 20.5717 18.3313 20.5717C18.4878 20.5717 18.6458 20.5465 18.7994 20.495C19.276 20.3354 19.6292 19.9513 19.7444 19.4675L23.9615 1.75838C24.0814 1.25489 23.9161 0.725148 23.53 0.375736ZM9.35362 13.1599C9.35104 13.166 9.34851 13.1728 9.34612 13.1809L8.47312 16.1934L7.49887 11.7305L14.1981 8.05423L9.51431 12.8914C9.44053 12.9676 9.38624 13.0597 9.35362 13.1599ZM9.6307 17.2585L10.0272 15.8901L10.4065 14.5813L11.7654 15.6797L9.6307 17.2585ZM22.5894 1.43957L18.3723 19.1487C18.3702 19.1575 18.3674 19.1696 18.3468 19.1765C18.3263 19.1834 18.3164 19.1756 18.3094 19.1698L13.3551 15.1656C13.355 15.1655 13.3549 15.1653 13.3547 15.1653L11.0593 13.31L18.4338 5.69405C18.6747 5.44529 18.6953 5.06004 18.4823 4.78758C18.2693 4.51507 17.8867 4.43724 17.5821 4.60447L6.66258 10.5968L1.43307 8.33684C1.41713 8.32998 1.40837 8.32614 1.40963 8.29952C1.4109 8.27299 1.41999 8.26998 1.43649 8.26461L22.539 1.39397C22.5492 1.39068 22.5608 1.38689 22.5777 1.40217C22.5947 1.41754 22.5919 1.4292 22.5894 1.43957Z" fill="#1E96C8"/>
</svg>
