<svg width="34" height="34" viewBox="0 0 34 34" fill="none" xmlns="http://www.w3.org/2000/svg">
<path d="M4.25 8.5H7.08333H29.75" stroke="#0E0E0E" stroke-width="2" stroke-linecap="round" stroke-linejoin="round"/>
<path d="M11.334 8.49967V5.66634C11.334 4.91489 11.6325 4.19422 12.1638 3.66287C12.6952 3.13152 13.4159 2.83301 14.1673 2.83301H19.834C20.5854 2.83301 21.3061 3.13152 21.8375 3.66287C22.3688 4.19422 22.6673 4.91489 22.6673 5.66634V8.49967M26.9173 8.49967V28.333C26.9173 29.0845 26.6188 29.8051 26.0875 30.3365C25.5561 30.8678 24.8354 31.1663 24.084 31.1663H9.91732C9.16587 31.1663 8.4452 30.8678 7.91385 30.3365C7.3825 29.8051 7.08398 29.0845 7.08398 28.333V8.49967H26.9173Z" stroke="#0E0E0E" stroke-width="2" stroke-linecap="round" stroke-linejoin="round"/>
</svg>
