<svg width="17" height="15" viewBox="0 0 17 15" fill="none" xmlns="http://www.w3.org/2000/svg">
<path d="M16.8256 2.19859C16.8019 2.16923 16.7628 2.15926 16.7295 2.17528C16.2358 2.40575 15.7165 2.57144 15.1815 2.66932C15.7494 2.21977 16.1726 1.59724 16.3896 0.883404C16.4001 0.849234 16.3892 0.811861 16.3627 0.789614C16.336 0.767368 16.2989 0.764521 16.2697 0.782852C15.63 1.18204 14.9373 1.4634 14.2097 1.61948C13.565 0.915438 12.6648 0.512695 11.7331 0.512695C9.83821 0.512695 8.29681 2.1347 8.29681 4.12848C8.29681 4.36963 8.31897 4.60847 8.36294 4.84036C5.73847 4.66986 3.28448 3.344 1.6159 1.1904C1.59882 1.16833 1.57295 1.15605 1.54589 1.1589C1.519 1.16104 1.49498 1.17705 1.48145 1.20143C1.17703 1.751 1.01619 2.37976 1.01619 3.01938C1.01619 4.12795 1.49481 5.16444 2.30982 5.84837C1.89022 5.79534 1.48044 5.65634 1.1109 5.44047C1.08604 5.4257 1.05509 5.42588 1.03023 5.441C1.00537 5.45595 0.989639 5.48371 0.988962 5.51397L0.988624 5.56024C0.988624 7.15235 1.98561 8.55029 3.40405 9.01443C3.03046 9.07779 2.64283 9.07352 2.26179 8.99699C2.23371 8.99148 2.20429 9.00162 2.18501 9.0244C2.1659 9.04718 2.15947 9.07904 2.16826 9.10787C2.59361 10.5049 3.77545 11.4846 5.1511 11.6067C4.0036 12.4914 2.64722 12.9575 1.21407 12.9575C0.950064 12.9575 0.684201 12.941 0.42375 12.9087C0.386542 12.9043 0.349673 12.9276 0.33682 12.9652C0.323966 13.0031 0.337665 13.0454 0.369799 13.067C1.92067 14.1136 3.71389 14.6665 5.55582 14.6665C11.5809 14.6665 15.1812 9.51648 15.1812 4.53763C15.1812 4.399 15.1786 4.26107 15.1734 4.1235C15.8233 3.62323 16.3813 3.01084 16.8311 2.30199C16.8513 2.27031 16.8491 2.22813 16.8256 2.19859Z" fill="white"/>
</svg>
