<svg width="34" height="34" viewBox="0 0 34 34" fill="none" xmlns="http://www.w3.org/2000/svg">
<path d="M24.0837 29.75V26.9167C24.0837 25.4138 23.4866 23.9724 22.4239 22.9097C21.3612 21.847 19.9199 21.25 18.417 21.25H7.08366C5.58077 21.25 4.13943 21.847 3.07672 22.9097C2.01401 23.9724 1.41699 25.4138 1.41699 26.9167V29.75" stroke="#0E0E0E" stroke-width="2" stroke-linecap="round" stroke-linejoin="round"/>
<path d="M12.7497 15.5833C15.8793 15.5833 18.4163 13.0463 18.4163 9.91667C18.4163 6.78705 15.8793 4.25 12.7497 4.25C9.62006 4.25 7.08301 6.78705 7.08301 9.91667C7.08301 13.0463 9.62006 15.5833 12.7497 15.5833Z" stroke="#0E0E0E" stroke-width="2" stroke-linecap="round" stroke-linejoin="round"/>
<path d="M32.583 29.7504V26.9171C32.5821 25.6615 32.1642 24.4418 31.3949 23.4495C30.6257 22.4572 29.5487 21.7485 28.333 21.4346" stroke="#0E0E0E" stroke-width="2" stroke-linecap="round" stroke-linejoin="round"/>
<path d="M22.667 4.43457C23.8859 4.74666 24.9663 5.45556 25.7378 6.44951C26.5093 7.44346 26.9281 8.66591 26.9281 9.92415C26.9281 11.1824 26.5093 12.4049 25.7378 13.3988C24.9663 14.3927 23.8859 15.1016 22.667 15.4137" stroke="#0E0E0E" stroke-width="2" stroke-linecap="round" stroke-linejoin="round"/>
</svg>
