<svg width="34" height="34" viewBox="0 0 34 34" fill="none" xmlns="http://www.w3.org/2000/svg">
<path d="M22.667 29.75V26.9167C22.667 25.4138 22.07 23.9724 21.0073 22.9097C19.9446 21.847 18.5032 21.25 17.0003 21.25H7.08366C5.58077 21.25 4.13943 21.847 3.07672 22.9097C2.01401 23.9724 1.41699 25.4138 1.41699 26.9167V29.75" stroke="#0E0E0E" stroke-width="2" stroke-linecap="round" stroke-linejoin="round"/>
<path d="M12.0417 15.5833C15.1713 15.5833 17.7083 13.0463 17.7083 9.91667C17.7083 6.78705 15.1713 4.25 12.0417 4.25C8.91205 4.25 6.375 6.78705 6.375 9.91667C6.375 13.0463 8.91205 15.5833 12.0417 15.5833Z" stroke="#0E0E0E" stroke-width="2" stroke-linecap="round" stroke-linejoin="round"/>
<path d="M24.083 15.5833L26.9163 18.4167L32.583 12.75" stroke="#0E0E0E" stroke-width="2" stroke-linecap="round" stroke-linejoin="round"/>
</svg>
