<svg width="25" height="25" viewBox="0 0 25 25" fill="none" xmlns="http://www.w3.org/2000/svg">
<g clip-path="url(#clip0)">
<g clip-path="url(#clip1)">
<g clip-path="url(#clip2)">
<path d="M14.8803 0.000488281H10.1185C5.13096 0.000488281 1.07324 4.05727 1.07324 9.04385V13.3334C1.07324 17.047 3.35514 20.3844 6.78633 21.7436V24.5245C6.78633 24.713 6.89726 24.8834 7.0696 24.9596C7.1315 24.9872 7.1972 25.0006 7.26242 25.0006C7.37811 25.0006 7.49285 24.9582 7.58188 24.8772L10.3427 22.3768H14.8803C19.8679 22.3768 23.9256 18.32 23.9256 13.3334V9.04385C23.9256 4.05727 19.8679 0.000488281 14.8803 0.000488281ZM22.9734 13.3334C22.9734 17.7949 19.3432 21.4246 14.8803 21.4246H10.159C10.0409 21.4246 9.9271 21.4684 9.8395 21.5479L7.73851 23.4509V21.4137C7.73851 21.2118 7.6114 21.0318 7.42096 20.9652C4.19402 19.824 2.02542 16.757 2.02542 13.3334V9.04385C2.02542 4.5824 5.65609 0.952672 10.1185 0.952672H14.8803C19.3432 0.952672 22.9734 4.5824 22.9734 9.04385V13.3334Z" fill="#665CAC" stroke="#665CAC" stroke-width="0.4"/>
<path d="M17.4972 14.8447L15.0385 13.1241C14.7658 12.9421 14.4411 12.8804 14.1233 12.9479C13.8051 13.0166 13.5316 13.2095 13.3542 13.4907L13.2369 13.6757C12.1573 13.3095 10.967 12.8417 10.2543 10.7243L10.5493 10.461C11.0558 10.009 11.109 9.21839 10.6687 8.69768L8.7173 6.39365C8.57038 6.21994 8.31388 6.20203 8.14464 6.35241L6.91936 7.44548C5.84466 8.40442 6.3467 9.82283 6.51188 10.289C6.51919 10.3098 6.52812 10.3298 6.53867 10.3494C6.58128 10.4277 7.59876 12.2914 9.24207 14.0093C10.8919 15.7343 13.8704 17.3273 13.9618 17.3735C14.3019 17.6001 14.6846 17.7089 15.0633 17.7089C15.728 17.7089 16.3798 17.3743 16.7687 16.7612L17.6526 15.364C17.7744 15.1703 17.6851 14.9701 17.4972 14.8447Z" fill="#665CAC"/>
<path d="M13.5862 7.73569C13.3329 7.66284 13.0697 7.80996 12.9978 8.06324C12.9259 8.31604 13.0725 8.57932 13.3253 8.65121C14.0347 8.85307 14.5998 9.41915 14.7998 10.129C14.8588 10.3385 15.0497 10.4761 15.2578 10.4761C15.3006 10.4761 15.3439 10.4704 15.3873 10.4585C15.6401 10.387 15.7877 10.1242 15.7162 9.87096C15.4273 8.84546 14.6108 8.02705 13.5862 7.73569Z" fill="#665CAC" stroke="#665CAC" stroke-width="0.4"/>
<path d="M17.2093 10.5788C17.2522 10.5788 17.2955 10.5731 17.3388 10.5612C17.5921 10.4898 17.7392 10.2265 17.6678 9.9737C17.106 7.9822 15.5211 6.39396 13.531 5.82741C13.2782 5.75457 13.015 5.90263 12.9431 6.15544C12.8712 6.40824 13.0178 6.67152 13.2706 6.74341C14.945 7.2195 16.2786 8.55685 16.7513 10.2322C16.8108 10.4417 17.0013 10.5788 17.2093 10.5788Z" fill="#665CAC" stroke="#665CAC" stroke-width="0.4"/>
<path d="M13.3245 3.61093C13.0712 3.53809 12.8079 3.6852 12.736 3.93896C12.6642 4.19176 12.8108 4.45504 13.0636 4.52693C15.9006 5.3339 18.1606 7.59915 18.9614 10.4381C19.0204 10.6476 19.2114 10.7852 19.4194 10.7852C19.4623 10.7852 19.5056 10.7794 19.5489 10.7675C19.8017 10.6961 19.9493 10.4328 19.8779 10.18C18.9881 7.02498 16.4772 4.50836 13.3245 3.61093Z" fill="#665CAC" stroke="#665CAC" stroke-width="0.4"/>
</g>
</g>
</g>
<defs>
<clipPath id="clip0">
<rect width="25" height="25.0001" fill="white"/>
</clipPath>
<clipPath id="clip1">
<rect y="0.000488281" width="25.0001" height="25.0001" fill="white"/>
</clipPath>
<clipPath id="clip2">
<rect y="0.000488281" width="25" height="25.0001" fill="white"/>
</clipPath>
</defs>
</svg>
