<svg width="25" height="27" viewBox="0 0 25 27" fill="none" xmlns="http://www.w3.org/2000/svg">
<path fill-rule="evenodd" clip-rule="evenodd" d="M0.623352 10.0439C0.623352 4.8087 4.88264 0.550537 10.1186 0.550537H14.8805C20.1164 0.550537 24.3757 4.8087 24.3757 10.0439V14.3335C24.3757 19.5687 20.1164 23.8269 14.8805 23.8269H10.5163L7.88469 26.2103C7.71079 26.3682 7.48723 26.4506 7.26253 26.4506C7.13615 26.4506 7.00806 26.4248 6.88708 26.3709C6.552 26.2225 6.33644 25.8908 6.33644 25.5245V23.044C2.89299 21.5488 0.623352 18.1286 0.623352 14.3335V10.0439ZM10.1186 2.40272C5.90463 2.40272 2.47553 5.83108 2.47553 10.0439V14.3335C2.47553 17.5664 4.52395 20.4634 7.5711 21.541C7.94291 21.6711 8.18862 22.0216 8.18862 22.4137V23.4362L9.53718 22.2148C9.70775 22.0599 9.92942 21.9747 10.1591 21.9747H14.8805C19.0949 21.9747 22.5235 18.5463 22.5235 14.3335V10.0439C22.5235 5.83106 19.0949 2.40272 14.8805 2.40272H10.1186Z" fill="#0E0E0E"/>
<path d="M17.4969 15.8448L15.0383 14.1242C14.7655 13.9421 14.4409 13.8805 14.1231 13.948C13.8049 14.0167 13.5313 14.2096 13.354 14.4908L13.2367 14.6757C12.1571 14.3096 10.9667 13.8418 10.2541 11.7243L10.5491 11.4611C11.0556 11.0091 11.1088 10.2185 10.6684 9.69775L8.71708 7.39372C8.57016 7.22001 8.31366 7.2021 8.14442 7.35248L6.91914 8.44555C5.84443 9.40448 6.34648 10.8229 6.51166 11.289C6.51896 11.3099 6.52789 11.3299 6.53845 11.3494C6.58106 11.4277 7.59854 13.2915 9.24185 15.0094C10.8917 16.7344 13.8702 18.3273 13.9615 18.3736C14.3016 18.6002 14.6844 18.7089 15.063 18.7089C15.7278 18.7089 16.3796 18.3744 16.7684 17.7612L17.6524 16.3641C17.7741 16.1704 17.6849 15.9702 17.4969 15.8448Z" fill="#0E0E0E"/>
<path d="M17.583 10.5578C17.4537 8.6732 15.8243 7.06127 13.9507 6.96463C13.9134 6.96277 13.8727 6.95871 13.8296 6.95442C13.7365 6.94515 13.6402 6.93567 13.5444 6.94301C13.1641 6.97214 13.0844 7.26611 13.0707 7.43884C13.0574 7.60678 13.0929 7.74424 13.1761 7.84757C13.3161 8.02138 13.5401 8.03698 13.7201 8.04944C13.7728 8.05316 13.8226 8.05657 13.8646 8.06333C15.562 8.33471 16.1714 8.91913 16.5813 10.6689C16.5913 10.7116 16.5984 10.7647 16.606 10.821C16.6342 11.0318 16.6928 11.4703 17.1347 11.4364C17.1715 11.4336 17.2108 11.4272 17.2515 11.4173C17.6578 11.3188 17.6141 10.9172 17.5931 10.7243C17.5872 10.6699 17.5816 10.6185 17.5832 10.5839C17.5837 10.5752 17.5837 10.5665 17.583 10.5578Z" fill="#0E0E0E"/>
<path d="M13.3875 6.31233C13.4372 6.31236 13.4842 6.31243 13.5236 6.31584C16.2954 6.55717 17.6606 7.85024 18.2359 10.7792C18.2457 10.829 18.2513 10.8902 18.2572 10.955C18.2784 11.1856 18.3224 11.6655 18.8046 11.6385L18.8196 11.6376C18.9706 11.626 19.087 11.568 19.1655 11.4651C19.3026 11.2856 19.273 11.0369 19.2492 10.837C19.2434 10.7879 19.2378 10.7417 19.2352 10.7011C19.0385 7.67558 16.3863 5.12154 13.5597 5.23554C13.5479 5.23602 13.5368 5.23754 13.5257 5.2401C13.5202 5.2414 13.5101 5.24326 13.4925 5.24461C13.4644 5.24676 13.4296 5.2468 13.3927 5.24695C13.3481 5.24711 13.2976 5.24723 13.2466 5.25113C12.7977 5.28552 12.7386 5.63392 12.7433 5.83854C12.7542 6.31144 13.1819 6.31201 13.3875 6.31233Z" fill="#0E0E0E"/>
<path d="M13.9823 8.68204C13.8236 8.69854 13.4933 8.73268 13.4049 9.10273C13.3635 9.27566 13.3812 9.4217 13.4576 9.53678C13.5697 9.70564 13.7627 9.74523 13.9368 9.76173C14.5681 9.82112 14.9163 10.1658 15.0329 10.8462C15.0871 11.1635 15.305 11.3713 15.5629 11.3516C15.582 11.3501 15.6014 11.3474 15.6206 11.3434C15.9277 11.2801 16.0594 11.0244 16.0119 10.5835C15.9816 10.1219 15.7162 9.61557 15.3011 9.22785C14.8845 8.83894 14.403 8.63883 13.9823 8.68204Z" fill="#0E0E0E"/>
</svg>
