<svg width="24" height="15" viewBox="0 0 24 15" fill="none" xmlns="http://www.w3.org/2000/svg">
<path d="M20.6553 8.9092C21.4505 9.70991 22.2919 10.4635 23.0058 11.347C23.3221 11.7378 23.6202 12.1419 23.8471 12.5964C24.1711 13.2446 23.8786 13.9553 23.3158 13.9938L19.8202 13.9931C18.9174 14.0701 18.1989 13.6948 17.5932 13.0585C17.1097 12.5514 16.6611 12.0098 16.1954 11.4855C16.0052 11.2703 15.8048 11.0677 15.566 10.9083C15.0895 10.5887 14.6754 10.6866 14.4024 11.1998C14.1242 11.7219 14.0606 12.3006 14.0341 12.8818C13.9961 13.7315 13.7475 13.9535 12.9205 13.9934C11.1533 14.0787 9.47652 13.8024 7.91811 12.884C6.54333 12.0739 5.47925 10.9306 4.55203 9.63614C2.74645 7.11273 1.36364 4.34317 0.121168 1.49408C-0.158466 0.852427 0.0461106 0.509111 0.732803 0.495796C1.87368 0.473124 3.01456 0.476003 4.15544 0.494717C4.61975 0.502274 4.92697 0.776136 5.10536 1.22777C5.72188 2.79141 6.4777 4.27911 7.42482 5.65885C7.67723 6.02628 7.93487 6.39263 8.30178 6.65209C8.70674 6.93855 9.01535 6.8439 9.20631 6.37787C9.3285 6.0817 9.38122 5.76501 9.40775 5.44761C9.49852 4.36044 9.50934 3.27363 9.35224 2.19078C9.25449 1.51315 8.88479 1.07555 8.22952 0.947433C7.89577 0.882296 7.94464 0.754902 8.10698 0.558413C8.38871 0.218696 8.65263 0.00853168 9.18013 0.00853168L13.1296 0.0078125C13.752 0.133767 13.8917 0.421663 13.9762 1.06799L13.9796 5.59228C13.9723 5.84239 14.1015 6.58372 14.5372 6.74746C14.8863 6.86622 15.1167 6.5776 15.3254 6.3498C16.2726 5.31374 16.9474 4.0909 17.5517 2.82524C17.8184 2.26708 18.0485 1.68949 18.2719 1.11081C18.4381 0.682929 18.6964 0.472405 19.1649 0.479602L22.9681 0.484281C23.0802 0.484281 23.194 0.48536 23.305 0.505153C23.9459 0.618152 24.1215 0.902449 23.9232 1.54698C23.6111 2.55965 23.0047 3.40319 22.412 4.24888C21.7766 5.15431 21.099 6.02808 20.4699 6.93747C19.8918 7.76877 19.9375 8.1873 20.6553 8.9092Z" fill="#0E0E0E"/>
</svg>
