<svg width="21" height="13" viewBox="0 0 21 13" fill="none" xmlns="http://www.w3.org/2000/svg">
<path d="M10.5 0C6.48773 0 2.84919 2.27968 0.164314 5.9825C-0.0547714 6.28586 -0.0547714 6.70968 0.164314 7.01304C2.84919 10.7203 6.48773 13 10.5 13C14.5123 13 18.1508 10.7203 20.8357 7.0175C21.0548 6.71414 21.0548 6.29032 20.8357 5.98696C18.1508 2.27969 14.5123 0 10.5 0ZM10.7878 11.0772C8.12442 11.2512 5.92498 8.97152 6.09251 6.2011C6.22998 3.91695 8.01273 2.06555 10.2122 1.92279C12.8756 1.7488 15.075 4.02848 14.9075 6.7989C14.7657 9.07859 12.983 10.93 10.7878 11.0772ZM10.6546 8.96259C9.21985 9.05628 8.03421 7.82944 8.12872 6.3394C8.20175 5.1081 9.16401 4.11325 10.3496 4.03294C11.7844 3.93926 12.9701 5.1661 12.8756 6.65614C12.7983 7.8919 11.836 8.88675 10.6546 8.96259Z" fill="#BFBFBF"/>
</svg>
