<svg width="21" height="15" viewBox="0 0 21 15" fill="none" xmlns="http://www.w3.org/2000/svg">
<path d="M20.6375 2.25993C20.3804 1.1917 19.4669 0.403592 18.3672 0.286029C15.7631 0.00798374 13.1272 0.00653242 10.5036 0.00798382C7.87947 0.00653242 5.24322 0.00798374 2.63906 0.286029C1.54 0.403592 0.627141 1.1917 0.370041 2.25993C0.00411881 3.78119 0 5.4418 0 7.00806C0 8.57432 0 10.2347 0.365922 11.7558C0.622588 12.8238 1.53566 13.6119 2.63538 13.7297C5.23932 14.0079 7.87535 14.0094 10.4995 14.0079C13.124 14.0094 15.7594 14.0079 18.3631 13.7297C19.4622 13.6121 20.3759 12.824 20.633 11.7558C20.9991 10.2345 21.0004 8.57411 21.0004 7.00806C21.0004 5.4418 21.0035 3.78119 20.6375 2.25993ZM7.79016 10.1257C7.79016 7.90378 7.79016 5.70512 7.79016 3.48304C10.0158 4.59377 12.2267 5.69704 14.4665 6.81461C12.2337 7.92223 10.0217 9.01886 7.79016 10.1257Z" fill="#0E0E0E"/>
</svg>
