<?xml version="1.0" encoding="UTF-8" standalone="no"?>
<svg
   xmlns:dc="http://purl.org/dc/elements/1.1/"
   xmlns:cc="http://creativecommons.org/ns#"
   xmlns:rdf="http://www.w3.org/1999/02/22-rdf-syntax-ns#"
   xmlns:svg="http://www.w3.org/2000/svg"
   xmlns="http://www.w3.org/2000/svg"
   height="232.15331"
   width="196.6937"
   xml:space="preserve"
   viewBox="0 0 196.6937 232.15331"
   y="0px"
   x="0px"
   id="Capa_1"
   version="1.1"><metadata
     id="metadata40"><rdf:RDF><cc:Work
         rdf:about=""><dc:format>image/svg+xml</dc:format><dc:type
           rdf:resource="http://purl.org/dc/dcmitype/StillImage" /><dc:title></dc:title></cc:Work></rdf:RDF></metadata><defs
     id="defs38" /><g
     transform="translate(-17.729994,2.9688146e-4)"
     id="Play"><path
       id="path2"
       d="M 203.791,99.628 49.307,2.294 C 44.74,-0.425 39.069,0.028 34.786,0.028 17.654,0.028 17.73,13.255 17.73,16.606 v 198.94 c 0,2.833 -0.075,16.579 17.056,16.579 4.283,0 9.955,0.451 14.521,-2.267 L 203.79,132.525 c 12.68,-7.545 10.489,-16.449 10.489,-16.449 0,0 2.192,-8.904 -10.488,-16.448 z"
       style="clip-rule:evenodd;fill-rule:evenodd" /></g><g
     transform="translate(-17.729994,2.9688146e-4)"
     id="g5" /><g
     transform="translate(-17.729994,2.9688146e-4)"
     id="g7" /><g
     transform="translate(-17.729994,2.9688146e-4)"
     id="g9" /><g
     transform="translate(-17.729994,2.9688146e-4)"
     id="g11" /><g
     transform="translate(-17.729994,2.9688146e-4)"
     id="g13" /><g
     transform="translate(-17.729994,2.9688146e-4)"
     id="g15" /><g
     transform="translate(-17.729994,2.9688146e-4)"
     id="g17" /><g
     transform="translate(-17.729994,2.9688146e-4)"
     id="g19" /><g
     transform="translate(-17.729994,2.9688146e-4)"
     id="g21" /><g
     transform="translate(-17.729994,2.9688146e-4)"
     id="g23" /><g
     transform="translate(-17.729994,2.9688146e-4)"
     id="g25" /><g
     transform="translate(-17.729994,2.9688146e-4)"
     id="g27" /><g
     transform="translate(-17.729994,2.9688146e-4)"
     id="g29" /><g
     transform="translate(-17.729994,2.9688146e-4)"
     id="g31" /><g
     transform="translate(-17.729994,2.9688146e-4)"
     id="g33" /></svg>