<?xml version="1.0" encoding="utf-8"?><svg xmlns="http://www.w3.org/2000/svg" xmlns:xlink="http://www.w3.org/1999/xlink"><symbol viewBox="0 0 24 24" id="WhatsApp" xmlns="http://www.w3.org/2000/svg"><path d="M24 11.69c0 6.458-5.274 11.692-11.782 11.692-2.066 0-4.007-.528-5.695-1.455L0 24l2.127-6.273a11.568 11.568 0 01-1.691-6.036C.436 5.234 5.711 0 12.218 0 18.726 0 24 5.234 24 11.69zM12.218 1.863c-5.462 0-9.905 4.41-9.905 9.829 0 2.15.7 4.142 1.886 5.762l-1.237 3.65 3.807-1.21a9.899 9.899 0 005.45 1.627c5.461 0 9.905-4.409 9.905-9.829 0-5.42-4.444-9.83-9.906-9.83zm5.95 12.521c-.073-.119-.265-.19-.554-.334-.289-.143-1.71-.837-1.973-.932-.265-.096-.458-.144-.65.143-.193.287-.746.932-.915 1.123-.168.192-.337.216-.626.073-.288-.144-1.219-.447-2.322-1.422-.858-.76-1.438-1.698-1.607-1.985-.168-.286-.017-.441.127-.584.13-.129.29-.335.433-.502.145-.167.193-.287.289-.478.097-.191.048-.358-.024-.502-.072-.143-.65-1.553-.89-2.127-.241-.574-.482-.478-.65-.478-.169 0-.361-.024-.554-.024-.193 0-.506.072-.77.358-.265.287-1.01.98-1.01 2.39 0 1.41 1.034 2.773 1.178 2.964.145.19 1.998 3.178 4.934 4.326 2.936 1.147 2.936.764 3.466.716.529-.048 1.708-.693 1.95-1.362.24-.67.24-1.243.168-1.363z"/></symbol><symbol viewBox="0 0 19 10" id="arrow" xmlns="http://www.w3.org/2000/svg"><path d="M14.5 5V2l3 3-3 3V5z"/><path d="M0 5h14.5m0 0V2l3 3-3 3V5z"/></symbol><symbol viewBox="0 0 18.561 9.621" id="arrow_2" xmlns="http://www.w3.org/2000/svg"><path d="M14.5 4.81v-3l3 3-3 3z"/><path d="M14.764 4.864l-.193.23-.61-.133.539-.15m0 0v-3l3 3-3 3zM.007 4.151h13.79v1.542H.007z"/></symbol><symbol viewBox="0 0 9 7" id="check" xmlns="http://www.w3.org/2000/svg"><path d="M1.5 3.5l2 2 4-4"/></symbol><symbol viewBox="0 0 12 12" id="clock" xmlns="http://www.w3.org/2000/svg"><path d="M6 0C2.692 0 0 2.692 0 6s2.692 6 6 6 6-2.692 6-6-2.692-6-6-6zm0 10.723A4.729 4.729 0 011.277 6 4.729 4.729 0 016 1.277 4.729 4.729 0 0110.723 6 4.729 4.729 0 016 10.723z"/><path d="M9.13 5.814H6.433V2.572a.494.494 0 00-.988 0v3.736c0 .273.222.494.494.494h3.19a.494.494 0 000-.988z"/></symbol><symbol viewBox="0 0 14 14" id="comment" xmlns="http://www.w3.org/2000/svg"><path d="M1.4 0h11.2c.759 0 1.4.687 1.4 1.5v8.25c0 .813-.641 1.5-1.4 1.5H5.936l-2.263 2.668a.221.221 0 01-.257.065.25.25 0 01-.15-.233v-2.5H1.4c-.759 0-1.4-.687-1.4-1.5V1.5C0 .687.641 0 1.4 0z"/></symbol><symbol viewBox="0 0 10 19" id="fb" xmlns="http://www.w3.org/2000/svg"><path d="M9.624.004L7.225 0C4.53 0 2.789 1.835 2.789 4.676v2.156H.377A.382.382 0 000 7.22v3.123c0 .214.169.388.377.388H2.79v7.882c0 .214.169.387.377.387h3.147a.382.382 0 00.377-.387v-7.882h2.82a.382.382 0 00.377-.388V7.22a.393.393 0 00-.11-.274.372.372 0 00-.267-.114H6.69V5.004c0-.878.203-1.324 1.317-1.324h1.616A.382.382 0 0010 3.291v-2.9a.383.383 0 00-.376-.388z"/></symbol><symbol viewBox="0 0 14 13" id="heart" xmlns="http://www.w3.org/2000/svg"><path d="M14 4.24C14 2.176 12.307.5 10.22.5A3.782 3.782 0 007 2.287 3.783 3.783 0 003.78.5C1.692.5 0 2.175 0 4.24a3.71 3.71 0 001.298 2.817l5.357 5.302a.49.49 0 00.69 0l5.357-5.302A3.71 3.71 0 0014 4.241z"/></symbol><symbol viewBox="0 0 18 19" id="insta" xmlns="http://www.w3.org/2000/svg"><path d="M14.7.004H3.3c-1.82 0-3.3 1.48-3.3 3.3v11.4c0 1.82 1.48 3.3 3.3 3.3h11.4c1.82 0 3.3-1.48 3.3-3.3v-11.4c0-1.82-1.48-3.3-3.3-3.3zM9 14.93a5.932 5.932 0 01-5.925-5.926A5.932 5.932 0 019 3.078a5.932 5.932 0 015.926 5.926A5.933 5.933 0 019 14.93zm6.116-10.626a1.404 1.404 0 01-1.402-1.402c0-.773.629-1.402 1.402-1.402.773 0 1.402.629 1.402 1.402 0 .773-.629 1.402-1.402 1.402z"/><path d="M8.995 5.582a3.426 3.426 0 00-3.422 3.421 3.426 3.426 0 003.422 3.422 3.426 3.426 0 003.421-3.422 3.426 3.426 0 00-3.42-3.421z"/></symbol><symbol viewBox="0 0 21 21" id="loupe" xmlns="http://www.w3.org/2000/svg"><path d="M20.818 19.929l-5.104-5.103a8.917 8.917 0 002.198-5.872c0-4.94-4.02-8.954-8.956-8.954C4.015 0 0 4.018 0 8.954c0 4.936 4.02 8.954 8.956 8.954a8.921 8.921 0 005.873-2.198l5.104 5.104a.633.633 0 00.443.186.63.63 0 00.442-1.071zM1.253 8.954c0-4.246 3.456-7.697 7.698-7.697 4.248 0 7.699 3.455 7.699 7.697s-3.451 7.702-7.699 7.702c-4.242 0-7.698-3.455-7.698-7.702z"/></symbol><symbol viewBox="0 0 15 11" id="mail" xmlns="http://www.w3.org/2000/svg"><path d="M13.594 0H1.406C.631 0 0 .617 0 1.375v8.25C0 10.383.63 11 1.406 11h12.188C14.369 11 15 10.383 15 9.625v-8.25C15 .617 14.37 0 13.594 0zm0 .917c.063 0 .124.013.18.035L7.5 6.27 1.227.952a.476.476 0 01.18-.035h12.187zm0 9.166H1.406a.464.464 0 01-.469-.458V1.921l6.256 5.3a.475.475 0 00.614 0l6.255-5.3v7.704c0 .253-.21.458-.468.458z"/></symbol><symbol viewBox="0 0 11 11" id="sb" xmlns="http://www.w3.org/2000/svg"><path d="M1 4.938A5.063 5.063 0 016.063 10M1 1a9 9 0 019 9M1.563 10a.563.563 0 100-1.125.563.563 0 000 1.125z"/></symbol><symbol viewBox="0 0 26 26" id="star" xmlns="http://www.w3.org/2000/svg"><path d="M5.956 26c-.627 0-1.22-.294-1.614-.797a2.189 2.189 0 01-.413-1.796l1.334-6.381a.72.72 0 00-.185-.651L.602 11.724a2.187 2.187 0 01-.498-2.177A2.094 2.094 0 011.76 8.102l5.649-.896a.693.693 0 00.495-.35l3.217-5.78c.382-.687 1.1-1.1 1.867-1.075a2.073 2.073 0 011.796 1.194l2.681 5.62c.1.212.297.359.523.392l6.233.918a2.093 2.093 0 011.672 1.44 2.186 2.186 0 01-.496 2.186l-4.45 4.623a.728.728 0 00-.185.652l1.334 6.381a2.176 2.176 0 01-.732 2.121 2.025 2.025 0 01-2.167.273L13.303 23a.673.673 0 00-.58 0l-5.898 2.806c-.273.129-.57.195-.87.195zm6.967-24.573a.67.67 0 00-.6.356L9.104 7.565a2.068 2.068 0 01-1.489 1.051l-5.65.896a.697.697 0 00-.552.482.728.728 0 00.167.726l4.475 4.65c.495.513.704 1.25.554 1.957l-1.332 6.385c-.055.265.04.54.245.708.205.17.486.204.724.09l5.898-2.807a2.019 2.019 0 011.739 0l5.898 2.806c.238.115.519.08.724-.089a.725.725 0 00.245-.708l-1.334-6.381a2.175 2.175 0 01.553-1.958l4.45-4.623a.729.729 0 00.164-.729.698.698 0 00-.558-.479l-6.24-.922a2.082 2.082 0 01-1.569-1.175l-2.68-5.62a.675.675 0 00-.599-.398h-.015z"/><path d="M12.923 1.427a.67.67 0 00-.6.356L9.104 7.565a2.068 2.068 0 01-1.489 1.051l-5.65.896a.697.697 0 00-.552.482.728.728 0 00.167.726l4.475 4.65c.495.513.704 1.25.554 1.957l-1.332 6.385c-.055.265.04.54.245.708.205.17.486.204.724.09l5.898-2.807a2.019 2.019 0 011.739 0l5.898 2.806c.238.115.519.08.724-.089a.725.725 0 00.245-.708l-1.334-6.381a2.175 2.175 0 01.553-1.958l4.45-4.623a.729.729 0 00.164-.729.698.698 0 00-.558-.479l-6.24-.922a2.082 2.082 0 01-1.569-1.175l-2.68-5.62a.675.675 0 00-.599-.398h-.015z"/></symbol><symbol viewBox="0 0 24 21" id="telegram" xmlns="http://www.w3.org/2000/svg"><path d="M23.53.376a1.464 1.464 0 00-1.432-.304L.995 6.942a1.423 1.423 0 00-.127 2.67l5.219 2.256L7.66 19.08c.066.3.22.566.546.648.33.083.563-.095.81-.277l3.872-2.864 4.528 3.66a1.452 1.452 0 001.382.247c.477-.16.83-.544.945-1.027l4.218-17.71A1.421 1.421 0 0023.53.376zM9.354 13.16a.194.194 0 00-.008.02l-.873 3.013L7.5 11.73l6.7-3.676-4.685 4.837a.694.694 0 00-.16.269zm.277 4.099l.396-1.369.38-1.309 1.358 1.099-2.134 1.579zm12.958-15.82l-4.217 17.71c-.002.008-.005.02-.025.027-.02.007-.03 0-.038-.006l-4.954-4.004-2.296-1.856 7.375-7.616a.69.69 0 00.048-.906.71.71 0 00-.9-.184l-10.92 5.993-5.229-2.26c-.016-.007-.025-.01-.023-.037 0-.027.01-.03.026-.035L22.54 1.394c.01-.003.022-.007.039.008.017.016.014.027.011.038z"/></symbol><symbol viewBox="0 0 25 25" id="viber" xmlns="http://www.w3.org/2000/svg"><g clip-path="url(#oclip0)"><g clip-path="url(#oclip1)"><g clip-path="url(#oclip2)"><path d="M14.88 0h-4.762C5.131 0 1.073 4.057 1.073 9.044v4.29a9.06 9.06 0 005.713 8.41v2.78a.475.475 0 00.796.353l2.76-2.5h4.538c4.988 0 9.046-4.057 9.046-9.044v-4.29C23.926 4.058 19.868 0 14.88 0zm8.093 13.333c0 4.462-3.63 8.092-8.093 8.092h-4.72a.475.475 0 00-.32.123l-2.1 1.903v-2.037a.475.475 0 00-.318-.449 8.108 8.108 0 01-5.396-7.632v-4.29c0-4.46 3.631-8.09 8.094-8.09h4.761c4.463 0 8.093 3.63 8.093 8.09v4.29z"/><path d="M17.497 14.845l-2.458-1.72a1.19 1.19 0 00-.916-.177 1.207 1.207 0 00-.769.543l-.117.185c-1.08-.367-2.27-.834-2.983-2.952l.295-.263c.507-.452.56-1.243.12-1.763L8.717 6.394a.4.4 0 00-.572-.042L6.919 7.445c-1.074.96-.572 2.378-.407 2.844.007.02.016.04.027.06.042.079 1.06 1.942 2.703 3.66 1.65 1.725 4.628 3.318 4.72 3.364.34.227.723.336 1.101.336a2.02 2.02 0 001.706-.948l.884-1.397c.121-.194.032-.394-.156-.52zM13.586 7.736a.475.475 0 10-.26.915 2.154 2.154 0 011.474 1.478.476.476 0 00.916-.258 3.112 3.112 0 00-2.13-2.135z"/><path d="M17.21 10.579a.476.476 0 00.459-.605 6.046 6.046 0 00-4.138-4.147.475.475 0 10-.26.916 5.087 5.087 0 013.48 3.49c.06.209.25.346.458.346z"/><path d="M13.325 3.61a.475.475 0 10-.261.917 8.619 8.619 0 015.897 5.911.477.477 0 00.917-.258 9.578 9.578 0 00-6.553-6.57z"/></g></g></g><defs><clipPath id="oclip0"><path d="M0 0h25v25H0z"/></clipPath><clipPath id="oclip1"><path d="M0 0h25v25H0z"/></clipPath><clipPath id="oclip2"><path d="M0 0h25v25H0z"/></clipPath></defs></symbol><symbol viewBox="0 0 24 15" id="vk" xmlns="http://www.w3.org/2000/svg"><path d="M20.655 8.91c.796.8 1.637 1.553 2.35 2.437.317.39.615.795.842 1.25.324.648.032 1.358-.531 1.397H19.82c-.903.076-1.621-.3-2.227-.935-.483-.508-.932-1.05-1.398-1.573a3.3 3.3 0 00-.629-.578c-.477-.32-.89-.221-1.164.292-.278.522-.341 1.1-.368 1.682-.038.85-.287 1.072-1.114 1.111-1.767.086-3.443-.19-5.002-1.109-1.375-.81-2.439-1.953-3.366-3.248C2.746 7.113 1.364 4.343.122 1.494-.159.852.045.51.731.496A93.11 93.11 0 014.156.495c.465.007.772.281.95.733.617 1.563 1.373 3.051 2.32 4.43.252.368.51.735.877.994.405.287.713.192.904-.274a3.1 3.1 0 00.202-.93c.09-1.088.101-2.174-.056-3.257-.098-.678-.467-1.115-1.122-1.244-.334-.065-.285-.192-.123-.389.282-.34.546-.55 1.073-.55h3.95c.622.126.762.414.846 1.06l.004 4.524c-.008.25.121.992.557 1.155.35.12.58-.17.788-.397.948-1.036 1.622-2.26 2.227-3.525a24.32 24.32 0 00.72-1.714c.166-.428.424-.639.893-.631l3.803.004c.112 0 .226.001.337.021.64.113.817.397.618 1.042-.312 1.013-.918 1.856-1.511 2.702-.635.905-1.313 1.78-1.942 2.688-.578.832-.532 1.25.185 1.972z"/></symbol><symbol viewBox="0 0 21 13" id="watch" xmlns="http://www.w3.org/2000/svg"><path d="M10.5 0C6.488 0 2.85 2.28.164 5.982a.89.89 0 000 1.031C2.85 10.72 6.488 13 10.5 13c4.012 0 7.65-2.28 10.336-5.982a.89.89 0 000-1.031C18.15 2.28 14.512 0 10.5 0zm.288 11.077c-2.664.174-4.863-2.105-4.695-4.876.137-2.284 1.92-4.135 4.12-4.278 2.663-.174 4.862 2.105 4.695 4.876-.142 2.28-1.925 4.131-4.12 4.278zm-.133-2.114c-1.435.093-2.62-1.134-2.526-2.624.073-1.23 1.035-2.226 2.22-2.306 1.435-.094 2.621 1.133 2.527 2.623-.078 1.236-1.04 2.23-2.221 2.307z"/></symbol><symbol viewBox="0 0 21 15" id="yotube" xmlns="http://www.w3.org/2000/svg"><path d="M20.637 2.26a2.613 2.613 0 00-2.27-1.974c-2.604-.278-5.24-.28-7.863-.278-2.625-.001-5.26 0-7.865.278A2.612 2.612 0 00.37 2.26C.004 3.78 0 5.442 0 7.008c0 1.566 0 3.227.366 4.748a2.612 2.612 0 002.27 1.974c2.603.278 5.24.28 7.864.278 2.624.001 5.26 0 7.863-.278a2.613 2.613 0 002.27-1.974c.366-1.521.367-3.182.367-4.748 0-1.566.003-3.227-.363-4.748zM7.79 10.126V3.483l6.676 3.332-6.676 3.31z"/></symbol></svg>