<?xml version="1.0" encoding="utf-8"?><svg xmlns="http://www.w3.org/2000/svg" xmlns:xlink="http://www.w3.org/1999/xlink"><symbol viewBox="0 0 24 24" id="WhatsApp" xmlns="http://www.w3.org/2000/svg"><path d="M24 11.69c0 6.458-5.274 11.692-11.782 11.692-2.066 0-4.007-.528-5.695-1.455L0 24l2.127-6.273a11.568 11.568 0 01-1.691-6.036C.436 5.234 5.711 0 12.218 0 18.726 0 24 5.234 24 11.69zM12.218 1.863c-5.462 0-9.905 4.41-9.905 9.829 0 2.15.7 4.142 1.886 5.762l-1.237 3.65 3.807-1.21a9.899 9.899 0 005.45 1.627c5.461 0 9.905-4.409 9.905-9.829 0-5.42-4.444-9.83-9.906-9.83zm5.95 12.521c-.073-.119-.265-.19-.554-.334-.289-.143-1.71-.837-1.973-.932-.265-.096-.458-.144-.65.143-.193.287-.746.932-.915 1.123-.168.192-.337.216-.626.073-.288-.144-1.219-.447-2.322-1.422-.858-.76-1.438-1.698-1.607-1.985-.168-.286-.017-.441.127-.584.13-.129.29-.335.433-.502.145-.167.193-.287.289-.478.097-.191.048-.358-.024-.502-.072-.143-.65-1.553-.89-2.127-.241-.574-.482-.478-.65-.478-.169 0-.361-.024-.554-.024-.193 0-.506.072-.77.358-.265.287-1.01.98-1.01 2.39 0 1.41 1.034 2.773 1.178 2.964.145.19 1.998 3.178 4.934 4.326 2.936 1.147 2.936.764 3.466.716.529-.048 1.708-.693 1.95-1.362.24-.67.24-1.243.168-1.363z"/></symbol><symbol viewBox="0 0 19 10" id="arrow" xmlns="http://www.w3.org/2000/svg"><path d="M14.5 5V2l3 3-3 3V5z"/><path d="M0 5h14.5m0 0V2l3 3-3 3V5z"/></symbol><symbol viewBox="0 0 18.561 9.621" id="arrow_2" xmlns="http://www.w3.org/2000/svg"><path d="M14.5 4.81v-3l3 3-3 3z"/><path d="M14.764 4.864l-.193.23-.61-.133.539-.15m0 0v-3l3 3-3 3zM.007 4.151h13.79v1.542H.007z"/></symbol><symbol viewBox="0 0 21 21" id="loupe" xmlns="http://www.w3.org/2000/svg"><path d="M20.818 19.929l-5.104-5.103a8.917 8.917 0 002.198-5.872c0-4.94-4.02-8.954-8.956-8.954C4.015 0 0 4.018 0 8.954c0 4.936 4.02 8.954 8.956 8.954a8.921 8.921 0 005.873-2.198l5.104 5.104a.633.633 0 00.443.186.63.63 0 00.442-1.071zM1.253 8.954c0-4.246 3.456-7.697 7.698-7.697 4.248 0 7.699 3.455 7.699 7.697s-3.451 7.702-7.699 7.702c-4.242 0-7.698-3.455-7.698-7.702z"/></symbol><symbol viewBox="0 0 15 11" id="mail" xmlns="http://www.w3.org/2000/svg"><path d="M13.594 0H1.406C.631 0 0 .617 0 1.375v8.25C0 10.383.63 11 1.406 11h12.188C14.369 11 15 10.383 15 9.625v-8.25C15 .617 14.37 0 13.594 0zm0 .917c.063 0 .124.013.18.035L7.5 6.27 1.227.952a.476.476 0 01.18-.035h12.187zm0 9.166H1.406a.464.464 0 01-.469-.458V1.921l6.256 5.3a.475.475 0 00.614 0l6.255-5.3v7.704c0 .253-.21.458-.468.458z"/></symbol><symbol viewBox="0 0 11 11" id="sb" xmlns="http://www.w3.org/2000/svg"><path d="M1 4.938A5.063 5.063 0 016.063 10M1 1a9 9 0 019 9M1.563 10a.563.563 0 100-1.125.563.563 0 000 1.125z"/></symbol><symbol viewBox="0 0 24 21" id="telegram" xmlns="http://www.w3.org/2000/svg"><path d="M23.53.376a1.464 1.464 0 00-1.432-.304L.995 6.942a1.423 1.423 0 00-.127 2.67l5.219 2.256L7.66 19.08c.066.3.22.566.546.648.33.083.563-.095.81-.277l3.872-2.864 4.528 3.66a1.452 1.452 0 001.382.247c.477-.16.83-.544.945-1.027l4.218-17.71A1.421 1.421 0 0023.53.376zM9.354 13.16a.194.194 0 00-.008.02l-.873 3.013L7.5 11.73l6.7-3.676-4.685 4.837a.694.694 0 00-.16.269zm.277 4.099l.396-1.369.38-1.309 1.358 1.099-2.134 1.579zm12.958-15.82l-4.217 17.71c-.002.008-.005.02-.025.027-.02.007-.03 0-.038-.006l-4.954-4.004-2.296-1.856 7.375-7.616a.69.69 0 00.048-.906.71.71 0 00-.9-.184l-10.92 5.993-5.229-2.26c-.016-.007-.025-.01-.023-.037 0-.027.01-.03.026-.035L22.54 1.394c.01-.003.022-.007.039.008.017.016.014.027.011.038z"/></symbol><symbol viewBox="0 0 25 25" id="viber" xmlns="http://www.w3.org/2000/svg"><g clip-path="url(#hclip0)"><g clip-path="url(#hclip1)"><g clip-path="url(#hclip2)"><path d="M14.88 0h-4.762C5.131 0 1.073 4.057 1.073 9.044v4.29a9.06 9.06 0 005.713 8.41v2.78a.475.475 0 00.796.353l2.76-2.5h4.538c4.988 0 9.046-4.057 9.046-9.044v-4.29C23.926 4.058 19.868 0 14.88 0zm8.093 13.333c0 4.462-3.63 8.092-8.093 8.092h-4.72a.475.475 0 00-.32.123l-2.1 1.903v-2.037a.475.475 0 00-.318-.449 8.108 8.108 0 01-5.396-7.632v-4.29c0-4.46 3.631-8.09 8.094-8.09h4.761c4.463 0 8.093 3.63 8.093 8.09v4.29z"/><path d="M17.497 14.845l-2.458-1.72a1.19 1.19 0 00-.916-.177 1.207 1.207 0 00-.769.543l-.117.185c-1.08-.367-2.27-.834-2.983-2.952l.295-.263c.507-.452.56-1.243.12-1.763L8.717 6.394a.4.4 0 00-.572-.042L6.919 7.445c-1.074.96-.572 2.378-.407 2.844.007.02.016.04.027.06.042.079 1.06 1.942 2.703 3.66 1.65 1.725 4.628 3.318 4.72 3.364.34.227.723.336 1.101.336a2.02 2.02 0 001.706-.948l.884-1.397c.121-.194.032-.394-.156-.52zM13.586 7.736a.475.475 0 10-.26.915 2.154 2.154 0 011.474 1.478.476.476 0 00.916-.258 3.112 3.112 0 00-2.13-2.135z"/><path d="M17.21 10.579a.476.476 0 00.459-.605 6.046 6.046 0 00-4.138-4.147.475.475 0 10-.26.916 5.087 5.087 0 013.48 3.49c.06.209.25.346.458.346z"/><path d="M13.325 3.61a.475.475 0 10-.261.917 8.619 8.619 0 015.897 5.911.477.477 0 00.917-.258 9.578 9.578 0 00-6.553-6.57z"/></g></g></g><defs><clipPath id="hclip0"><path d="M0 0h25v25H0z"/></clipPath><clipPath id="hclip1"><path d="M0 0h25v25H0z"/></clipPath><clipPath id="hclip2"><path d="M0 0h25v25H0z"/></clipPath></defs></symbol></svg>