<?xml version="1.0" encoding="utf-8"?><svg xmlns="http://www.w3.org/2000/svg" xmlns:xlink="http://www.w3.org/1999/xlink"><symbol viewBox="0 0 24 24" id="WhatsApp" xmlns="http://www.w3.org/2000/svg"><path d="M24 11.69c0 6.458-5.274 11.692-11.782 11.692-2.066 0-4.007-.528-5.695-1.455L0 24l2.127-6.273a11.568 11.568 0 01-1.691-6.036C.436 5.234 5.711 0 12.218 0 18.726 0 24 5.234 24 11.69zM12.218 1.863c-5.462 0-9.905 4.41-9.905 9.829 0 2.15.7 4.142 1.886 5.762l-1.237 3.65 3.807-1.21a9.899 9.899 0 005.45 1.627c5.461 0 9.905-4.409 9.905-9.829 0-5.42-4.444-9.83-9.906-9.83zm5.95 12.521c-.073-.119-.265-.19-.554-.334-.289-.143-1.71-.837-1.973-.932-.265-.096-.458-.144-.65.143-.193.287-.746.932-.915 1.123-.168.192-.337.216-.626.073-.288-.144-1.219-.447-2.322-1.422-.858-.76-1.438-1.698-1.607-1.985-.168-.286-.017-.441.127-.584.13-.129.29-.335.433-.502.145-.167.193-.287.289-.478.097-.191.048-.358-.024-.502-.072-.143-.65-1.553-.89-2.127-.241-.574-.482-.478-.65-.478-.169 0-.361-.024-.554-.024-.193 0-.506.072-.77.358-.265.287-1.01.98-1.01 2.39 0 1.41 1.034 2.773 1.178 2.964.145.19 1.998 3.178 4.934 4.326 2.936 1.147 2.936.764 3.466.716.529-.048 1.708-.693 1.95-1.362.24-.67.24-1.243.168-1.363z"/></symbol><symbol viewBox="0 0 19 10" id="arrow" xmlns="http://www.w3.org/2000/svg"><path d="M14.5 5V2l3 3-3 3V5z"/><path d="M0 5h14.5m0 0V2l3 3-3 3V5z"/></symbol><symbol viewBox="0 0 18.561 9.621" id="arrow_2" xmlns="http://www.w3.org/2000/svg"><path d="M14.5 4.81v-3l3 3-3 3z"/><path d="M14.764 4.864l-.193.23-.61-.133.539-.15m0 0v-3l3 3-3 3zM.007 4.151h13.79v1.542H.007z"/></symbol><symbol viewBox="0 0 14 13" id="burger" xmlns="http://www.w3.org/2000/svg"><path d="M13.476 5.59v2h-13v-2zM13.477 0v2h-13V0zm0 11v2h-13v-2z"/></symbol><symbol viewBox="0 0 13 13" id="cats" xmlns="http://www.w3.org/2000/svg"><path d="M12.492 0H.508A.508.508 0 000 .508a4.96 4.96 0 001.663 3.704l2.224 1.976c.386.343.607.836.607 1.352v4.952c0 .404.452.647.79.422l2.996-1.997a.508.508 0 00.226-.423V7.54c0-.516.221-1.009.607-1.352l2.224-1.976A4.96 4.96 0 0013 .508.508.508 0 0012.492 0zm-1.83 3.452L8.438 5.43a2.826 2.826 0 00-.948 2.11v2.684l-1.98 1.32V7.54c0-.806-.346-1.575-.948-2.11L2.338 3.452a3.945 3.945 0 01-1.29-2.437h10.903a3.944 3.944 0 01-1.289 2.436z"/></symbol><symbol viewBox="0 0 9 7" id="check" xmlns="http://www.w3.org/2000/svg"><path d="M1.5 3.5l2 2 4-4"/></symbol><symbol viewBox="0 0 12 12" id="clock" xmlns="http://www.w3.org/2000/svg"><path d="M6 0C2.692 0 0 2.692 0 6s2.692 6 6 6 6-2.692 6-6-2.692-6-6-6zm0 10.723A4.729 4.729 0 011.277 6 4.729 4.729 0 016 1.277 4.729 4.729 0 0110.723 6 4.729 4.729 0 016 10.723z"/><path d="M9.13 5.814H6.433V2.572a.494.494 0 00-.988 0v3.736c0 .273.222.494.494.494h3.19a.494.494 0 000-.988z"/></symbol><symbol viewBox="0 0 18 18" id="close" xmlns="http://www.w3.org/2000/svg"><path d="M1 1l16 16m0-16L1 17"/></symbol><symbol viewBox="0 0 14 14" id="comment" xmlns="http://www.w3.org/2000/svg"><path d="M1.4 0h11.2c.759 0 1.4.687 1.4 1.5v8.25c0 .813-.641 1.5-1.4 1.5H5.936l-2.263 2.668a.221.221 0 01-.257.065.25.25 0 01-.15-.233v-2.5H1.4c-.759 0-1.4-.687-1.4-1.5V1.5C0 .687.641 0 1.4 0z"/></symbol><symbol viewBox="0 0 34 34" id="council_1" xmlns="http://www.w3.org/2000/svg"><path d="M15.582 5.668H5.665a2.833 2.833 0 00-2.833 2.833v19.834a2.833 2.833 0 002.833 2.833H25.5a2.833 2.833 0 002.833-2.833v-9.917"/><path d="M26.207 3.54a3.005 3.005 0 014.25 4.25L16.999 21.25l-5.667 1.416L12.749 17 26.207 3.54z"/></symbol><symbol viewBox="0 0 34 34" id="council_2" xmlns="http://www.w3.org/2000/svg"><path d="M29.75 16.292a11.871 11.871 0 01-1.275 5.383 12.042 12.042 0 01-10.767 6.658 11.873 11.873 0 01-5.383-1.275L4.25 29.75l2.692-8.075a11.871 11.871 0 01-1.275-5.383 12.042 12.042 0 016.658-10.767 11.872 11.872 0 015.383-1.275h.709A12.013 12.013 0 0129.75 15.583v.709z"/></symbol><symbol viewBox="0 0 34 34" id="council_3" xmlns="http://www.w3.org/2000/svg"><path d="M2.832 4.25h8.5a5.667 5.667 0 015.667 5.667V29.75a4.25 4.25 0 00-4.25-4.25H2.832V4.25zm28.335 0h-8.5A5.667 5.667 0 0017 9.917V29.75a4.25 4.25 0 014.25-4.25h9.917V4.25z"/></symbol><symbol viewBox="0 0 22 13" id="down" xmlns="http://www.w3.org/2000/svg"><path d="M1 1l10 10L21 1"/></symbol><symbol viewBox="0 0 10 19" id="fb" xmlns="http://www.w3.org/2000/svg"><path d="M9.624.004L7.225 0C4.53 0 2.789 1.835 2.789 4.676v2.156H.377A.382.382 0 000 7.22v3.123c0 .214.169.388.377.388H2.79v7.882c0 .214.169.387.377.387h3.147a.382.382 0 00.377-.387v-7.882h2.82a.382.382 0 00.377-.388V7.22a.393.393 0 00-.11-.274.372.372 0 00-.267-.114H6.69V5.004c0-.878.203-1.324 1.317-1.324h1.616A.382.382 0 0010 3.291v-2.9a.383.383 0 00-.376-.388z"/></symbol><symbol viewBox="0 0 14 13" id="heart" xmlns="http://www.w3.org/2000/svg"><path d="M14 4.24C14 2.176 12.307.5 10.22.5A3.782 3.782 0 007 2.287 3.783 3.783 0 003.78.5C1.692.5 0 2.175 0 4.24a3.71 3.71 0 001.298 2.817l5.357 5.302a.49.49 0 00.69 0l5.357-5.302A3.71 3.71 0 0014 4.241z"/></symbol><symbol viewBox="0 0 18 19" id="insta" xmlns="http://www.w3.org/2000/svg"><path d="M14.7.004H3.3c-1.82 0-3.3 1.48-3.3 3.3v11.4c0 1.82 1.48 3.3 3.3 3.3h11.4c1.82 0 3.3-1.48 3.3-3.3v-11.4c0-1.82-1.48-3.3-3.3-3.3zM9 14.93a5.932 5.932 0 01-5.925-5.926A5.932 5.932 0 019 3.078a5.932 5.932 0 015.926 5.926A5.933 5.933 0 019 14.93zm6.116-10.626a1.404 1.404 0 01-1.402-1.402c0-.773.629-1.402 1.402-1.402.773 0 1.402.629 1.402 1.402 0 .773-.629 1.402-1.402 1.402z"/><path d="M8.995 5.582a3.426 3.426 0 00-3.422 3.421 3.426 3.426 0 003.422 3.422 3.426 3.426 0 003.421-3.422 3.426 3.426 0 00-3.42-3.421z"/></symbol><symbol viewBox="0 0 59 59" id="light" xmlns="http://www.w3.org/2000/svg"><path d="M29.499 9.79c-8.934 0-15.388 6.658-16.412 13.81-.638 4.768.904 9.416 4.106 12.931 2.818 3.01 4.36 7.032 4.36 11.174l-.013 6.526c0 2.637 2.18 4.768 4.877 4.768h6.285c2.697 0 4.876-2.13 4.876-4.768l.012-6.526c0-4.262 1.41-8.163 4.106-10.92 2.95-3.01 4.491-6.9 4.491-10.922C46.175 16.941 38.602 9.79 29.5 9.79zm5.635 44.441c0 1.253-1.023 2.264-2.312 2.264h-6.285c-1.288 0-2.312-1-2.312-2.264v-2.89h10.897v2.89h.012zm4.768-19.205c-3.203 3.263-4.876 7.779-4.876 12.68v1.131H24.129v-1.132c0-4.647-1.927-9.283-5.13-12.799-2.817-3.01-3.973-6.9-3.467-10.92.903-6.021 6.502-11.68 13.979-11.68 7.826 0 14.112 6.152 14.112 13.557a13.12 13.12 0 01-3.72 9.163zM30.776 0H28.21v6.02h2.565V0zm14.268 11.607l1.794 1.794 4.395-4.227-1.806-1.794-4.383 4.227zm13.955 15.511h-6.285v2.516h6.285v-2.516zm-52.714.001H0v2.516h6.285V27.12zM9.524 7.37L7.718 9.162l4.395 4.227 1.794-1.795L9.524 7.37z" fill-opacity=".77"/></symbol><symbol viewBox="0 0 21 21" id="loupe" xmlns="http://www.w3.org/2000/svg"><path d="M20.818 19.929l-5.104-5.103a8.917 8.917 0 002.198-5.872c0-4.94-4.02-8.954-8.956-8.954C4.015 0 0 4.018 0 8.954c0 4.936 4.02 8.954 8.956 8.954a8.921 8.921 0 005.873-2.198l5.104 5.104a.633.633 0 00.443.186.63.63 0 00.442-1.071zM1.253 8.954c0-4.246 3.456-7.697 7.698-7.697 4.248 0 7.699 3.455 7.699 7.697s-3.451 7.702-7.699 7.702c-4.242 0-7.698-3.455-7.698-7.702z"/></symbol><symbol viewBox="0 0 15 11" id="mail" xmlns="http://www.w3.org/2000/svg"><path d="M13.594 0H1.406C.631 0 0 .617 0 1.375v8.25C0 10.383.63 11 1.406 11h12.188C14.369 11 15 10.383 15 9.625v-8.25C15 .617 14.37 0 13.594 0zm0 .917c.063 0 .124.013.18.035L7.5 6.27 1.227.952a.476.476 0 01.18-.035h12.187zm0 9.166H1.406a.464.464 0 01-.469-.458V1.921l6.256 5.3a.475.475 0 00.614 0l6.255-5.3v7.704c0 .253-.21.458-.468.458z"/></symbol><symbol viewBox="0 0 15 11" id="metro" xmlns="http://www.w3.org/2000/svg"><path d="M10.372.048h-.126L7.564 5.636 4.786 0 .983 10.182H0V11h5.385v-.818H4.316L5.385 7l2.18 4 2.093-4 1.069 3.182h-1.07V11H15v-.818h-.925L10.372.048z"/></symbol><symbol viewBox="0 0 10 14" id="next" xmlns="http://www.w3.org/2000/svg"><path d="M2 12l5-5-5-5"/></symbol><symbol viewBox="0 0 19 19" id="phone" xmlns="http://www.w3.org/2000/svg"><path d="M3.85 12.63a20.222 20.222 0 006.73 5.252c.984.464 2.3 1.016 3.767 1.11.09.004.177.008.268.008.984 0 1.775-.339 2.419-1.035a.087.087 0 00.016-.02c.229-.276.49-.524.762-.788.186-.177.376-.362.558-.55.841-.875.841-1.985-.008-2.831l-2.375-2.367c-.403-.417-.886-.637-1.391-.637-.506 0-.992.22-1.407.633l-1.415 1.41a7.52 7.52 0 00-.391-.205 4.885 4.885 0 01-.435-.236C9.66 11.559 8.49 10.496 7.37 9.13c-.565-.713-.944-1.311-1.209-1.921.372-.335.72-.685 1.055-1.028.119-.122.241-.244.364-.366.427-.425.656-.917.656-1.417s-.225-.992-.656-1.418L6.403 1.807A38.62 38.62 0 016 1.397c-.26-.267-.533-.543-.802-.79C4.79.208 4.313 0 3.807 0 3.305 0 2.823.209 2.4.61L.922 2.083A3.02 3.02 0 00.017 4.02c-.075.94.099 1.94.55 3.15.69 1.87 1.734 3.606 3.283 5.46zM.981 4.102a2.08 2.08 0 01.629-1.338l1.47-1.465c.229-.22.482-.334.727-.334.24 0 .486.114.711.342.265.244.514.5.783.772.134.138.272.275.41.417L6.89 3.67c.245.244.372.492.372.737 0 .244-.127.492-.372.736l-.367.37c-.368.37-.712.72-1.091 1.055l-.02.02c-.328.326-.276.637-.197.874l.012.031c.304.728.727 1.421 1.387 2.248 1.185 1.457 2.434 2.587 3.81 3.457.17.11.351.197.521.283.158.08.304.154.435.236l.043.024c.13.067.257.099.383.099.317 0 .522-.201.59-.268l1.477-1.473c.23-.228.479-.35.724-.35.3 0 .545.185.7.35l2.382 2.37c.474.473.47.985-.012 1.485-.166.177-.34.346-.525.523-.277.268-.565.544-.826.855-.455.488-.996.716-1.696.716a3.51 3.51 0 01-.205-.008c-1.296-.082-2.502-.586-3.407-1.015a19.21 19.21 0 01-6.406-5C3.127 10.256 2.135 8.61 1.48 6.846 1.072 5.764.918 4.894.981 4.102z"/></symbol><symbol viewBox="0 0 24 24" id="popup-phone" xmlns="http://www.w3.org/2000/svg"><path d="M22 15.92v3a1.998 1.998 0 01-2.18 2 19.791 19.791 0 01-8.63-3.07 19.5 19.5 0 01-6-6 19.79 19.79 0 01-3.07-8.67A2 2 0 014.11 1h3a2 2 0 012 1.72c.127.96.361 1.903.7 2.81a2 2 0 01-.45 2.11L8.09 8.91a16 16 0 006 6l1.27-1.27a2 2 0 012.11-.45c.907.339 1.85.574 2.81.7A2 2 0 0122 15.92z"/></symbol><symbol viewBox="0 0 24 24" id="popup-user" xmlns="http://www.w3.org/2000/svg"><path d="M20 21v-2a4 4 0 00-4-4H8a4 4 0 00-4 4v2m8-10a4 4 0 100-8 4 4 0 000 8z"/></symbol><symbol viewBox="0 0 11 11" id="sb" xmlns="http://www.w3.org/2000/svg"><path d="M1 4.938A5.063 5.063 0 016.063 10M1 1a9 9 0 019 9M1.563 10a.563.563 0 100-1.125.563.563 0 000 1.125z"/></symbol><symbol viewBox="0 0 26 26" id="star" xmlns="http://www.w3.org/2000/svg"><path d="M5.956 26c-.627 0-1.22-.294-1.614-.797a2.189 2.189 0 01-.413-1.796l1.334-6.381a.72.72 0 00-.185-.651L.602 11.724a2.187 2.187 0 01-.498-2.177A2.094 2.094 0 011.76 8.102l5.649-.896a.693.693 0 00.495-.35l3.217-5.78c.382-.687 1.1-1.1 1.867-1.075a2.073 2.073 0 011.796 1.194l2.681 5.62c.1.212.297.359.523.392l6.233.918a2.093 2.093 0 011.672 1.44 2.186 2.186 0 01-.496 2.186l-4.45 4.623a.728.728 0 00-.185.652l1.334 6.381a2.176 2.176 0 01-.732 2.121 2.025 2.025 0 01-2.167.273L13.303 23a.673.673 0 00-.58 0l-5.898 2.806c-.273.129-.57.195-.87.195zm6.967-24.573a.67.67 0 00-.6.356L9.104 7.565a2.068 2.068 0 01-1.489 1.051l-5.65.896a.697.697 0 00-.552.482.728.728 0 00.167.726l4.475 4.65c.495.513.704 1.25.554 1.957l-1.332 6.385c-.055.265.04.54.245.708.205.17.486.204.724.09l5.898-2.807a2.019 2.019 0 011.739 0l5.898 2.806c.238.115.519.08.724-.089a.725.725 0 00.245-.708l-1.334-6.381a2.175 2.175 0 01.553-1.958l4.45-4.623a.729.729 0 00.164-.729.698.698 0 00-.558-.479l-6.24-.922a2.082 2.082 0 01-1.569-1.175l-2.68-5.62a.675.675 0 00-.599-.398h-.015z"/><path d="M12.923 1.427a.67.67 0 00-.6.356L9.104 7.565a2.068 2.068 0 01-1.489 1.051l-5.65.896a.697.697 0 00-.552.482.728.728 0 00.167.726l4.475 4.65c.495.513.704 1.25.554 1.957l-1.332 6.385c-.055.265.04.54.245.708.205.17.486.204.724.09l5.898-2.807a2.019 2.019 0 011.739 0l5.898 2.806c.238.115.519.08.724-.089a.725.725 0 00.245-.708l-1.334-6.381a2.175 2.175 0 01.553-1.958l4.45-4.623a.729.729 0 00.164-.729.698.698 0 00-.558-.479l-6.24-.922a2.082 2.082 0 01-1.569-1.175l-2.68-5.62a.675.675 0 00-.599-.398h-.015z"/></symbol><symbol viewBox="0 0 24 21" id="telegram" xmlns="http://www.w3.org/2000/svg"><path d="M23.53.376a1.464 1.464 0 00-1.432-.304L.995 6.942a1.423 1.423 0 00-.127 2.67l5.219 2.256L7.66 19.08c.066.3.22.566.546.648.33.083.563-.095.81-.277l3.872-2.864 4.528 3.66a1.452 1.452 0 001.382.247c.477-.16.83-.544.945-1.027l4.218-17.71A1.421 1.421 0 0023.53.376zM9.354 13.16a.194.194 0 00-.008.02l-.873 3.013L7.5 11.73l6.7-3.676-4.685 4.837a.694.694 0 00-.16.269zm.277 4.099l.396-1.369.38-1.309 1.358 1.099-2.134 1.579zm12.958-15.82l-4.217 17.71c-.002.008-.005.02-.025.027-.02.007-.03 0-.038-.006l-4.954-4.004-2.296-1.856 7.375-7.616a.69.69 0 00.048-.906.71.71 0 00-.9-.184l-10.92 5.993-5.229-2.26c-.016-.007-.025-.01-.023-.037 0-.027.01-.03.026-.035L22.54 1.394c.01-.003.022-.007.039.008.017.016.014.027.011.038z"/></symbol><symbol viewBox="0 0 38 25" id="thick-arrow" xmlns="http://www.w3.org/2000/svg"><path d="M27.343 12.5V7L33 12.5 27.343 18v-5.5z"/><path d="M0 12.5h27.343m0 0V7L33 12.5 27.343 18v-5.5z"/></symbol><symbol viewBox="0 0 13 13" id="tile" xmlns="http://www.w3.org/2000/svg"><path d="M13 8v5H8V8zM5 0v5H0V0zm8 5H8V0h5zm-8 8H0V8h5z"/></symbol><symbol viewBox="0 0 17 15" id="tw" xmlns="http://www.w3.org/2000/svg"><path d="M16.826 2.199a.079.079 0 00-.096-.024 6.364 6.364 0 01-1.549.494A3.614 3.614 0 0016.39.883a.089.089 0 00-.027-.093.079.079 0 00-.093-.007c-.64.399-1.333.68-2.06.836A3.37 3.37 0 0011.733.513c-1.895 0-3.436 1.622-3.436 3.615 0 .242.022.48.066.712-2.625-.17-5.079-1.496-6.747-3.65a.078.078 0 00-.07-.031.082.082 0 00-.065.042 3.76 3.76 0 00-.465 1.818 3.69 3.69 0 001.294 2.83 3.171 3.171 0 01-1.2-.409.078.078 0 00-.08.001.087.087 0 00-.041.073v.046c0 1.592.997 2.99 2.415 3.454-.374.064-.761.06-1.142-.017a.08.08 0 00-.077.027.09.09 0 00-.017.084c.426 1.397 1.607 2.377 2.983 2.499a6.387 6.387 0 01-4.727 1.302.083.083 0 00-.087.056c-.013.038 0 .08.033.102a9.245 9.245 0 005.186 1.6c6.025 0 9.625-5.15 9.625-10.13 0-.138-.002-.276-.008-.413a7.065 7.065 0 001.658-1.822.09.09 0 00-.005-.103z"/></symbol><symbol viewBox="0 0 34 34" id="vantages_1" xmlns="http://www.w3.org/2000/svg"><path d="M4.25 15.582l26.917-12.75-12.75 26.917-2.834-11.334L4.25 15.582z"/></symbol><symbol viewBox="0 0 34 34" id="vantages_2" xmlns="http://www.w3.org/2000/svg"><path d="M5.668 21.253s1.417-1.417 5.667-1.417 7.083 2.833 11.333 2.833 5.667-1.416 5.667-1.416v-17s-1.417 1.416-5.667 1.416-7.083-2.833-11.333-2.833-5.667 1.417-5.667 1.417v17zm0 9.914V21.25"/></symbol><symbol viewBox="0 0 34 34" id="vantages_3" xmlns="http://www.w3.org/2000/svg"><path d="M26.917 5.668H7.083A2.833 2.833 0 004.25 8.501v19.834a2.833 2.833 0 002.833 2.833h19.834a2.833 2.833 0 002.833-2.833V8.5a2.833 2.833 0 00-2.833-2.833zm-4.249-2.832v5.667M11.332 2.836v5.667M4.25 14.168h25.5"/></symbol><symbol viewBox="0 0 34 34" id="vantages_4" xmlns="http://www.w3.org/2000/svg"><path d="M15.583 26.917c6.26 0 11.334-5.074 11.334-11.334 0-6.259-5.074-11.333-11.334-11.333C9.324 4.25 4.25 9.324 4.25 15.583c0 6.26 5.074 11.334 11.333 11.334zm14.165 2.831l-6.162-6.162m-12.254-8h8.5"/></symbol><symbol viewBox="0 0 34 34" id="vantages_5" xmlns="http://www.w3.org/2000/svg"><path d="M26.917 15.582H7.083a2.833 2.833 0 00-2.833 2.833v9.917a2.833 2.833 0 002.833 2.833h19.834a2.833 2.833 0 002.833-2.833v-9.917a2.833 2.833 0 00-2.833-2.833z"/><path d="M9.918 15.585V9.92a7.083 7.083 0 0114.025-1.417"/></symbol><symbol viewBox="0 0 25 25" id="viber" xmlns="http://www.w3.org/2000/svg"><g clip-path="url(#bjclip0)"><g clip-path="url(#bjclip1)"><g clip-path="url(#bjclip2)"><path d="M14.88 0h-4.762C5.131 0 1.073 4.057 1.073 9.044v4.29a9.06 9.06 0 005.713 8.41v2.78a.475.475 0 00.796.353l2.76-2.5h4.538c4.988 0 9.046-4.057 9.046-9.044v-4.29C23.926 4.058 19.868 0 14.88 0zm8.093 13.333c0 4.462-3.63 8.092-8.093 8.092h-4.72a.475.475 0 00-.32.123l-2.1 1.903v-2.037a.475.475 0 00-.318-.449 8.108 8.108 0 01-5.396-7.632v-4.29c0-4.46 3.631-8.09 8.094-8.09h4.761c4.463 0 8.093 3.63 8.093 8.09v4.29z"/><path d="M17.497 14.845l-2.458-1.72a1.19 1.19 0 00-.916-.177 1.207 1.207 0 00-.769.543l-.117.185c-1.08-.367-2.27-.834-2.983-2.952l.295-.263c.507-.452.56-1.243.12-1.763L8.717 6.394a.4.4 0 00-.572-.042L6.919 7.445c-1.074.96-.572 2.378-.407 2.844.007.02.016.04.027.06.042.079 1.06 1.942 2.703 3.66 1.65 1.725 4.628 3.318 4.72 3.364.34.227.723.336 1.101.336a2.02 2.02 0 001.706-.948l.884-1.397c.121-.194.032-.394-.156-.52zM13.586 7.736a.475.475 0 10-.26.915 2.154 2.154 0 011.474 1.478.476.476 0 00.916-.258 3.112 3.112 0 00-2.13-2.135z"/><path d="M17.21 10.579a.476.476 0 00.459-.605 6.046 6.046 0 00-4.138-4.147.475.475 0 10-.26.916 5.087 5.087 0 013.48 3.49c.06.209.25.346.458.346z"/><path d="M13.325 3.61a.475.475 0 10-.261.917 8.619 8.619 0 015.897 5.911.477.477 0 00.917-.258 9.578 9.578 0 00-6.553-6.57z"/></g></g></g><defs><clipPath id="bjclip0"><path d="M0 0h25v25H0z"/></clipPath><clipPath id="bjclip1"><path d="M0 0h25v25H0z"/></clipPath><clipPath id="bjclip2"><path d="M0 0h25v25H0z"/></clipPath></defs></symbol><symbol viewBox="0 0 24 15" id="vk" xmlns="http://www.w3.org/2000/svg"><path d="M20.655 8.91c.796.8 1.637 1.553 2.35 2.437.317.39.615.795.842 1.25.324.648.032 1.358-.531 1.397H19.82c-.903.076-1.621-.3-2.227-.935-.483-.508-.932-1.05-1.398-1.573a3.3 3.3 0 00-.629-.578c-.477-.32-.89-.221-1.164.292-.278.522-.341 1.1-.368 1.682-.038.85-.287 1.072-1.114 1.111-1.767.086-3.443-.19-5.002-1.109-1.375-.81-2.439-1.953-3.366-3.248C2.746 7.113 1.364 4.343.122 1.494-.159.852.045.51.731.496A93.11 93.11 0 014.156.495c.465.007.772.281.95.733.617 1.563 1.373 3.051 2.32 4.43.252.368.51.735.877.994.405.287.713.192.904-.274a3.1 3.1 0 00.202-.93c.09-1.088.101-2.174-.056-3.257-.098-.678-.467-1.115-1.122-1.244-.334-.065-.285-.192-.123-.389.282-.34.546-.55 1.073-.55h3.95c.622.126.762.414.846 1.06l.004 4.524c-.008.25.121.992.557 1.155.35.12.58-.17.788-.397.948-1.036 1.622-2.26 2.227-3.525a24.32 24.32 0 00.72-1.714c.166-.428.424-.639.893-.631l3.803.004c.112 0 .226.001.337.021.64.113.817.397.618 1.042-.312 1.013-.918 1.856-1.511 2.702-.635.905-1.313 1.78-1.942 2.688-.578.832-.532 1.25.185 1.972z"/></symbol><symbol viewBox="0 0 21 13" id="watch" xmlns="http://www.w3.org/2000/svg"><path d="M10.5 0C6.488 0 2.85 2.28.164 5.982a.89.89 0 000 1.031C2.85 10.72 6.488 13 10.5 13c4.012 0 7.65-2.28 10.336-5.982a.89.89 0 000-1.031C18.15 2.28 14.512 0 10.5 0zm.288 11.077c-2.664.174-4.863-2.105-4.695-4.876.137-2.284 1.92-4.135 4.12-4.278 2.663-.174 4.862 2.105 4.695 4.876-.142 2.28-1.925 4.131-4.12 4.278zm-.133-2.114c-1.435.093-2.62-1.134-2.526-2.624.073-1.23 1.035-2.226 2.22-2.306 1.435-.094 2.621 1.133 2.527 2.623-.078 1.236-1.04 2.23-2.221 2.307z"/></symbol><symbol viewBox="0 0 34 34" id="we-know-bell" xmlns="http://www.w3.org/2000/svg"><path d="M25.5 11.333a8.5 8.5 0 10-17 0c0 9.917-4.25 12.75-4.25 12.75h25.5s-4.25-2.833-4.25-12.75zM19.45 29.75a2.833 2.833 0 01-4.901 0"/></symbol><symbol viewBox="0 0 34 34" id="we-know-camera" xmlns="http://www.w3.org/2000/svg"><path d="M32.583 26.917a2.833 2.833 0 01-2.833 2.833H4.25a2.833 2.833 0 01-2.833-2.833V11.333A2.833 2.833 0 014.25 8.5h5.667l2.833-4.25h8.5l2.833 4.25h5.667a2.833 2.833 0 012.833 2.833v15.584z"/><path d="M17 24.083a5.667 5.667 0 100-11.333 5.667 5.667 0 000 11.333z"/></symbol><symbol viewBox="0 0 31 31" id="we-know-pencil" xmlns="http://www.w3.org/2000/svg"><path d="M23.084 2.25a4.007 4.007 0 015.666 5.667L9.625 27.042l-7.792 2.125 2.125-7.792L23.084 2.25z"/></symbol><symbol viewBox="0 0 15 13" id="we-sell-check" xmlns="http://www.w3.org/2000/svg"><path d="M2 6.033l3.667 4.034L13 2"/></symbol><symbol viewBox="0 0 21 15" id="yotube" xmlns="http://www.w3.org/2000/svg"><path d="M20.637 2.26a2.613 2.613 0 00-2.27-1.974c-2.604-.278-5.24-.28-7.863-.278-2.625-.001-5.26 0-7.865.278A2.612 2.612 0 00.37 2.26C.004 3.78 0 5.442 0 7.008c0 1.566 0 3.227.366 4.748a2.612 2.612 0 002.27 1.974c2.603.278 5.24.28 7.864.278 2.624.001 5.26 0 7.863-.278a2.613 2.613 0 002.27-1.974c.366-1.521.367-3.182.367-4.748 0-1.566.003-3.227-.363-4.748zM7.79 10.126V3.483l6.676 3.332-6.676 3.31z"/></symbol></svg>