<svg width="207" height="216" viewBox="0 0 207 216" fill="none" xmlns="http://www.w3.org/2000/svg">
<path fill-rule="evenodd" clip-rule="evenodd" d="M171.667 215.42C170.69 204.81 169.312 195.897 167.642 189.792C167.642 189.792 96.2499 176.01 93.0064 196.981C92.3755 201.078 91.558 207.556 90.6782 215.411H171.667V215.42Z" fill="url(#paint0_linear)"/>
<path d="M158.794 201.433C159.807 205.139 160.713 209.893 161.486 215.42H171.661C170.684 204.81 169.306 195.897 167.636 189.792C167.636 189.792 96.2437 176.01 93.0002 196.981C92.858 197.887 92.707 198.918 92.5559 200.047C112.15 192.431 158.794 201.433 158.794 201.433Z" fill="#A31225"/>
<path fill-rule="evenodd" clip-rule="evenodd" d="M78.2482 215.42C84.1842 199.869 90.6889 177.121 82.3003 168.012C74.6582 160.041 58.5208 161.499 58.2275 215.42H78.2482Z" fill="url(#paint1_linear)"/>
<path fill-rule="evenodd" clip-rule="evenodd" d="M82.5581 215.42C80.5409 208.053 77.8484 201.291 74.3383 195.186C49.2436 199.558 27.8811 195.186 27.8811 195.186C23.6957 200.935 19.9635 207.413 17.0754 215.42H82.5581Z" fill="url(#paint2_linear)"/>
<path fill-rule="evenodd" clip-rule="evenodd" d="M122.539 184.06C122.539 184.06 123.828 188.219 125.214 190.547C125.347 192.155 124.556 198.42 125.738 200.002C126.12 200.313 128.146 192.209 127.897 190.511C127.658 188.814 122.539 184.06 122.539 184.06Z" fill="url(#paint3_linear)"/>
<path d="M99.4507 30.7817V48.6963H103.574V28.5246C103.574 28.3557 103.592 28.1869 103.601 28.0181C102.205 28.9422 100.775 29.8931 99.4507 30.7817Z" fill="url(#paint4_linear)"/>
<path fill-rule="evenodd" clip-rule="evenodd" d="M110.71 34.7715H104.338C101.113 34.7715 98.4912 37.384 98.4912 40.6186V55.6541C98.4912 58.8798 101.104 61.5013 104.338 61.5013H110.71C113.935 61.5013 116.557 58.8887 116.557 55.6541V40.6097C116.557 37.384 113.944 34.7715 110.71 34.7715Z" fill="url(#paint5_linear)"/>
<path fill-rule="evenodd" clip-rule="evenodd" d="M144.151 62.0254L143.218 68.6279C143.218 68.6279 141.876 82.206 141.681 84.2676C141.503 86.0538 144.338 88.3997 148.932 89.8659C151.118 90.5591 148.025 93.8914 142.898 97.1704C132.572 103.773 128.991 146.311 124.344 145.183C114.195 142.721 111.929 86.3381 116.781 86.6936C118.159 86.7913 120.025 84.9874 121.846 83.3523C124.361 81.1041 125.339 70.0585 123.357 66.9484C121.384 63.8293 144.151 62.0254 144.151 62.0254Z" fill="#F4B5B0"/>
<path fill-rule="evenodd" clip-rule="evenodd" d="M130.535 8.81497C144.336 9.49921 155.07 21.3623 154.377 35.1626L153.24 57.9736C152.555 71.7828 140.692 82.5085 126.892 81.8242C113.092 81.1311 102.366 69.2769 103.05 55.4677L104.188 32.6567C104.872 18.8564 116.726 8.12184 130.535 8.81497Z" fill="url(#paint6_linear)"/>
<path fill-rule="evenodd" clip-rule="evenodd" d="M117.988 84.9077L93.5149 95.7578C93.5149 95.7578 93.5149 173.761 86.9302 203.53C95.1855 208.471 123.737 212.372 123.737 212.372L126.936 157.899C126.936 142.455 126.936 95.0025 126.936 95.0025C117.863 95.0025 117.988 84.9077 117.988 84.9077Z" fill="url(#paint7_linear)"/>
<path fill-rule="evenodd" clip-rule="evenodd" d="M145.072 84.9077L170.389 94.1494C170.389 94.1494 174.193 181.856 176.396 205.405C165.475 209.875 136.613 213.491 123.719 212.372L126.918 95.0025C140.034 95.0025 145.072 84.9077 145.072 84.9077Z" fill="url(#paint8_linear)"/>
<path fill-rule="evenodd" clip-rule="evenodd" d="M146.557 51.4871L147.392 47.2395C147.765 45.329 148.974 43.6939 150.689 42.7786C151.213 42.5032 151.835 42.8853 151.826 43.4807L151.586 51.3983C151.533 53.0067 150.973 54.5529 149.978 55.8059C149.169 56.8278 147.534 56.4279 147.286 55.1483L146.557 51.4871Z" fill="#F4B5B0"/>
<path fill-rule="evenodd" clip-rule="evenodd" d="M126.925 95.0026L130.027 102.565C130.027 102.565 141.454 98.4949 148.403 86.1253L142.769 82.7485C142.761 82.7485 138.264 90.3107 126.925 95.0026Z" fill="url(#paint9_linear)"/>
<path fill-rule="evenodd" clip-rule="evenodd" d="M121.453 101.65L126.927 95.0027C126.927 95.0027 120.804 89.6532 120.929 82.7397L116.104 85.7344C116.104 85.7433 116.957 96.1757 121.453 101.65Z" fill="url(#paint10_linear)"/>
<path d="M135.093 124.638H156.358V126.957H135.093V124.638Z" fill="#D9DCE2"/>
<path d="M128.731 105.799C128.065 105.799 127.522 105.257 127.522 104.59C127.522 103.924 128.065 103.382 128.731 103.382C129.397 103.382 129.94 103.924 129.94 104.59C129.948 105.257 129.406 105.799 128.731 105.799Z" fill="#D9DCE2"/>
<path d="M128.731 116.552C128.065 116.552 127.522 116.01 127.522 115.343C127.522 114.677 128.065 114.135 128.731 114.135C129.397 114.135 129.94 114.677 129.94 115.343C129.94 116.01 129.406 116.552 128.731 116.552Z" fill="#D9DCE2"/>
<path d="M128.731 127.295C128.065 127.295 127.522 126.753 127.522 126.086C127.522 125.42 128.065 124.878 128.731 124.878C129.397 124.878 129.94 125.42 129.94 126.086C129.94 126.753 129.406 127.295 128.731 127.295Z" fill="#D9DCE2"/>
<path d="M128.731 138.048C128.065 138.048 127.522 137.506 127.522 136.839C127.522 136.173 128.065 135.631 128.731 135.631C129.397 135.631 129.94 136.173 129.94 136.839C129.94 137.506 129.406 138.048 128.731 138.048Z" fill="#D9DCE2"/>
<path d="M128.731 148.791C128.065 148.791 127.522 148.249 127.522 147.583C127.522 146.916 128.065 146.374 128.731 146.374C129.397 146.374 129.94 146.916 129.94 147.583C129.94 148.249 129.406 148.791 128.731 148.791Z" fill="#D9DCE2"/>
<path d="M128.731 159.543C128.065 159.543 127.522 159.001 127.522 158.334C127.522 157.668 128.065 157.126 128.731 157.126C129.397 157.126 129.94 157.668 129.94 158.334C129.94 159.001 129.406 159.543 128.731 159.543Z" fill="#D9DCE2"/>
<path d="M128.731 170.287C128.065 170.287 127.522 169.745 127.522 169.079C127.522 168.412 128.065 167.87 128.731 167.87C129.397 167.87 129.94 168.412 129.94 169.079C129.94 169.745 129.406 170.287 128.731 170.287Z" fill="#D9DCE2"/>
<path d="M128.731 181.039C128.065 181.039 127.522 180.497 127.522 179.83C127.522 179.164 128.065 178.622 128.731 178.622C129.397 178.622 129.94 179.164 129.94 179.83C129.94 180.497 129.406 181.039 128.731 181.039Z" fill="#D9DCE2"/>
<path fill-rule="evenodd" clip-rule="evenodd" d="M95.3558 94.1497C82.3375 88.7291 57.2428 171.478 71.6029 186.513C85.7232 192.929 92.7255 169.069 99.4168 138.696C101.496 129.25 100.457 96.2735 95.3558 94.1497Z" fill="url(#paint11_linear)"/>
<path fill-rule="evenodd" clip-rule="evenodd" d="M168.957 94.1497C181.976 88.7291 207.07 171.478 192.71 186.513C178.59 192.929 171.588 169.069 164.896 138.696C162.808 129.25 163.857 96.2735 168.957 94.1497Z" fill="url(#paint12_linear)"/>
<path fill-rule="evenodd" clip-rule="evenodd" d="M152.083 64.052C152.19 64.0164 152.421 63.8654 152.732 63.6166C156.802 60.4264 159.299 55.6367 159.743 50.4827L160.916 37.0556C161.671 28.436 158.828 19.8785 153.052 13.4271L149.471 9.41943C149.471 9.41943 131.769 18.67 131.289 19.9141C130.818 21.1493 152.083 64.052 152.083 64.052Z" fill="#BC6862"/>
<path fill-rule="evenodd" clip-rule="evenodd" d="M117.852 27.512C112.982 26.5612 108.184 29.4403 106.726 34.1856L104.238 42.3076L103.403 34.541C102.781 28.8183 104.158 22.9534 107.686 18.4036C107.988 18.0127 108.299 17.6305 108.628 17.2662L113.329 11.9434L117.852 27.512Z" fill="#BC6862"/>
<path fill-rule="evenodd" clip-rule="evenodd" d="M109.938 25.3348C109.307 27.583 108.374 31.173 107.867 33.1014C107.716 33.6701 108.267 34.1766 108.827 33.99L124.84 28.5605C125.48 28.3472 126.057 29.0226 125.729 29.618C125.409 30.2133 125.986 30.8976 126.626 30.6754L132.038 28.756C138.942 26.3123 144.505 21.0872 147.375 14.3514L149.179 10.1127C149.215 10.0238 149.082 9.81054 148.859 9.52618C147.438 7.72228 145.385 6.53152 143.128 6.08721C138.383 5.14527 129.319 3.52798 125.355 4.03449C124.689 4.12335 124.005 4.20333 123.32 4.29219C113.474 5.57181 104.926 11.73 100.607 20.6695L95.1422 31.9817C94.8134 32.6659 95.5954 33.3413 96.2263 32.9236C99.5764 30.6843 105.77 26.5433 108.791 24.5261C109.387 24.144 110.124 24.6772 109.938 25.3348Z" fill="#BC6862"/>
<path fill-rule="evenodd" clip-rule="evenodd" d="M146.165 10.637L143.961 17.746C142.246 23.2821 142.531 29.2359 144.761 34.5854L149.764 46.5818L154.651 43.9426C156.073 43.1784 157.077 41.8099 157.38 40.2282C158.01 36.9403 159.032 31.5463 159.032 31.3242C159.032 30.9954 161.032 35.0208 161.032 34.692C161.032 34.5232 161.21 29.458 161.387 24.464C161.601 18.4036 158.268 12.7608 152.848 10.0594L152.741 10.0061C150.617 8.93086 148.058 9.17967 146.165 10.637Z" fill="#BC6862"/>
<path fill-rule="evenodd" clip-rule="evenodd" d="M150.211 51.0518L151.216 45.9244C151.669 43.6229 153.126 41.6501 155.197 40.5393C155.828 40.2017 156.583 40.6726 156.565 41.3835L156.272 50.9362C156.21 52.8734 155.534 54.7395 154.335 56.2502C153.357 57.4854 151.384 57.0055 151.082 55.4593L150.211 51.0518Z" fill="#F4B5B0"/>
<path fill-rule="evenodd" clip-rule="evenodd" d="M109.936 25.3345C109.305 27.5827 108.372 31.1727 107.866 33.1011C107.715 33.6698 108.266 34.1763 108.825 33.9897L124.838 28.5602C125.478 28.3469 126.056 29.0223 125.727 29.6177C125.407 30.213 125.985 30.8973 126.625 30.6751L132.036 28.7557C138.941 26.312 144.717 20.687 145.819 15.8085C132.534 -4.02561 104.933 11.7297 100.615 20.6692L95.1495 31.9814C94.8207 32.6656 95.6027 33.341 96.2336 32.9233C99.5837 30.684 105.777 26.543 108.799 24.5258C109.385 24.1437 110.123 24.6769 109.936 25.3345Z" fill="#BC6862"/>
<path d="M156.919 35.0117V32.1237C156.919 21.9579 152.414 12.4318 144.549 5.98043C139.84 2.12381 133.895 0 127.808 0C120.468 0 113.403 3.09241 108.418 8.47746L106.463 10.5924C103.806 13.4715 101.869 16.8661 100.705 20.5183C102.287 17.3992 106.623 13.5071 112.168 10.5657C116.318 6.46918 121.952 4.11433 127.799 4.11433C132.935 4.11433 137.956 5.90934 141.928 9.17059C148.833 14.8311 152.796 23.1931 152.796 32.1237V35.0117C148.806 35.9448 145.829 39.5171 145.829 43.7913V52.4554C145.829 57.4406 149.872 61.4838 154.858 61.4838C159.843 61.4838 163.886 57.4406 163.886 52.4554V43.7913C163.886 39.5171 160.909 35.9448 156.919 35.0117Z" fill="url(#paint13_linear)"/>
<path d="M154.28 47.7549L152.76 50.1364C148.788 56.3479 143.226 61.4663 136.774 65.0031C135.983 64.23 134.801 63.9012 133.682 64.2833L126.804 66.5848C125.213 67.118 124.351 68.8419 124.884 70.4414C125.418 72.0321 127.141 72.894 128.741 72.3609L135.619 70.0593C137.21 69.5261 138.072 67.8022 137.538 66.2027C137.538 66.1938 137.529 66.176 137.521 66.1672C144.132 62.5238 149.828 57.2631 153.916 50.8828L155.435 48.5013L154.28 47.7549Z" fill="#E7384C"/>
<path fill-rule="evenodd" clip-rule="evenodd" d="M35.3108 72.6451C35.3108 73.3382 34.8488 101.721 35.3108 102.067C35.7729 102.414 49.5021 108.226 49.9642 108.377C50.4263 108.528 90.5743 122.141 90.5743 122.141C90.5743 122.141 80.5329 88.9158 80.3107 88.4537C80.0797 87.9916 80.5417 71.8364 79.9641 71.8364C79.3865 71.8364 35.3108 72.6451 35.3108 72.6451Z" fill="#BC6862"/>
<path fill-rule="evenodd" clip-rule="evenodd" d="M92.0576 137.248C96.0386 148.036 100.144 190.317 94.839 192.52C78.5772 199.274 71.3616 165.186 69.531 154.621C70.0553 141.353 92.0576 137.248 92.0576 137.248Z" fill="#F8C7C4"/>
<path fill-rule="evenodd" clip-rule="evenodd" d="M99.5747 162.138C99.5836 168.572 91.0706 173.122 85.7299 173.122C79.1719 171.655 80.0072 165.959 71.1921 156.415C62.3769 146.872 72.3295 108.376 72.3295 108.376C72.3295 108.376 92.0747 112.482 99.5747 162.138Z" fill="url(#paint14_linear)"/>
<path fill-rule="evenodd" clip-rule="evenodd" d="M74.3366 195.195C65.0772 202.207 27.8794 195.195 27.8794 195.195C33.6288 185.278 16.976 138.99 19.0287 125.883C19.1265 125.252 20.5572 123.297 20.6549 122.693L27.1952 118.463L25.0003 114.651C25.0003 114.651 32.4825 108.359 47.6868 105.604C48.4955 105.462 49.2064 105.311 49.8462 105.169C55.0802 105.844 60.7318 106.911 67.3254 107.737C78.5309 108.377 89.2122 138.448 87.7459 149.28C86.3419 159.668 77.4557 180.373 74.3366 195.195Z" fill="#E6E8EF"/>
<path fill-rule="evenodd" clip-rule="evenodd" d="M6.16315 137.248C2.18212 148.036 -1.92332 190.317 3.38176 192.52C19.6436 199.274 26.8592 165.186 28.6897 154.621C28.1655 141.353 6.16315 137.248 6.16315 137.248Z" fill="#F8C7C4"/>
<path fill-rule="evenodd" clip-rule="evenodd" d="M50.5675 84.019L50.2743 89.5552C50.2743 89.5552 49.1991 100.85 49.0302 102.565C48.888 104.049 46.2044 105.515 42.2145 105.968C40.3217 106.19 42.3033 109.398 45.9645 112.89C53.3311 119.928 58.5385 115.707 62.5106 115.53C71.1836 115.139 73.2185 107.692 69.202 107.203C68.0645 107.061 66.5716 106.599 65.3453 104.973C63.6569 102.733 64.6167 93.5717 66.7316 91.3502C68.8554 89.1286 50.5675 84.019 50.5675 84.019Z" fill="#F4B5B0"/>
<path fill-rule="evenodd" clip-rule="evenodd" d="M62.5185 115.53C58.031 141.895 27.5245 101.249 45.1015 105.408C45.1015 105.408 48.4783 114.09 62.5185 115.53Z" fill="#F6F7FA"/>
<path fill-rule="evenodd" clip-rule="evenodd" d="M69.2435 107.221C69.2435 107.221 70.0788 113.628 62.5166 115.521C62.5166 115.521 65.3158 123.927 70.4076 122.763C75.4994 121.599 75.4372 105.986 69.2435 107.221Z" fill="#F6F7FA"/>
<path fill-rule="evenodd" clip-rule="evenodd" d="M57.9521 40.6896C46.48 41.4005 37.6826 51.3709 38.3935 62.843L39.5665 81.7973C40.2774 93.2694 50.2477 102.076 61.7199 101.356C73.192 100.645 81.9982 90.6746 81.2873 79.2025L80.1055 60.2482C79.3946 48.785 69.4242 39.9787 57.9521 40.6896Z" fill="#F8C7C4"/>
<path fill-rule="evenodd" clip-rule="evenodd" d="M29.9595 165.089C38.6058 154.719 44.8617 120.329 28.9375 112.411C22.2373 109.603 5.4779 122.826 1.29248 160.637C4.34046 167.675 19.2516 173.628 23.0193 172.882C25.5341 171.487 29.9595 165.089 29.9595 165.089Z" fill="url(#paint15_linear)"/>
<path fill-rule="evenodd" clip-rule="evenodd" d="M51.9341 56.2317L51.0544 59.022C50.7167 60.0972 50.2369 61.128 49.6237 62.07L49.2327 62.6743C47.2244 65.7933 46.1581 69.4189 46.1581 73.1245V114.792L35.6901 104.315C33.8062 102.431 32.651 99.9431 32.4289 97.295C31.8868 90.8258 30.8116 77.923 30.0562 68.7613C29.5053 62.0789 31.1937 55.4053 34.8637 49.7892L38.8803 43.6488C40.9419 40.4942 44.6119 38.7614 48.3619 39.1879L52.0052 51.8953C52.4051 53.3171 52.3785 54.8277 51.9341 56.2317Z" fill="#BC6862"/>
<path fill-rule="evenodd" clip-rule="evenodd" d="M90.5738 122.141L85.4376 116.721C80.3635 111.362 77.5377 104.271 77.5377 96.8867V79.9318C77.5377 78.0834 77.36 76.2351 77.0045 74.4134L75.9737 69.1172C74.8096 63.1101 70.251 58.3382 64.3061 56.8987L55.9175 54.8726C53.8737 54.375 52.2564 52.8288 51.6788 50.8027L48.3464 39.1884C51.1189 37.1623 54.4691 36.0693 57.8991 36.0693H58.9833C64.2261 36.0693 69.3624 37.6333 73.7166 40.5569C78.9862 44.0936 83.0738 49.1321 85.4642 55.0237C87.0637 58.9692 87.8813 63.1812 87.8813 67.4288V99.8547C87.8813 105.231 88.3878 110.598 89.3919 115.885L90.5738 122.141Z" fill="#BC6862"/>
<path d="M60.9832 33.4745C52.719 33.4123 37.7635 40.1214 34.7688 64.6741H34.4578C30.5123 65.5627 27.5532 69.0639 27.5266 73.2849L27.4643 81.8245C27.4288 86.7386 31.3832 90.7552 36.2973 90.7907C41.2113 90.8263 45.2279 86.8719 45.2635 81.9578L45.3257 73.4182C45.3523 69.3127 42.5887 65.8649 38.821 64.8074C42.1266 37.7666 60.1124 37.5356 60.9477 37.5444C64.2622 37.5711 68.8475 38.5664 72.9796 41.2411C78.8623 43.9514 83.963 51.1048 85.9713 56.17C86.3801 57.2008 86.7266 58.2405 87.0288 59.3068C85.6336 39.1173 69.6562 33.5368 60.9832 33.4745Z" fill="url(#paint16_linear)"/>
<path d="M36.9723 77.2568L38.4563 79.6117C42.3307 85.761 47.7779 90.8528 54.1049 94.3806C54.8869 93.6253 56.051 93.3143 57.1618 93.6875L63.9242 96.0068C65.4882 96.5488 66.3235 98.255 65.7903 99.819C65.2482 101.383 63.5421 102.218 61.9781 101.685L55.2157 99.3658C53.6517 98.8237 52.8164 97.1176 53.3496 95.5536C53.3496 95.5447 53.3585 95.5269 53.3673 95.518C46.8715 91.8836 41.291 86.6496 37.3099 80.3315L35.8259 77.9766L36.9723 77.2568Z" fill="#E7384C"/>
<path fill-rule="evenodd" clip-rule="evenodd" d="M24.3285 215.42C21.2094 180.177 16.553 177.369 4.15674 184.781C1.76634 186.211 0.966582 199.256 5.82735 215.42H24.3285Z" fill="#F8C7C4"/>
<path fill-rule="evenodd" clip-rule="evenodd" d="M92.5372 215.42C98.722 199.132 98.7486 185.554 96.4027 183.954C84.2285 175.654 79.4655 178.436 74.1338 215.42H92.5372Z" fill="#F8C7C4"/>
<path fill-rule="evenodd" clip-rule="evenodd" d="M206.075 215.42C205.791 161.498 189.654 160.032 182.003 168.012C173.614 177.129 180.119 199.878 186.055 215.42H206.075Z" fill="url(#paint17_linear)"/>
<defs>
<linearGradient id="paint0_linear" x1="161.246" y1="200.389" x2="109.066" y2="200.389" gradientUnits="userSpaceOnUse">
<stop stop-color="#A31225"/>
<stop offset="0.4167" stop-color="#E6384C"/>
<stop offset="1" stop-color="#CC1F38"/>
</linearGradient>
<linearGradient id="paint1_linear" x1="81.4397" y1="187.568" x2="59.1955" y2="196.924" gradientUnits="userSpaceOnUse">
<stop stop-color="#F6F7FA"/>
<stop offset="1" stop-color="#B2BCC9"/>
</linearGradient>
<linearGradient id="paint2_linear" x1="17.0715" y1="205.309" x2="82.556" y2="205.309" gradientUnits="userSpaceOnUse">
<stop stop-color="#E6384C"/>
<stop offset="1" stop-color="#CC1F38"/>
</linearGradient>
<linearGradient id="paint3_linear" x1="125.231" y1="186.496" x2="125.194" y2="197.547" gradientUnits="userSpaceOnUse">
<stop stop-color="#F8C7C4"/>
<stop offset="1" stop-color="#F4B5B0"/>
</linearGradient>
<linearGradient id="paint4_linear" x1="99.448" y1="38.3521" x2="103.59" y2="38.3521" gradientUnits="userSpaceOnUse">
<stop stop-color="#E6384C"/>
<stop offset="1" stop-color="#CC1F38"/>
</linearGradient>
<linearGradient id="paint5_linear" x1="112.296" y1="54.1436" x2="102.344" y2="41.5841" gradientUnits="userSpaceOnUse">
<stop stop-color="#E6384C"/>
<stop offset="1" stop-color="#CC1F38"/>
</linearGradient>
<linearGradient id="paint6_linear" x1="110.914" y1="45.316" x2="145.384" y2="45.316" gradientUnits="userSpaceOnUse">
<stop stop-color="#F8C7C4"/>
<stop offset="1" stop-color="#F4B5B0"/>
</linearGradient>
<linearGradient id="paint7_linear" x1="106.925" y1="120.928" x2="106.925" y2="187.821" gradientUnits="userSpaceOnUse">
<stop stop-color="#F6F7FA"/>
<stop offset="1" stop-color="#B2BCC9"/>
</linearGradient>
<linearGradient id="paint8_linear" x1="150.062" y1="123.419" x2="150.062" y2="194.135" gradientUnits="userSpaceOnUse">
<stop stop-color="#F6F7FA"/>
<stop offset="1" stop-color="#B2BCC9"/>
</linearGradient>
<linearGradient id="paint9_linear" x1="137.662" y1="88.3469" x2="137.662" y2="98.7474" gradientUnits="userSpaceOnUse">
<stop stop-color="#F6F7FA"/>
<stop offset="1" stop-color="#B2BCC9"/>
</linearGradient>
<linearGradient id="paint10_linear" x1="121.518" y1="88.0892" x2="121.518" y2="98.0108" gradientUnits="userSpaceOnUse">
<stop stop-color="#F6F7FA"/>
<stop offset="1" stop-color="#B2BCC9"/>
</linearGradient>
<linearGradient id="paint11_linear" x1="100.383" y1="122.577" x2="68.7331" y2="162.514" gradientUnits="userSpaceOnUse">
<stop stop-color="#F6F7FA"/>
<stop offset="1" stop-color="#B2BCC9"/>
</linearGradient>
<linearGradient id="paint12_linear" x1="163.924" y1="122.569" x2="195.572" y2="162.506" gradientUnits="userSpaceOnUse">
<stop stop-color="#F6F7FA"/>
<stop offset="1" stop-color="#B2BCC9"/>
</linearGradient>
<linearGradient id="paint13_linear" x1="131.572" y1="56.1054" x2="132.948" y2="19.159" gradientUnits="userSpaceOnUse">
<stop stop-color="#E6384C"/>
<stop offset="1" stop-color="#CC1F38"/>
</linearGradient>
<linearGradient id="paint14_linear" x1="99.5751" y1="140.751" x2="67.5455" y2="140.751" gradientUnits="userSpaceOnUse">
<stop stop-color="#F6F7FA"/>
<stop offset="1" stop-color="#B2BCC9"/>
</linearGradient>
<linearGradient id="paint15_linear" x1="40.6878" y1="139.15" x2="-1.3462" y2="147.851" gradientUnits="userSpaceOnUse">
<stop stop-color="#F6F7FA"/>
<stop offset="1" stop-color="#B2BCC9"/>
</linearGradient>
<linearGradient id="paint16_linear" x1="27.6104" y1="61.9825" x2="87.0102" y2="62.4095" gradientUnits="userSpaceOnUse">
<stop stop-color="#E6384C"/>
<stop offset="1" stop-color="#CC1F38"/>
</linearGradient>
<linearGradient id="paint17_linear" x1="165.235" y1="180.152" x2="187.479" y2="189.509" gradientUnits="userSpaceOnUse">
<stop stop-color="#F6F7FA"/>
<stop offset="1" stop-color="#B2BCC9"/>
</linearGradient>
</defs>
</svg>
