<svg width="71" height="81" viewBox="0 0 71 81" fill="none" xmlns="http://www.w3.org/2000/svg">
<path d="M31.4992 20.0349C34.9227 20.0349 38.2259 20.4988 41.3742 21.3578C43.4214 19.2274 44.6773 16.341 44.6773 13.1626C44.6773 6.59948 39.3441 1.27344 32.7722 1.27344C26.2004 1.27344 20.8672 6.59948 20.8672 13.1626C20.8672 16.1005 21.9338 18.7979 23.7058 20.8596C26.2004 20.327 28.8154 20.0349 31.4992 20.0349Z" fill="#FF0400"/>
<path d="M53.8477 39.0018H53.7445C52.8671 39.0018 52.1445 38.2974 52.1445 37.404V37.3009C52.1445 36.4247 52.8499 35.7031 53.7445 35.7031H53.8477C54.7251 35.7031 55.4477 36.4075 55.4477 37.3009V37.404C55.4305 38.2802 54.7251 39.0018 53.8477 39.0018Z" fill="#0E0E0E"/>
<path d="M22.0553 80.131L14.1244 80.0795C13.7287 80.0795 13.3502 79.8905 13.1265 79.564L12.3524 78.516C7.1396 71.4547 0 61.7991 0 50.4426V47.6765C0 38.3473 3.99129 30.238 11.2341 24.8776C19.8188 18.5207 31.7927 16.7682 43.3709 20.1528C45.2805 19.3969 46.5536 18.8986 47.1557 18.6925L47.7923 18.4691C49.7191 17.7819 52.1104 16.9229 53.934 18.1083C55.706 19.2595 55.4996 21.7335 55.1039 23.022L54.433 26.0974C57.8565 29.0181 60.6091 32.6948 62.3983 36.801C63.4478 39.1204 64.8413 39.1376 65.8563 39.1376C66.0455 39.1376 66.2004 39.1376 66.338 39.1548C66.51 39.172 66.5101 39.172 67.6799 39.172H69.1078C69.796 39.172 70.3637 39.7389 70.3637 40.4262V48.3122C70.3637 48.9307 69.9164 49.4461 69.3143 49.5492C69.2971 49.5492 66.2864 50.099 64.9101 52.2809C64.5144 52.9166 64.0499 54.8065 63.6198 56.6277C63.3962 57.5383 63.1725 58.5004 62.9144 59.4625C60.2134 67.9842 53.8136 72.7776 51.7664 74.1349V78.9112C51.7664 79.5984 51.1986 80.1654 50.5105 80.1654H43.9386C43.5773 80.1654 43.2333 80.0107 42.9924 79.7358L39.0699 75.2688C34.5281 75.9217 28.0423 75.9561 23.294 75.3719V78.9112C23.294 79.2376 23.1564 79.564 22.9327 79.8046C22.7091 80.0107 22.3994 80.131 22.0553 80.131ZM44.5063 77.6398H49.2546V73.4305C49.2546 72.9838 49.4955 72.5715 49.8739 72.3481C49.9428 72.2966 57.6501 67.7265 60.4887 58.7409C60.7296 57.8475 60.9532 56.9026 61.1597 56.0263C61.7102 53.7241 62.1575 51.903 62.7768 50.9237C64.1531 48.7417 66.4929 47.7452 67.852 47.3157V41.646H67.6799C66.338 41.646 66.338 41.646 66.166 41.6288C66.0628 41.6288 65.9767 41.6288 65.8735 41.6288H65.8563C64.7553 41.6288 61.8134 41.6288 60.1102 37.8147C58.3554 33.8288 55.6544 30.2895 52.2653 27.5578C51.904 27.2657 51.732 26.7846 51.8352 26.3208L52.6954 22.3863C52.9018 21.7335 53.0394 20.5136 52.5749 20.2216C51.8008 19.7233 50.0632 20.3418 48.6525 20.8401L47.9987 21.0806C47.3966 21.2868 45.9859 21.8366 43.9214 22.6613C43.6634 22.7643 43.3709 22.7815 43.0956 22.6956C32.154 19.3797 20.8166 20.9432 12.7653 26.9049C6.17618 31.7842 2.54617 39.172 2.54617 47.6937V50.4598C2.54617 60.9916 9.3933 70.2692 14.3996 77.0556L14.7953 77.6054L20.8166 77.6398V73.9287C20.8166 73.5679 20.9715 73.2071 21.264 72.9666C21.5392 72.7261 21.9177 72.623 22.279 72.6917C26.9928 73.482 34.6657 73.4649 39.3796 72.6917C39.8097 72.623 40.2398 72.7776 40.5322 73.1041L44.5063 77.6398Z" fill="#0E0E0E"/>
<path d="M9.58096 59.7363C4.29938 59.7363 0.015625 55.2693 0.015625 49.7886C0.015625 49.1014 0.583352 48.5344 1.27151 48.5344C1.95966 48.5344 2.52739 49.1014 2.52739 49.7886C2.52739 53.9636 5.62408 57.2279 9.58096 57.2279C12.6088 57.2279 15.069 54.668 15.069 51.5239C15.069 49.153 13.211 47.2115 10.9401 47.2115C9.20248 47.2115 7.87778 48.2939 7.87778 49.7371C7.87778 50.4243 7.31005 50.9913 6.6219 50.9913C5.93375 50.9913 5.36602 50.4243 5.36602 49.7371C5.36602 46.9195 7.80897 44.7031 10.9229 44.7031C14.5873 44.7031 17.5635 47.7613 17.5635 51.5239C17.5635 56.0596 13.9851 59.7363 9.58096 59.7363Z" fill="#0E0E0E"/>
<path d="M23.3472 27.869C22.8138 27.869 22.3321 27.5426 22.1601 27.01C21.9364 26.3571 22.2977 25.6527 22.9515 25.4293C28.9212 23.4535 35.7855 23.4535 42.2542 25.4122C42.9251 25.6183 43.2864 26.3056 43.0972 26.9756C42.8907 27.6457 42.2026 28.0065 41.5316 27.8175C35.5619 25.9963 29.2309 25.9963 23.7428 27.8003C23.6224 27.8519 23.4848 27.869 23.3472 27.869Z" fill="#0E0E0E"/>
<path d="M42.7158 21.6477L40.8062 20.0327C42.4405 18.1085 43.3351 15.6688 43.3351 13.1433C43.3351 7.26746 38.5525 2.49121 32.6688 2.49121C26.785 2.49121 22.0024 7.26746 22.0024 13.1433C22.0024 15.6517 22.897 18.0913 24.5141 19.9984L22.6045 21.6134C20.6089 19.2424 19.5078 16.2358 19.5078 13.1433C19.5078 5.893 25.4087 0 32.6688 0C39.9288 0 45.8297 5.893 45.8297 13.1433C45.8469 16.253 44.7458 19.2768 42.7158 21.6477Z" fill="#0E0E0E"/>
</svg>
