<svg width="23" height="19" viewBox="0 0 23 19" fill="none" xmlns="http://www.w3.org/2000/svg">
<path d="M20.7013 1.75312C19.5765 0.62839 18.0875 0.0136607 16.4983 0.0136607C14.9091 0.0136607 13.4156 0.632944 12.2908 1.75767L11.7034 2.34508L11.1069 1.74856C9.9822 0.623837 8.48408 0 6.89489 0C5.31025 0 3.81669 0.619283 2.69651 1.73946C1.57179 2.86419 0.952503 4.35775 0.957056 5.94694C0.957056 7.53613 1.58089 9.02514 2.70562 10.1499L11.2572 18.7014C11.3756 18.8198 11.535 18.8836 11.6898 18.8836C11.8446 18.8836 12.004 18.8244 12.1224 18.706L20.6922 10.1681C21.8169 9.04336 22.4362 7.54979 22.4362 5.9606C22.4407 4.37141 21.826 2.87785 20.7013 1.75312ZM19.827 9.29836L11.6898 17.4037L3.5708 9.2847C2.6783 8.3922 2.18652 7.20828 2.18652 5.94694C2.18652 4.68561 2.67375 3.50168 3.56624 2.61374C4.45418 1.7258 5.63811 1.23401 6.89489 1.23401C8.15622 1.23401 9.3447 1.7258 10.2372 2.61829L11.2663 3.6474C11.5076 3.88873 11.8947 3.88873 12.136 3.6474L13.156 2.6274C14.0485 1.7349 15.237 1.24312 16.4938 1.24312C17.7506 1.24312 18.9345 1.7349 19.827 2.62285C20.7195 3.51534 21.2067 4.69927 21.2067 5.9606C21.2113 7.22194 20.7195 8.40586 19.827 9.29836Z" fill="#FF0400"/>
<path d="M19.827 9.29836L11.6898 17.4037L3.5708 9.2847C2.6783 8.3922 2.18652 7.20828 2.18652 5.94694C2.18652 4.68561 2.67375 3.50168 3.56624 2.61374C4.45418 1.7258 5.63811 1.23401 6.89489 1.23401C8.15622 1.23401 9.3447 1.7258 10.2372 2.61829L11.2663 3.6474C11.5076 3.88873 11.8947 3.88873 12.136 3.6474L13.156 2.6274C14.0485 1.7349 15.237 1.24312 16.4938 1.24312C17.7506 1.24312 18.9345 1.7349 19.827 2.62285C20.7195 3.51534 21.2067 4.69927 21.2067 5.9606C21.2113 7.22194 20.7195 8.40586 19.827 9.29836Z" fill="#FF0400"/>
</svg>
