<svg width="445" height="258" viewBox="0 0 445 258" fill="none" xmlns="http://www.w3.org/2000/svg">
<path fill-rule="evenodd" clip-rule="evenodd" d="M51.8041 258.337H77.0346C77.0346 258.331 77.0379 258.321 77.0368 258.317C76.8902 257.342 84.431 202.873 84.431 202.873C84.431 202.873 92.1526 249.59 93.935 258.337H120.602C121.031 257.602 121.341 256.79 121.483 255.879C123.191 244.914 116.612 175.996 113.931 158.671C111.25 141.345 52.277 152.731 52.277 152.731C47.3067 170.868 45.4537 219.082 51.0589 254.418C51.2838 255.831 51.534 257.128 51.8041 258.337Z" fill="url(#paint0_linear)"/>
<path d="M84.1316 202.073C86.1543 214.025 92.6357 251.517 93.9486 258.338H99.4875C95.8985 237.863 86.7032 183.375 86.7032 183.375C86.7032 183.375 85.537 191.795 84.1316 202.073Z" fill="#A31225"/>
<path d="M51.8038 258.337H57.5501C52.9733 223.691 54.8803 179.524 59.5882 162.343C59.5882 162.343 98.118 154.905 114.304 161.206C114.175 160.273 114.051 159.42 113.935 158.671C111.254 141.345 52.2811 152.731 52.2811 152.731C47.3108 170.868 45.4579 219.082 51.0631 254.418C51.2868 255.828 51.5348 257.13 51.8038 258.337Z" fill="#A31225"/>
<path fill-rule="evenodd" clip-rule="evenodd" d="M324.067 258.337H350.733C352.516 249.589 360.237 202.872 360.237 202.872C360.237 202.872 367.778 257.341 367.632 258.316C367.63 258.32 367.634 258.331 367.634 258.337H392.864C393.134 257.127 393.385 255.83 393.609 254.416C399.215 219.08 397.362 170.867 392.391 152.729C392.391 152.729 333.418 141.343 330.738 158.669C328.057 175.995 321.477 244.912 323.186 255.877C323.327 256.789 323.638 257.601 324.067 258.337Z" fill="url(#paint1_linear)"/>
<path d="M385.083 162.344C389.791 179.526 391.698 223.692 387.121 258.339H392.867C393.136 257.132 393.384 255.829 393.608 254.418C399.213 219.082 397.36 170.869 392.39 152.731C392.39 152.731 333.417 141.345 330.736 158.671C330.62 159.42 330.497 160.273 330.367 161.206C346.553 154.907 385.083 162.344 385.083 162.344Z" fill="#A31225"/>
<path d="M345.185 258.338H350.724C352.036 251.517 358.518 214.025 360.541 202.073C359.135 191.795 357.969 183.375 357.969 183.375C357.969 183.375 348.774 237.863 345.185 258.338Z" fill="#A31225"/>
<path fill-rule="evenodd" clip-rule="evenodd" d="M218.6 52.8691L219.353 58.1822C219.353 58.1822 220.43 69.1115 220.593 70.7727C220.735 72.2101 218.454 74.0983 214.752 75.2778C212.99 75.8388 215.478 78.5196 219.606 81.1585C227.917 86.4727 230.804 120.719 234.541 119.812C242.71 117.828 244.537 72.4394 240.628 72.7237C239.522 72.8042 238.015 71.3481 236.547 70.0352C234.526 68.2231 233.734 59.3341 235.33 56.8319C236.93 54.3264 218.6 52.8691 218.6 52.8691Z" fill="#F4B5B0"/>
<path fill-rule="evenodd" clip-rule="evenodd" d="M229.56 10.0291C218.447 10.5824 209.808 20.1283 210.362 31.2417L211.275 49.606C211.83 60.7205 221.374 69.3603 232.488 68.807C243.603 68.2536 252.242 58.7077 251.69 47.5932L250.775 29.23C250.222 18.1144 240.676 9.47572 229.56 10.0291Z" fill="url(#paint2_linear)"/>
<path fill-rule="evenodd" clip-rule="evenodd" d="M211.709 52.8689L210.599 51.7589C206.734 47.8943 204.347 42.7961 203.855 37.3519C203.766 36.3708 203.677 35.3799 203.591 34.4286C203.218 30.2718 203.708 26.0842 205.027 22.1247C206.723 17.0398 210.386 12.8467 215.198 10.4845C215.751 10.2133 216.308 9.93992 216.862 9.67096C221.383 7.46526 226.41 6.50074 231.425 6.88214L236.059 7.23488C242.102 7.69454 247.689 10.6244 251.502 15.3335L251.563 15.4084C254.404 18.9148 255.898 23.3196 255.779 27.8313L255.777 27.8964C255.707 30.586 255.12 33.237 254.05 35.7051L251.404 41.8063L249.593 39.4187L247.773 26.1834C247.245 22.3408 244.5 19.1728 240.771 18.1046C240.488 18.0242 240.205 17.9426 239.921 17.8621C235.644 16.6441 231.122 16.5725 226.807 17.6472C221.413 18.9898 217.38 23.4795 216.618 28.9854L215.176 39.4198L211.583 38.9976L211.709 52.8689Z" fill="#BC6862"/>
<path fill-rule="evenodd" clip-rule="evenodd" d="M199.155 258.338H223.836C224.203 253.915 231.029 204.611 231.029 204.611C231.029 204.611 238.371 249.033 240.225 258.338H266.468C266.789 257.71 267.025 257.027 267.142 256.275C268.808 245.587 262.395 178.416 259.782 161.529C257.17 144.643 199.69 155.74 199.69 155.74C194.846 173.417 193.04 220.41 198.503 254.849C198.701 256.098 198.92 257.254 199.155 258.338Z" fill="url(#paint3_linear)"/>
<path fill-rule="evenodd" clip-rule="evenodd" d="M260.142 164C260.015 163.09 259.895 162.26 259.782 161.529C257.17 144.643 199.69 155.74 199.69 155.74C194.846 173.417 193.04 220.41 198.503 254.85C198.702 256.1 198.922 257.252 199.157 258.338H204.781C200.376 224.62 202.238 181.799 206.812 165.108C206.811 165.109 244.366 157.86 260.142 164ZM230.735 203.831C232.677 215.309 238.835 250.935 240.24 258.339H245.643C242.105 238.133 233.24 185.606 233.24 185.606C233.24 185.606 232.105 193.814 230.735 203.831Z" fill="#A31225"/>
<path fill-rule="evenodd" clip-rule="evenodd" d="M285.919 182.215C288.438 186.594 293.857 198.192 294.091 201.156C294.324 204.12 285.696 204.913 285.715 204.026C284.289 202.175 278.542 182.388 278.542 182.388L285.919 182.215Z" fill="#F8C7C4"/>
<path fill-rule="evenodd" clip-rule="evenodd" d="M287.466 193.578C287.466 193.578 289.061 198.736 290.789 201.622C290.953 203.615 289.976 211.391 291.438 213.355C291.908 213.746 294.419 203.689 294.117 201.585C293.815 199.479 287.466 193.578 287.466 193.578Z" fill="url(#paint4_linear)"/>
<path fill-rule="evenodd" clip-rule="evenodd" d="M285.72 196.201C285.72 196.201 287.315 201.359 289.044 204.245C289.207 206.238 288.23 214.014 289.692 215.978C290.163 216.368 292.674 206.311 292.372 204.207C292.07 202.103 291.167 197.953 291.167 197.953L285.72 196.201Z" fill="url(#paint5_linear)"/>
<path fill-rule="evenodd" clip-rule="evenodd" d="M283.872 197.566C283.872 197.566 285.467 202.724 287.196 205.61C287.359 207.603 286.382 215.379 287.844 217.344C288.315 217.734 290.826 207.677 290.524 205.573C290.222 203.468 289.319 199.319 289.319 199.319L283.872 197.566Z" fill="url(#paint6_linear)"/>
<path fill-rule="evenodd" clip-rule="evenodd" d="M282.387 195.981C282.387 195.981 283.982 201.139 285.711 204.025C285.874 206.018 284.897 213.794 286.359 215.758C286.829 216.149 289.341 206.092 289.039 203.987C288.737 201.883 287.834 197.734 287.834 197.734L282.387 195.981Z" fill="url(#paint7_linear)"/>
<path fill-rule="evenodd" clip-rule="evenodd" d="M277.723 184.599C276.891 190.965 281.581 199.724 281.817 201.259C282.053 202.795 283.572 202.405 283.792 201.422C284.013 200.439 284.187 198.489 283.701 196.304C283.215 194.119 281.621 181.479 281.621 181.479L277.723 184.599Z" fill="url(#paint8_linear)"/>
<path fill-rule="evenodd" clip-rule="evenodd" d="M239.665 71.2915L259.371 80.0239C259.371 80.0239 259.371 142.825 264.675 166.794C258.026 170.772 235.045 173.913 235.045 173.913L232.466 130.061C232.466 117.623 232.466 79.4221 232.466 79.4221C239.767 79.421 239.665 71.2915 239.665 71.2915Z" fill="url(#paint9_linear)"/>
<path fill-rule="evenodd" clip-rule="evenodd" d="M217.857 71.2915L197.477 78.7342C197.477 78.7342 194.413 149.345 192.638 168.302C201.433 171.902 224.664 174.814 235.047 173.912L232.468 79.421C221.916 79.421 217.857 71.2915 217.857 71.2915Z" fill="url(#paint10_linear)"/>
<path fill-rule="evenodd" clip-rule="evenodd" d="M215.176 46.5001L214.391 42.4874C214.038 40.6872 212.896 39.1406 211.279 38.2741C210.786 38.0106 210.193 38.3777 210.209 38.9366L210.435 46.4086C210.482 47.9233 211.014 49.3817 211.954 50.569C212.718 51.5336 214.263 51.1588 214.499 49.9506L215.176 46.5001Z" fill="#F4B5B0"/>
<path fill-rule="evenodd" clip-rule="evenodd" d="M232.472 79.4223L229.977 85.5082C229.977 85.5082 220.776 82.2321 215.181 72.2705L219.72 69.5522C219.72 69.5533 223.342 75.6458 232.472 79.4223Z" fill="url(#paint11_linear)"/>
<path fill-rule="evenodd" clip-rule="evenodd" d="M236.873 84.7736L232.466 79.422C232.466 79.422 237.398 75.1165 237.293 69.5522L241.179 71.9629C241.179 71.9629 240.491 80.3645 236.873 84.7736Z" fill="url(#paint12_linear)"/>
<path d="M225.896 103.282H208.775V105.146H225.896V103.282Z" fill="#D9DCE2"/>
<path d="M231.018 88.1142C231.557 88.1142 231.993 87.6774 231.993 87.1387C231.993 86.5999 231.557 86.1631 231.018 86.1631C230.479 86.1631 230.042 86.5999 230.042 87.1387C230.042 87.6774 230.479 88.1142 231.018 88.1142Z" fill="#D9DCE2"/>
<path d="M231.018 96.7675C231.557 96.7675 231.993 96.3308 231.993 95.792C231.993 95.2532 231.557 94.8164 231.018 94.8164C230.479 94.8164 230.042 95.2532 230.042 95.792C230.042 96.3308 230.479 96.7675 231.018 96.7675Z" fill="#D9DCE2"/>
<path d="M231.018 105.421C231.557 105.421 231.993 104.984 231.993 104.445C231.993 103.907 231.557 103.47 231.018 103.47C230.479 103.47 230.042 103.907 230.042 104.445C230.042 104.984 230.479 105.421 231.018 105.421Z" fill="#D9DCE2"/>
<path d="M231.018 114.074C231.557 114.074 231.993 113.637 231.993 113.099C231.993 112.56 231.557 112.123 231.018 112.123C230.479 112.123 230.042 112.56 230.042 113.099C230.042 113.637 230.479 114.074 231.018 114.074Z" fill="#D9DCE2"/>
<path d="M231.018 122.727C231.557 122.727 231.993 122.29 231.993 121.751C231.993 121.213 231.557 120.776 231.018 120.776C230.479 120.776 230.042 121.213 230.042 121.751C230.042 122.29 230.479 122.727 231.018 122.727Z" fill="#D9DCE2"/>
<path d="M231.018 131.38C231.557 131.38 231.993 130.944 231.993 130.405C231.993 129.866 231.557 129.429 231.018 129.429C230.479 129.429 230.042 129.866 230.042 130.405C230.042 130.944 230.479 131.38 231.018 131.38Z" fill="#D9DCE2"/>
<path d="M231.018 140.034C231.557 140.034 231.993 139.597 231.993 139.058C231.993 138.519 231.557 138.083 231.018 138.083C230.479 138.083 230.042 138.519 230.042 139.058C230.042 139.597 230.479 140.034 231.018 140.034Z" fill="#D9DCE2"/>
<path d="M231.018 148.687C231.557 148.687 231.993 148.25 231.993 147.711C231.993 147.173 231.557 146.736 231.018 146.736C230.479 146.736 230.042 147.173 230.042 147.711C230.042 148.25 230.479 148.687 231.018 148.687Z" fill="#D9DCE2"/>
<path fill-rule="evenodd" clip-rule="evenodd" d="M257.89 78.7348C268.372 74.3709 288.574 140.991 277.011 153.098C265.647 158.261 260.006 139.056 254.617 114.601C252.941 106.992 253.783 80.4456 257.89 78.7348Z" fill="url(#paint13_linear)"/>
<path fill-rule="evenodd" clip-rule="evenodd" d="M277.091 189.025C277.091 189.025 257.697 149.825 268.395 138.198C274.92 131.393 289.135 133.114 287.675 184.672C281.934 185.128 277.091 189.025 277.091 189.025Z" fill="url(#paint14_linear)"/>
<path d="M277.679 185.878C278.218 185.878 278.655 185.441 278.655 184.902C278.655 184.364 278.218 183.927 277.679 183.927C277.14 183.927 276.704 184.364 276.704 184.902C276.704 185.441 277.14 185.878 277.679 185.878Z" fill="#D9DCE2"/>
<path fill-rule="evenodd" clip-rule="evenodd" d="M170.604 182.217C168.084 186.596 162.665 198.194 162.432 201.158C162.199 204.122 170.827 204.915 170.808 204.027C172.234 202.177 177.981 182.39 177.981 182.39L170.604 182.217Z" fill="#F8C7C4"/>
<path fill-rule="evenodd" clip-rule="evenodd" d="M169.061 193.578C169.061 193.578 167.466 198.736 165.737 201.622C165.574 203.615 166.551 211.391 165.089 213.355C164.619 213.746 162.107 203.689 162.409 201.585C162.711 199.479 169.061 193.578 169.061 193.578Z" fill="url(#paint15_linear)"/>
<path fill-rule="evenodd" clip-rule="evenodd" d="M170.798 196.201C170.798 196.201 169.203 201.359 167.474 204.245C167.311 206.238 168.288 214.014 166.826 215.978C166.356 216.368 163.844 206.311 164.146 204.207C164.449 202.103 165.351 197.953 165.351 197.953L170.798 196.201Z" fill="url(#paint16_linear)"/>
<path fill-rule="evenodd" clip-rule="evenodd" d="M172.646 197.566C172.646 197.566 171.051 202.724 169.322 205.61C169.159 207.603 170.136 215.379 168.674 217.344C168.203 217.734 165.692 207.677 165.994 205.573C166.296 203.468 167.199 199.319 167.199 199.319L172.646 197.566Z" fill="url(#paint17_linear)"/>
<path fill-rule="evenodd" clip-rule="evenodd" d="M174.131 195.981C174.131 195.981 172.536 201.139 170.808 204.025C170.645 206.018 171.621 213.794 170.16 215.758C169.689 216.149 167.178 206.092 167.48 203.987C167.782 201.883 168.685 197.734 168.685 197.734L174.131 195.981Z" fill="url(#paint18_linear)"/>
<path fill-rule="evenodd" clip-rule="evenodd" d="M178.797 184.599C179.63 190.965 174.939 199.724 174.703 201.259C174.467 202.795 172.948 202.405 172.728 201.422C172.507 200.439 172.333 198.489 172.819 196.304C173.306 194.119 174.9 181.479 174.9 181.479L178.797 184.599Z" fill="url(#paint19_linear)"/>
<path fill-rule="evenodd" clip-rule="evenodd" d="M198.628 78.7372C188.146 74.3733 167.943 140.993 179.506 153.101C190.871 158.264 196.511 139.059 201.9 114.603C203.578 106.994 202.736 80.448 198.628 78.7372Z" fill="url(#paint20_linear)"/>
<path fill-rule="evenodd" clip-rule="evenodd" d="M179.43 189.025C179.43 189.025 198.824 149.825 188.126 138.198C181.601 131.393 167.387 133.114 168.846 184.672C174.587 185.128 179.43 189.025 179.43 189.025Z" fill="url(#paint21_linear)"/>
<path d="M178.833 185.878C179.372 185.878 179.809 185.441 179.809 184.902C179.809 184.364 179.372 183.927 178.833 183.927C178.295 183.927 177.858 184.364 177.858 184.902C177.858 185.441 178.295 185.878 178.833 185.878Z" fill="#D9DCE2"/>
<path fill-rule="evenodd" clip-rule="evenodd" d="M140.747 179.892C143.333 184.385 148.894 196.285 149.132 199.326C149.371 202.367 140.518 203.18 140.538 202.27C139.075 200.372 133.178 180.071 133.178 180.071L140.747 179.892Z" fill="#F8C7C4"/>
<path fill-rule="evenodd" clip-rule="evenodd" d="M142.333 191.552C142.333 191.552 143.968 196.845 145.743 199.804C145.911 201.849 144.909 209.827 146.409 211.842C146.892 212.242 149.468 201.924 149.158 199.765C148.849 197.605 142.333 191.552 142.333 191.552Z" fill="url(#paint22_linear)"/>
<path fill-rule="evenodd" clip-rule="evenodd" d="M140.544 194.241C140.544 194.241 142.18 199.534 143.955 202.493C144.122 204.538 143.12 212.516 144.62 214.531C145.102 214.931 147.679 204.613 147.369 202.454C147.059 200.294 146.133 196.037 146.133 196.037L140.544 194.241Z" fill="url(#paint23_linear)"/>
<path fill-rule="evenodd" clip-rule="evenodd" d="M138.649 195.643C138.649 195.643 140.285 200.935 142.06 203.895C142.227 205.94 141.225 213.918 142.725 215.933C143.207 216.333 145.784 206.015 145.474 203.856C145.164 201.696 144.238 197.439 144.238 197.439L138.649 195.643Z" fill="url(#paint24_linear)"/>
<path fill-rule="evenodd" clip-rule="evenodd" d="M137.125 194.017C137.125 194.017 138.761 199.31 140.536 202.269C140.704 204.314 139.702 212.292 141.201 214.307C141.684 214.707 144.26 204.389 143.95 202.23C143.64 200.07 142.714 195.813 142.714 195.813L137.125 194.017Z" fill="url(#paint25_linear)"/>
<path fill-rule="evenodd" clip-rule="evenodd" d="M132.34 182.338C131.486 188.869 136.299 197.855 136.541 199.43C136.784 201.005 138.341 200.605 138.567 199.597C138.793 198.588 138.973 196.587 138.473 194.345C137.975 192.103 136.339 179.135 136.339 179.135L132.34 182.338Z" fill="url(#paint26_linear)"/>
<path fill-rule="evenodd" clip-rule="evenodd" d="M71.6856 47.1826L72.4572 52.6335C72.4572 52.6335 73.5628 63.8472 73.7303 65.5513C73.8758 67.0262 71.5357 68.964 67.7382 70.1733C65.9316 70.7487 68.4834 73.4989 72.7195 76.2073C81.2469 81.6592 84.2088 116.796 88.0426 115.865C96.4245 113.83 98.2984 67.2599 94.2882 67.552C93.1539 67.6347 91.6074 66.14 90.1006 64.7929C88.0271 62.9345 87.2137 53.814 88.8528 51.2468C90.493 48.6784 71.6856 47.1826 71.6856 47.1826Z" fill="#F4B5B0"/>
<path fill-rule="evenodd" clip-rule="evenodd" d="M93.2931 66.0898L113.511 75.0493C113.511 75.0493 113.511 147.525 118.954 172.118C112.131 176.2 88.5532 179.423 88.5532 179.423L85.9077 126.387C85.9077 113.625 85.9077 74.432 85.9077 74.432C93.3967 74.432 93.2931 66.0898 93.2931 66.0898Z" fill="url(#paint27_linear)"/>
<path fill-rule="evenodd" clip-rule="evenodd" d="M70.9176 66.0879L50.007 73.7246C50.007 73.7246 46.8632 154.213 45.0422 173.663C54.0657 177.357 77.9018 180.346 88.5533 179.421L85.9078 74.4301C75.081 74.4301 70.9176 66.0879 70.9176 66.0879Z" fill="url(#paint28_linear)"/>
<path fill-rule="evenodd" clip-rule="evenodd" d="M66.6559 49.2413C66.5721 49.216 66.387 49.0881 66.1323 48.8886C62.8651 46.328 60.8622 42.4787 60.5007 38.3429L59.5593 27.5646C58.9542 20.6411 61.2381 13.7749 65.87 8.59187L68.7437 5.37646C68.7437 5.37646 82.9534 12.8027 83.3436 13.8013C83.7349 14.8 66.6559 49.2413 66.6559 49.2413Z" fill="#BC6862"/>
<path fill-rule="evenodd" clip-rule="evenodd" d="M82.9294 3.23187C71.5273 3.79956 62.6637 13.5935 63.2325 24.9968L64.1694 43.8384C64.7382 55.2416 74.5321 64.1063 85.9343 63.5387C97.3387 62.971 106.202 53.177 105.636 41.7738L104.697 22.9322C104.128 11.5278 94.3338 2.66419 82.9294 3.23187Z" fill="url(#paint29_linear)"/>
<path fill-rule="evenodd" clip-rule="evenodd" d="M94.1406 19.9059C98.0506 19.1409 101.907 21.4536 103.073 25.2632L105.069 31.7846L105.742 25.552C106.238 20.9564 105.132 16.2517 102.304 12.5953C102.063 12.2822 101.811 11.9769 101.548 11.6792L97.7761 7.40332L94.1406 19.9059Z" fill="#BC6862"/>
<path fill-rule="evenodd" clip-rule="evenodd" d="M94.0118 0.633449C99.4902 -0.0907614 108.454 3.64383 107.096 11.2706C106.496 14.6371 104.785 18.9338 97.7365 20.3128L79.4471 21.5341C78.0847 21.8009 76.8446 22.502 75.9154 23.5337L74.3148 25.3084C72.3913 27.4414 71.1038 30.0703 70.599 32.8977L70.1647 37.9793L65.686 34.3539L64.7094 47.6068C64.7094 47.6068 61.4058 35.7648 61.6064 30.4606C61.7431 26.8406 62.0474 16.2508 63.4363 12.8028C65.2539 8.28781 68.142 3.22165 78.3118 2.11494L94.0118 0.633449Z" fill="#BC6862"/>
<path fill-rule="evenodd" clip-rule="evenodd" d="M68.1709 40.6534L67.3651 36.5371C67.0035 34.6895 65.8317 33.1032 64.1715 32.2147C63.6666 31.9446 63.057 32.3216 63.0746 32.8937L63.3072 40.5608C63.3546 42.1141 63.9014 43.6112 64.866 44.8293C65.6498 45.8192 67.2339 45.4345 67.4764 44.1954L68.1709 40.6534Z" fill="#F4B5B0"/>
<path fill-rule="evenodd" clip-rule="evenodd" d="M85.9107 74.4315L83.3512 80.6761C83.3512 80.6761 73.911 77.314 68.1702 67.0945L72.8274 64.3057C72.8285 64.3046 76.5433 70.5558 85.9107 74.4315Z" fill="url(#paint30_linear)"/>
<path fill-rule="evenodd" clip-rule="evenodd" d="M90.4296 79.9227L85.9077 74.4319C85.9077 74.4319 90.9675 70.0137 90.8595 64.3057L94.8467 66.7783C94.8478 66.7794 94.1423 75.3998 90.4296 79.9227Z" fill="url(#paint31_linear)"/>
<path d="M79.1641 98.9082H61.5977V100.821H79.1641V98.9082Z" fill="#D9DCE2"/>
<path d="M84.4162 83.3495C84.969 83.3495 85.4171 82.9014 85.4171 82.3486C85.4171 81.7958 84.969 81.3477 84.4162 81.3477C83.8634 81.3477 83.4153 81.7958 83.4153 82.3486C83.4153 82.9014 83.8634 83.3495 84.4162 83.3495Z" fill="#D9DCE2"/>
<path d="M84.4162 92.2269C84.969 92.2269 85.4171 91.7788 85.4171 91.226C85.4171 90.6732 84.969 90.2251 84.4162 90.2251C83.8634 90.2251 83.4153 90.6732 83.4153 91.226C83.4153 91.7788 83.8634 92.2269 84.4162 92.2269Z" fill="#D9DCE2"/>
<path d="M84.4162 101.106C84.969 101.106 85.4171 100.658 85.4171 100.105C85.4171 99.5526 84.969 99.1045 84.4162 99.1045C83.8634 99.1045 83.4153 99.5526 83.4153 100.105C83.4153 100.658 83.8634 101.106 84.4162 101.106Z" fill="#D9DCE2"/>
<path d="M84.4162 109.986C84.969 109.986 85.4171 109.538 85.4171 108.985C85.4171 108.432 84.969 107.984 84.4162 107.984C83.8634 107.984 83.4153 108.432 83.4153 108.985C83.4153 109.538 83.8634 109.986 84.4162 109.986Z" fill="#D9DCE2"/>
<path d="M84.4162 118.859C84.969 118.859 85.4171 118.411 85.4171 117.858C85.4171 117.305 84.969 116.857 84.4162 116.857C83.8634 116.857 83.4153 117.305 83.4153 117.858C83.4153 118.411 83.8634 118.859 84.4162 118.859Z" fill="#D9DCE2"/>
<path d="M84.4162 127.736C84.969 127.736 85.4171 127.288 85.4171 126.735C85.4171 126.183 84.969 125.734 84.4162 125.734C83.8634 125.734 83.4153 126.183 83.4153 126.735C83.4153 127.288 83.8634 127.736 84.4162 127.736Z" fill="#D9DCE2"/>
<path d="M84.4162 136.616C84.969 136.616 85.4171 136.167 85.4171 135.615C85.4171 135.062 84.969 134.614 84.4162 134.614C83.8634 134.614 83.4153 135.062 83.4153 135.615C83.4153 136.167 83.8634 136.616 84.4162 136.616Z" fill="#D9DCE2"/>
<path d="M84.4162 145.493C84.969 145.493 85.4171 145.045 85.4171 144.492C85.4171 143.939 84.969 143.491 84.4162 143.491C83.8634 143.491 83.4153 143.939 83.4153 144.492C83.4153 145.045 83.8634 145.493 84.4162 145.493Z" fill="#D9DCE2"/>
<path fill-rule="evenodd" clip-rule="evenodd" d="M49.6841 73.7262C38.9289 69.2487 -10.5224 112.867 2.8143 126.738C12.1067 134.527 45.8503 113.936 51.0917 107.601C56.1898 101.442 53.8992 75.4811 49.6841 73.7262Z" fill="url(#paint32_linear)"/>
<path fill-rule="evenodd" clip-rule="evenodd" d="M33.4163 162.963C36.4951 169.233 39.3128 174.108 41.7291 174.984C44.1455 175.86 50.2415 177.624 51.5698 175.896C52.8982 174.167 44.5787 160.876 37.6989 156.212C34.0391 160.421 33.4163 162.963 33.4163 162.963Z" fill="#F8C7C4"/>
<path fill-rule="evenodd" clip-rule="evenodd" d="M33.5445 166.228C33.5445 166.228 -4.11555 139.018 0.778658 117.985C3.92241 108.837 24.93 110.58 41.5251 157.614C36.3752 160.512 33.5445 166.228 33.5445 166.228Z" fill="url(#paint33_linear)"/>
<path fill-rule="evenodd" clip-rule="evenodd" d="M51.6343 174.739C52.4093 176.621 50.4867 181.811 50.0414 182.713C49.596 183.615 45.8512 188.279 45.0994 187.748C44.3475 187.216 46.215 182.586 47.6216 181.358C47.4618 179.303 47.7782 175.723 48.1397 174.886C48.5013 174.05 51.3014 173.931 51.6343 174.739Z" fill="url(#paint34_linear)"/>
<path fill-rule="evenodd" clip-rule="evenodd" d="M49.2613 175.113C50.0362 176.995 48.1137 182.185 47.6683 183.087C47.2229 183.988 43.4781 188.653 42.7263 188.121C41.9745 187.59 43.8419 182.96 45.2486 181.732C45.0887 179.677 45.4051 176.096 45.7667 175.26C46.1283 174.424 48.9283 174.305 49.2613 175.113Z" fill="url(#paint35_linear)"/>
<path fill-rule="evenodd" clip-rule="evenodd" d="M47.3067 174.149C48.0816 176.031 46.1591 181.221 45.7137 182.123C45.2684 183.024 41.5235 187.689 40.7717 187.157C40.0199 186.626 41.8873 181.996 43.294 180.768C43.1341 178.713 43.4505 175.132 43.8121 174.296C44.1737 173.46 46.9737 173.34 47.3067 174.149Z" fill="url(#paint36_linear)"/>
<path fill-rule="evenodd" clip-rule="evenodd" d="M43.8694 173.075C44.867 174.534 44.1681 179.292 43.9521 180.138C43.736 180.984 41.3934 185.623 40.6592 185.307C39.925 184.99 40.678 180.719 41.6525 179.422C41.1465 177.705 40.7695 174.605 40.926 173.829C41.0825 173.053 43.4406 172.447 43.8694 173.075Z" fill="url(#paint37_linear)"/>
<path d="M32.3132 163.132C32.866 163.132 33.3141 162.684 33.3141 162.131C33.3141 161.579 32.866 161.13 32.3132 161.13C31.7604 161.13 31.3123 161.579 31.3123 162.131C31.3123 162.684 31.7604 163.132 32.3132 163.132Z" fill="#D9DCE2"/>
<path fill-rule="evenodd" clip-rule="evenodd" d="M111.993 73.724C122.748 69.2465 143.474 137.598 131.611 150.021C119.951 155.317 114.164 135.613 108.634 110.523C106.915 102.716 107.779 75.4789 111.993 73.724Z" fill="url(#paint38_linear)"/>
<path fill-rule="evenodd" clip-rule="evenodd" d="M131.691 186.885C131.691 186.885 111.794 146.665 122.769 134.737C129.464 127.755 144.049 129.521 142.551 182.419C136.66 182.886 131.691 186.885 131.691 186.885Z" fill="url(#paint39_linear)"/>
<path fill-rule="evenodd" clip-rule="evenodd" d="M372.985 47.1851L372.213 52.6359C372.213 52.6359 371.107 63.8496 370.94 65.5538C370.794 67.0286 373.134 68.9665 376.932 70.1757C378.739 70.7511 376.187 73.5013 371.951 76.2097C363.423 81.6617 360.461 116.799 356.628 115.867C348.246 113.832 346.372 67.2623 350.382 67.5544C351.516 67.6371 353.063 66.1424 354.57 64.7954C356.643 62.9369 357.456 53.8165 355.817 51.2492C354.177 48.6809 372.985 47.1851 372.985 47.1851Z" fill="#F4B5B0"/>
<path fill-rule="evenodd" clip-rule="evenodd" d="M351.375 66.0898L331.157 75.0493C331.157 75.0493 331.157 150.795 325.715 175.387C332.537 179.469 356.115 182.692 356.115 182.692L358.761 126.387C358.761 113.625 358.761 74.432 358.761 74.432C351.272 74.432 351.375 66.0898 351.375 66.0898Z" fill="url(#paint40_linear)"/>
<path fill-rule="evenodd" clip-rule="evenodd" d="M373.748 66.0898L394.657 73.7266C394.657 73.7266 397.801 157.485 399.622 176.935C390.599 180.629 366.763 183.617 356.111 182.692L358.757 74.432C369.583 74.432 373.748 66.0898 373.748 66.0898Z" fill="url(#paint41_linear)"/>
<path fill-rule="evenodd" clip-rule="evenodd" d="M378.008 49.2413C378.092 49.216 378.277 49.0881 378.532 48.8886C381.8 46.328 383.802 42.4787 384.163 38.3429L385.105 27.5646C385.71 20.6411 383.426 13.7749 378.794 8.59187L375.92 5.37646C375.92 5.37646 361.711 12.8027 361.32 13.8013C360.93 14.8 378.008 49.2413 378.008 49.2413Z" fill="#BC6862"/>
<path fill-rule="evenodd" clip-rule="evenodd" d="M361.733 3.23187C373.135 3.79956 381.999 13.5935 381.43 24.9968L380.493 43.8384C379.924 55.2416 370.13 64.1063 358.728 63.5387C347.324 62.971 338.46 53.177 339.027 41.7738L339.966 22.9322C340.535 11.5278 350.329 2.66419 361.733 3.23187Z" fill="url(#paint42_linear)"/>
<path fill-rule="evenodd" clip-rule="evenodd" d="M350.525 19.9059C346.615 19.1409 342.759 21.4536 341.592 25.2632L339.596 31.7846L338.924 25.552C338.428 20.9564 339.532 16.2517 342.361 12.5953C342.602 12.2822 342.855 11.9769 343.117 11.6792L346.889 7.40332L350.525 19.9059Z" fill="#BC6862"/>
<path fill-rule="evenodd" clip-rule="evenodd" d="M358.757 74.4339L361.317 80.6785C361.317 80.6785 370.757 77.3165 376.498 67.0969L371.84 64.3081C371.84 64.307 368.126 70.5582 358.757 74.4339Z" fill="url(#paint43_linear)"/>
<path fill-rule="evenodd" clip-rule="evenodd" d="M354.237 79.9227L358.759 74.4319C358.759 74.4319 353.699 70.0137 353.807 64.3057L349.82 66.7783C349.819 66.7794 350.524 75.3998 354.237 79.9227Z" fill="url(#paint44_linear)"/>
<path d="M365.505 100.82L383.072 100.82L383.072 98.9078L365.505 98.9078L365.505 100.82Z" fill="#D9DCE2"/>
<path d="M360.253 83.3495C360.806 83.3495 361.254 82.9014 361.254 82.3486C361.254 81.7958 360.806 81.3477 360.253 81.3477C359.7 81.3477 359.252 81.7958 359.252 82.3486C359.252 82.9014 359.7 83.3495 360.253 83.3495Z" fill="#D9DCE2"/>
<path d="M360.253 92.2269C360.806 92.2269 361.254 91.7788 361.254 91.226C361.254 90.6732 360.806 90.2251 360.253 90.2251C359.7 90.2251 359.252 90.6732 359.252 91.226C359.252 91.7788 359.7 92.2269 360.253 92.2269Z" fill="#D9DCE2"/>
<path d="M360.253 101.106C360.806 101.106 361.254 100.658 361.254 100.105C361.254 99.5526 360.806 99.1045 360.253 99.1045C359.7 99.1045 359.252 99.5526 359.252 100.105C359.252 100.658 359.7 101.106 360.253 101.106Z" fill="#D9DCE2"/>
<path d="M360.253 109.986C360.806 109.986 361.254 109.538 361.254 108.985C361.254 108.432 360.806 107.984 360.253 107.984C359.7 107.984 359.252 108.432 359.252 108.985C359.252 109.538 359.7 109.986 360.253 109.986Z" fill="#D9DCE2"/>
<path d="M360.253 118.859C360.806 118.859 361.254 118.411 361.254 117.858C361.254 117.305 360.806 116.857 360.253 116.857C359.7 116.857 359.252 117.305 359.252 117.858C359.252 118.411 359.7 118.859 360.253 118.859Z" fill="#D9DCE2"/>
<path d="M360.253 127.736C360.806 127.736 361.254 127.288 361.254 126.735C361.254 126.183 360.806 125.734 360.253 125.734C359.7 125.734 359.252 126.183 359.252 126.735C359.252 127.288 359.7 127.736 360.253 127.736Z" fill="#D9DCE2"/>
<path d="M360.253 136.616C360.806 136.616 361.254 136.167 361.254 135.615C361.254 135.062 360.806 134.614 360.253 134.614C359.7 134.614 359.252 135.062 359.252 135.615C359.252 136.167 359.7 136.616 360.253 136.616Z" fill="#D9DCE2"/>
<path d="M360.253 145.493C360.806 145.493 361.254 145.045 361.254 144.492C361.254 143.939 360.806 143.491 360.253 143.491C359.7 143.491 359.252 143.939 359.252 144.492C359.252 145.045 359.7 145.493 360.253 145.493Z" fill="#D9DCE2"/>
<path fill-rule="evenodd" clip-rule="evenodd" d="M394.988 73.7262C405.743 69.2487 455.195 112.867 441.858 126.738C432.566 134.527 398.822 113.936 393.581 107.601C388.484 101.442 390.774 75.4811 394.988 73.7262Z" fill="url(#paint45_linear)"/>
<path fill-rule="evenodd" clip-rule="evenodd" d="M411.248 162.965C408.169 169.235 405.351 174.11 402.935 174.986C400.519 175.862 394.423 177.626 393.094 175.898C391.766 174.169 400.086 160.878 406.965 156.214C410.626 160.423 411.248 162.965 411.248 162.965Z" fill="#F8C7C4"/>
<path fill-rule="evenodd" clip-rule="evenodd" d="M411.122 166.23C411.122 166.23 448.782 139.021 443.887 117.988C440.744 108.84 419.736 110.583 403.141 157.617C408.29 160.515 411.122 166.23 411.122 166.23Z" fill="url(#paint46_linear)"/>
<path fill-rule="evenodd" clip-rule="evenodd" d="M393.029 174.742C392.254 176.624 394.176 181.814 394.622 182.716C395.067 183.618 398.812 188.282 399.564 187.75C400.316 187.219 398.448 182.589 397.041 181.361C397.201 179.306 396.885 175.726 396.523 174.889C396.162 174.052 393.363 173.934 393.029 174.742Z" fill="url(#paint47_linear)"/>
<path fill-rule="evenodd" clip-rule="evenodd" d="M395.406 175.12C394.631 177.002 396.554 182.192 396.999 183.093C397.444 183.995 401.189 188.659 401.941 188.128C402.693 187.597 400.825 182.967 399.419 181.739C399.578 179.684 399.262 176.103 398.901 175.266C398.538 174.431 395.739 174.312 395.406 175.12Z" fill="url(#paint48_linear)"/>
<path fill-rule="evenodd" clip-rule="evenodd" d="M397.361 174.151C396.586 176.033 398.508 181.223 398.954 182.125C399.399 183.026 403.144 187.691 403.896 187.159C404.648 186.628 402.78 181.998 401.373 180.77C401.533 178.715 401.217 175.134 400.855 174.298C400.493 173.462 397.694 173.342 397.361 174.151Z" fill="url(#paint49_linear)"/>
<path fill-rule="evenodd" clip-rule="evenodd" d="M400.791 173.079C399.793 174.539 400.492 179.296 400.708 180.142C400.924 180.988 403.267 185.628 404.001 185.311C404.735 184.995 403.982 180.723 403.008 179.427C403.514 177.709 403.891 174.609 403.734 173.833C403.578 173.057 401.219 172.452 400.791 173.079Z" fill="url(#paint50_linear)"/>
<path d="M412.349 163.137C412.902 163.137 413.35 162.688 413.35 162.136C413.35 161.583 412.902 161.135 412.349 161.135C411.796 161.135 411.348 161.583 411.348 162.136C411.348 162.688 411.796 163.137 412.349 163.137Z" fill="#D9DCE2"/>
<path fill-rule="evenodd" clip-rule="evenodd" d="M332.671 73.724C321.916 69.2465 301.19 137.598 313.053 150.021C324.713 155.317 330.5 135.613 336.03 110.523C337.751 102.716 336.886 75.4789 332.671 73.724Z" fill="url(#paint51_linear)"/>
<path fill-rule="evenodd" clip-rule="evenodd" d="M312.973 186.885C312.973 186.885 332.871 146.665 321.895 134.737C315.2 127.755 300.616 129.521 302.114 182.419C308.003 182.886 312.973 186.885 312.973 186.885Z" fill="url(#paint52_linear)"/>
<path d="M132.298 183.655C132.851 183.655 133.299 183.207 133.299 182.654C133.299 182.101 132.851 181.653 132.298 181.653C131.745 181.653 131.297 182.101 131.297 182.654C131.297 183.207 131.745 183.655 132.298 183.655Z" fill="#D9DCE2"/>
<path fill-rule="evenodd" clip-rule="evenodd" d="M183.168 100.742C187.742 112.715 197.943 145.686 194.317 152.119C190.69 158.552 181.423 154.304 176.288 130.999C171.786 110.574 183.168 100.742 183.168 100.742Z" fill="#F8C7C4"/>
<path fill-rule="evenodd" clip-rule="evenodd" d="M189.351 143.372C200.088 143.967 192.277 183.563 187.14 183.279C181.54 182.969 178.352 142.764 189.351 143.372Z" fill="#F8C7C4"/>
<path fill-rule="evenodd" clip-rule="evenodd" d="M181.811 258.338C186.052 215.868 187.191 181.577 173.996 158.664C140.209 158.664 136.593 158.664 136.593 158.664C124.64 175.066 117.344 198.91 128.219 258.338H181.811Z" fill="url(#paint53_linear)"/>
<path fill-rule="evenodd" clip-rule="evenodd" d="M194.316 132.056C194.322 137.238 187.473 140.9 183.167 140.9C177.885 139.723 178.562 135.132 171.463 127.447C164.364 119.763 172.379 88.77 172.379 88.77C172.379 88.77 188.277 92.0736 194.316 132.056Z" fill="url(#paint54_linear)"/>
<path fill-rule="evenodd" clip-rule="evenodd" d="M173.996 158.666H136.593C141.22 150.679 127.817 113.415 129.465 102.864C129.544 102.352 130.697 100.782 130.776 100.299L136.044 96.8913L134.275 93.8247C134.275 93.8247 140.296 88.763 152.539 86.5396C153.188 86.4217 153.763 86.3037 154.28 86.188C158.494 86.7325 163.045 87.5868 168.352 88.2537C177.372 88.7707 185.972 112.978 184.794 121.7C183.663 130.068 177.168 147.389 173.996 158.666Z" fill="#E6E8EF"/>
<path fill-rule="evenodd" clip-rule="evenodd" d="M162.101 207.798L130.14 192.955C128.828 192.346 128.26 190.789 128.868 189.478L151.298 141.181C151.906 139.869 153.464 139.301 154.774 139.909L186.735 154.751C188.047 155.36 188.616 156.917 188.007 158.228L165.578 206.525C164.968 207.838 163.412 208.407 162.101 207.798Z" fill="#E6E8EF"/>
<path fill-rule="evenodd" clip-rule="evenodd" d="M161.256 205.605L129.295 190.761C127.983 190.153 127.415 188.595 128.023 187.284L150.453 138.987C151.061 137.675 152.619 137.107 153.929 137.715L185.89 152.559C187.202 153.167 187.771 154.725 187.162 156.035L164.733 204.333C164.124 205.644 162.568 206.213 161.256 205.605Z" fill="#F6F7FA"/>
<path fill-rule="evenodd" clip-rule="evenodd" d="M103.575 145.145C102.137 148.364 116.577 168.731 142.107 177.04C144.318 176.772 146.608 175.298 142.858 170.558C114.295 134.464 109.204 132.547 103.575 145.145Z" fill="#F8C7C4"/>
<path fill-rule="evenodd" clip-rule="evenodd" d="M121.265 106.279C115.31 113.365 100.67 144.274 104.086 147.388C114.563 156.941 129.322 133.084 133.595 125.579C136.812 115.393 121.265 106.279 121.265 106.279Z" fill="#F8C7C4"/>
<path fill-rule="evenodd" clip-rule="evenodd" d="M154.86 69.1567L154.625 73.6122C154.625 73.6122 153.757 82.704 153.626 84.0852C153.513 85.2812 151.35 86.4573 148.14 86.8288C146.613 87.0051 148.215 89.59 151.163 92.4031C157.096 98.0678 161.288 94.6694 164.483 94.5261C171.467 94.212 173.107 88.2177 169.872 87.8253C168.957 87.7139 167.753 87.3369 166.765 86.0307C165.404 84.2296 166.178 76.8486 167.881 75.0618C169.585 73.2749 154.86 69.1567 154.86 69.1567Z" fill="#F4B5B0"/>
<path fill-rule="evenodd" clip-rule="evenodd" d="M164.492 94.5226C160.879 115.749 136.316 83.029 150.468 86.3733C150.468 86.3744 153.191 93.3652 164.492 94.5226Z" fill="#F6F7FA"/>
<path fill-rule="evenodd" clip-rule="evenodd" d="M169.906 87.8367C169.906 87.8367 170.581 92.9948 164.491 94.5227C164.491 94.5227 166.745 101.294 170.846 100.354C174.944 99.4151 174.892 86.8379 169.906 87.8367Z" fill="#F6F7FA"/>
<path fill-rule="evenodd" clip-rule="evenodd" d="M177.308 57.755C177.532 57.8675 177.803 57.776 177.916 57.5533C178.028 57.3295 177.936 57.0561 177.712 56.9447C177.705 56.9414 175.011 55.5126 172.599 56.9601C172.384 57.0891 172.315 57.3681 172.444 57.5819C172.572 57.7969 172.851 57.8675 173.067 57.7385C175.04 56.5555 177.301 57.7528 177.308 57.755Z" fill="#BC6862"/>
<path fill-rule="evenodd" clip-rule="evenodd" d="M150.963 24.7932C157.78 25.6474 162.616 31.8655 161.761 38.6821C160.907 45.4998 154.689 50.3345 147.872 49.4813C141.053 48.6281 136.22 42.409 137.074 35.5924C137.926 28.7736 144.144 23.9389 150.963 24.7932Z" fill="#BC6862"/>
<path fill-rule="evenodd" clip-rule="evenodd" d="M150.707 29.4264C153.429 29.7671 155.358 32.2494 155.018 34.9699C154.678 37.6914 152.195 39.6216 149.474 39.2798C146.753 38.9392 144.822 36.4569 145.163 33.7364C145.503 31.016 147.987 29.0869 150.707 29.4264Z" fill="#BC6862"/>
<path fill-rule="evenodd" clip-rule="evenodd" d="M146.709 48.7107C146.875 48.7008 147.018 48.8287 147.027 48.9951C147.036 49.1616 146.91 49.3049 146.743 49.3137C146.723 49.3148 139.507 49.8594 135.583 39.3509C135.524 39.1944 135.605 39.0202 135.76 38.9629C135.916 38.9045 136.09 38.985 136.149 39.1415C139.915 49.2255 146.688 48.7107 146.709 48.7107Z" fill="#BC6862"/>
<path fill-rule="evenodd" clip-rule="evenodd" d="M180.74 61.3143C178.055 60.9263 175.564 62.7881 175.174 65.4734C174.786 68.1587 176.65 70.65 179.333 71.038C182.019 71.4261 184.51 69.5642 184.899 66.8789C185.286 64.1936 183.425 61.7035 180.74 61.3143Z" fill="#BC6862"/>
<path fill-rule="evenodd" clip-rule="evenodd" d="M186.028 58.3354C186.028 58.3354 182.566 73.3507 179.403 73.2625C180.916 64.5291 178.723 63.7168 177.368 61.3127L186.028 58.3354Z" fill="#BC6862"/>
<path fill-rule="evenodd" clip-rule="evenodd" d="M146.796 54.1421C142.161 67.5835 142.091 74.0331 148.426 77.9628C154.76 81.8924 165.819 80.5091 165.819 80.5091L146.796 54.1421Z" fill="#BC6862"/>
<path fill-rule="evenodd" clip-rule="evenodd" d="M173.406 27.5226C166.974 26.1116 162.497 27.139 161.302 27.3782C158.34 27.9701 154.81 32.4267 154.81 32.4267C154.81 32.4267 152.665 29.9708 150.286 30.8107C147.907 31.6507 138.642 44.8397 138.2 48.3714C137.757 51.9032 144.674 60.5199 144.674 60.5199C146.357 60.4141 146.162 61.9683 146.162 61.9683L145.844 64.5102C146.701 64.6182 146.999 63.3858 147.14 62.2659C147.279 61.146 147.43 59.9401 147.43 59.9401C147.43 59.9401 149.849 56.9958 150.269 53.636L155.987 54.3514C156.454 54.4098 156.968 53.9645 157.132 53.4861C157.298 53.0077 158.016 49.7901 158.216 49.0273C158.415 48.2656 158.724 47.9096 158.852 48.1355C158.982 48.3615 158.749 51.0632 158.791 52.8269C158.832 54.563 159.97 54.8452 160.006 54.8541L166.44 55.6598L173.406 27.5226Z" fill="#BC6862"/>
<path fill-rule="evenodd" clip-rule="evenodd" d="M146.69 56.4487C146.568 56.4498 146.447 56.4542 146.325 56.4642H146.322C144.091 56.6472 142.202 58.3481 141.868 60.6575C141.478 63.3427 143.341 65.834 146.027 66.222C148.711 66.6101 151.203 64.7482 151.59 62.064C151.817 60.5031 151.283 59.0084 150.266 57.9545C150.211 59.4096 149.758 61.1612 147.902 61.1094L148.305 58.3062C148.471 57.1708 147.475 56.5149 146.69 56.4487Z" fill="#BC6862"/>
<path fill-rule="evenodd" clip-rule="evenodd" d="M168.748 34.4823C159.59 33.1584 151.015 39.5683 149.692 48.7273L147.504 63.8597C146.18 73.0187 152.591 81.5946 161.747 82.9184C170.908 84.2423 179.482 77.8324 180.807 68.6734L182.994 53.5411C184.318 44.3821 177.908 35.8062 168.748 34.4823Z" fill="#F8C7C4"/>
<path fill-rule="evenodd" clip-rule="evenodd" d="M153.672 51.5195C153.672 51.5195 150.211 66.5348 147.048 66.4466C148.562 57.7143 146.368 56.8997 145.013 54.4957L153.672 51.5195Z" fill="#BC6862"/>
<path fill-rule="evenodd" clip-rule="evenodd" d="M164.859 38.6503L163.313 41.0402C163.313 41.0402 159.962 39.1078 158.292 43.8324C156.84 47.9352 153.348 57.1771 145.884 56.3008C144.753 56.1674 143.952 56.7572 142.61 56.0561C142.61 56.0561 144.313 39.8827 150.236 35.9386C156.156 31.9923 164.859 38.6503 164.859 38.6503Z" fill="#BC6862"/>
<path fill-rule="evenodd" clip-rule="evenodd" d="M157.762 39.8169L157.858 39.8158C157.955 39.915 158.098 39.9679 158.248 39.9459C162.457 39.3165 164.456 43.4424 166.803 48.2881C169.175 53.1823 171.886 58.7775 177.551 61.293C178.011 61.6413 178.495 61.961 179.011 62.2399C188.405 67.3303 198.276 55.7253 192.7 43.1888C186.723 29.743 165.887 19.7837 157.318 34.1037C157.316 34.1037 155.557 37.2045 157.762 39.8169ZM164.181 41.7768C168.887 45.4177 170.765 53.3024 174.815 58.5306C171.43 55.7583 169.423 51.6159 167.619 47.8923C166.492 45.5654 165.44 43.395 164.181 41.7768Z" fill="#BC6862"/>
<path fill-rule="evenodd" clip-rule="evenodd" d="M132.627 133.139C141.137 126.376 151.68 100.283 140.422 91.4397C135.597 88.135 120.229 95.8192 110.758 124.947C112.009 130.995 122.795 138.12 125.891 138.145C128.092 137.455 132.627 133.139 132.627 133.139Z" fill="url(#paint55_linear)"/>
<path fill-rule="evenodd" clip-rule="evenodd" d="M190.128 178.612C190.234 182.224 189.653 191.355 188.715 193.291C187.777 195.226 181.569 192.737 181.911 192.188C181.619 190.538 185.008 176.169 185.008 176.169L190.128 178.612Z" fill="#F8C7C4"/>
<path fill-rule="evenodd" clip-rule="evenodd" d="M186.979 186.259C186.979 186.259 186.162 190.038 186.278 192.441C185.652 193.745 182.103 198.273 182.378 200.007C182.556 200.413 188.001 194.99 188.573 193.568C189.147 192.148 186.979 186.259 186.979 186.259Z" fill="url(#paint56_linear)"/>
<path fill-rule="evenodd" clip-rule="evenodd" d="M184.816 187.296C184.816 187.296 183.999 191.075 184.115 193.478C183.489 194.782 179.94 199.31 180.214 201.044C180.392 201.451 185.837 196.027 186.409 194.605C186.981 193.184 187.9 190.275 187.9 190.275L184.816 187.296Z" fill="url(#paint57_linear)"/>
<path fill-rule="evenodd" clip-rule="evenodd" d="M183.045 187.512C183.045 187.512 182.228 191.291 182.344 193.694C181.718 194.998 178.169 199.526 178.443 201.26C178.621 201.666 184.066 196.243 184.638 194.821C185.21 193.4 186.129 190.49 186.129 190.49L183.045 187.512Z" fill="url(#paint58_linear)"/>
<path fill-rule="evenodd" clip-rule="evenodd" d="M182.614 186.007C182.614 186.007 181.797 189.786 181.913 192.189C181.287 193.493 177.738 198.021 178.012 199.755C178.19 200.161 183.635 194.738 184.207 193.316C184.779 191.895 185.697 188.985 185.697 188.985L182.614 186.007Z" fill="url(#paint59_linear)"/>
<path fill-rule="evenodd" clip-rule="evenodd" d="M183.633 177.27C180.705 180.965 180.676 188.068 180.27 189.111C179.863 190.153 181.048 190.434 181.563 189.895C182.077 189.356 182.92 188.197 183.396 186.661C183.872 185.125 187.46 176.665 187.46 176.665L183.633 177.27Z" fill="url(#paint60_linear)"/>
<path fill-rule="evenodd" clip-rule="evenodd" d="M134.463 174.071C136.825 176.198 141.473 183.522 144.851 183.522C148.23 183.522 150.732 180.556 150.176 178.423C149.619 176.291 142.943 169.395 141.135 168.392C139.327 167.39 134.463 174.071 134.463 174.071Z" fill="#F8C7C4"/>
<path fill-rule="evenodd" clip-rule="evenodd" d="M142.966 182.965C147.551 186.539 152.449 190.369 153.141 189.86C153.834 189.351 146.174 181.876 144.821 181.166C143.467 180.456 141.321 181.684 142.966 182.965Z" fill="url(#paint61_linear)"/>
<path fill-rule="evenodd" clip-rule="evenodd" d="M146.307 183.387C150.588 186.54 155.162 189.919 155.816 189.459C156.469 189 149.329 182.393 148.063 181.769C146.798 181.145 144.772 182.257 146.307 183.387Z" fill="url(#paint62_linear)"/>
<path fill-rule="evenodd" clip-rule="evenodd" d="M147.605 181.653C152.191 185.227 157.088 189.057 157.78 188.548C158.473 188.039 150.813 180.564 149.46 179.854C148.106 179.143 145.96 180.372 147.605 181.653Z" fill="url(#paint63_linear)"/>
<path fill-rule="evenodd" clip-rule="evenodd" d="M147.374 178.732C151.959 182.305 156.857 186.136 157.549 185.627C158.242 185.117 150.582 177.642 149.229 176.933C147.876 176.222 145.73 177.451 147.374 178.732Z" fill="url(#paint64_linear)"/>
<path fill-rule="evenodd" clip-rule="evenodd" d="M141.133 168.393C143.839 169.463 151.26 173.787 151.604 174.623C150.965 175.262 147.38 174.967 144.848 173.001C142.316 171.036 141.133 168.393 141.133 168.393Z" fill="url(#paint65_linear)"/>
<path fill-rule="evenodd" clip-rule="evenodd" d="M279.674 60.0039C279.674 60.5616 279.302 83.4101 279.674 83.689C280.045 83.9678 291.098 88.646 291.47 88.7684C291.842 88.8907 324.166 99.8509 324.166 99.8509C324.166 99.8509 316.085 73.1003 315.9 72.7288C315.713 72.3573 316.086 59.3535 315.621 59.3535C315.156 59.3535 279.674 60.0039 279.674 60.0039Z" fill="#BC6862"/>
<path fill-rule="evenodd" clip-rule="evenodd" d="M325.359 112.014C328.561 120.698 331.868 154.738 327.598 156.511C314.504 161.95 308.698 134.505 307.22 125.996C307.643 115.323 325.359 112.014 325.359 112.014Z" fill="#F8C7C4"/>
<path fill-rule="evenodd" clip-rule="evenodd" d="M318.904 258.339C323.146 215.869 324.284 181.578 311.091 158.665C290.887 162.184 273.688 158.665 273.688 158.665C261.735 175.067 254.438 198.911 265.313 258.339H318.904Z" fill="url(#paint66_linear)"/>
<path fill-rule="evenodd" clip-rule="evenodd" d="M306.586 218.808L270.654 215.626C269.213 215.498 268.149 214.227 268.277 212.788L270.404 188.763C270.532 187.322 271.803 186.259 273.243 186.386L309.176 189.569C310.616 189.697 311.68 190.968 311.552 192.407L309.425 216.432C309.297 217.872 308.026 218.936 306.586 218.808Z" fill="#F6F7FA"/>
<path fill-rule="evenodd" clip-rule="evenodd" d="M331.406 132.059C331.412 137.241 324.563 140.902 320.258 140.902C314.976 139.725 315.652 135.134 308.554 127.45C301.455 119.766 309.47 88.7725 309.47 88.7725C309.47 88.7725 325.368 92.0761 331.406 132.059Z" fill="url(#paint67_linear)"/>
<path fill-rule="evenodd" clip-rule="evenodd" d="M311.086 158.666C303.632 164.312 273.683 158.666 273.683 158.666C278.31 150.679 264.908 113.415 266.556 102.864C266.634 102.352 267.787 100.783 267.866 100.299L273.134 96.8917L271.365 93.8251C271.365 93.8251 277.387 88.7634 289.629 86.5401C290.278 86.4222 290.853 86.3042 291.37 86.1885C295.584 86.733 300.135 87.5873 305.442 88.2542C314.462 88.7711 323.062 112.978 321.884 121.7C320.754 130.068 313.596 146.737 311.086 158.666Z" fill="#E6E8EF"/>
<path fill-rule="evenodd" clip-rule="evenodd" d="M256.202 112.014C253 120.698 249.693 154.738 253.962 156.511C267.057 161.95 272.862 134.505 274.341 125.996C273.917 115.323 256.202 112.014 256.202 112.014Z" fill="#F8C7C4"/>
<path fill-rule="evenodd" clip-rule="evenodd" d="M291.954 69.1592L291.72 73.6147C291.72 73.6147 290.852 82.7064 290.721 84.0876C290.607 85.2836 288.445 86.4597 285.235 86.8312C283.708 87.0076 285.31 89.5925 288.257 92.4055C294.191 98.0703 298.383 94.6719 301.577 94.5286C308.562 94.2144 310.202 88.2201 306.967 87.8277C306.052 87.7164 304.848 87.3394 303.859 86.0332C302.499 84.232 303.273 76.851 304.976 75.0642C306.681 73.2774 291.954 69.1592 291.954 69.1592Z" fill="#F4B5B0"/>
<path fill-rule="evenodd" clip-rule="evenodd" d="M301.571 94.526C297.958 115.753 273.395 83.0324 287.547 86.3767C287.547 86.3778 290.27 93.3686 301.571 94.526Z" fill="#F6F7FA"/>
<path fill-rule="evenodd" clip-rule="evenodd" d="M306.985 87.8401C306.985 87.8401 307.66 92.9982 301.57 94.5261C301.57 94.5261 303.824 101.297 307.924 100.358C312.023 99.4185 311.971 86.8414 306.985 87.8401Z" fill="#F6F7FA"/>
<path fill-rule="evenodd" clip-rule="evenodd" d="M297.899 34.2782C288.664 34.8514 281.579 42.8772 282.153 52.1134L283.1 67.3736C283.674 76.6098 291.7 83.6965 300.935 83.1233C310.172 82.549 317.258 74.5242 316.686 65.287L315.737 50.0267C315.162 40.7895 307.137 33.7039 297.899 34.2782Z" fill="#F8C7C4"/>
<path fill-rule="evenodd" clip-rule="evenodd" d="M275.367 134.431C282.329 126.085 287.365 98.3959 274.547 92.018C269.153 89.7605 255.661 100.4 252.292 130.843C254.742 136.511 266.749 141.302 269.785 140.7C271.801 139.579 275.367 134.431 275.367 134.431Z" fill="url(#paint68_linear)"/>
<path fill-rule="evenodd" clip-rule="evenodd" d="M269.108 201.093C271.282 205.946 273.597 211.14 274.393 211.062C275.189 210.983 272.227 201.716 271.433 200.55C270.639 199.385 268.328 199.355 269.108 201.093Z" fill="url(#paint69_linear)"/>
<path fill-rule="evenodd" clip-rule="evenodd" d="M252.697 147.741C249.86 149.834 252.399 174.671 270.528 194.475C272.584 195.33 275.303 195.176 274.373 189.204C267.289 143.722 263.801 139.547 252.697 147.741Z" fill="#F8C7C4"/>
<path fill-rule="evenodd" clip-rule="evenodd" d="M265.337 188.126C266.346 191.14 266.785 199.804 269.725 201.467C272.665 203.131 276.305 201.781 276.87 199.652C277.436 197.522 275.02 188.232 273.941 186.47C272.862 184.707 265.337 188.126 265.337 188.126Z" fill="#F8C7C4"/>
<path fill-rule="evenodd" clip-rule="evenodd" d="M271.188 201.632C273.42 207.001 275.796 212.747 276.65 212.643C277.503 212.541 274.517 202.263 273.689 200.979C272.861 199.695 270.387 199.708 271.188 201.632Z" fill="url(#paint70_linear)"/>
<path fill-rule="evenodd" clip-rule="evenodd" d="M273.04 201.197C275.272 206.566 277.648 212.312 278.502 212.208C279.355 212.106 276.368 201.828 275.541 200.544C274.713 199.26 272.24 199.273 273.04 201.197Z" fill="url(#paint71_linear)"/>
<path fill-rule="evenodd" clip-rule="evenodd" d="M274.278 198.542C276.509 203.912 278.886 209.657 279.739 209.554C280.593 209.451 277.606 199.174 276.778 197.889C275.95 196.605 273.478 196.618 274.278 198.542Z" fill="url(#paint72_linear)"/>
<path fill-rule="evenodd" clip-rule="evenodd" d="M273.941 186.471C275.77 188.735 280.099 196.153 279.986 197.049C279.116 197.291 276.141 195.269 274.905 192.311C273.669 189.352 273.941 186.471 273.941 186.471Z" fill="url(#paint73_linear)"/>
<path fill-rule="evenodd" clip-rule="evenodd" d="M293.057 46.789L292.347 49.0376C292.074 49.9041 291.686 50.7297 291.194 51.4936L290.88 51.9808C289.265 54.4885 288.405 57.4085 288.405 60.3913V93.9343L279.978 85.5017C278.462 83.9849 277.532 81.9854 277.352 79.848C276.915 74.6396 276.051 64.2483 275.439 56.8761C274.992 51.4958 276.353 46.1232 279.306 41.6026L282.538 36.6555C284.199 34.1125 287.152 32.7236 290.17 33.0653L293.103 43.2936C293.432 44.4389 293.415 45.6536 293.057 46.789Z" fill="#BC6862"/>
<path fill-rule="evenodd" clip-rule="evenodd" d="M324.165 99.8506L320.029 95.4844C315.945 91.1722 313.668 85.4579 313.668 79.5187V65.8667C313.668 64.3764 313.525 62.8894 313.242 61.4266L312.415 57.1629C311.478 52.3294 307.808 48.4856 303.021 47.3282L296.265 45.6935C294.622 45.2956 293.318 44.0456 292.852 42.4197L290.17 33.0678C292.403 31.4386 295.096 30.5601 297.86 30.5601H298.737C302.961 30.5601 307.09 31.8178 310.595 34.1745C314.838 37.025 318.131 41.0804 320.05 45.8181C321.335 48.9916 321.996 52.3834 321.996 55.8082V81.9173C321.996 86.2471 322.403 90.5681 323.21 94.823L324.165 99.8506Z" fill="#BC6862"/>
<path fill-rule="evenodd" clip-rule="evenodd" d="M328.458 150.932C331.295 153.025 328.757 177.862 310.627 197.666C308.571 198.521 305.852 198.367 306.782 192.395C313.867 146.914 317.354 142.739 328.458 150.932Z" fill="#F8C7C4"/>
<path fill-rule="evenodd" clip-rule="evenodd" d="M315.817 191.319C314.809 194.334 314.37 202.997 311.43 204.661C308.49 206.324 304.85 204.975 304.285 202.845C303.719 200.715 306.134 191.426 307.214 189.663C308.293 187.9 315.817 191.319 315.817 191.319Z" fill="#F8C7C4"/>
<path fill-rule="evenodd" clip-rule="evenodd" d="M312.8 203.246C310.569 208.616 308.192 214.362 307.339 214.258C306.486 214.156 309.472 203.878 310.3 202.594C311.128 201.31 313.601 201.323 312.8 203.246Z" fill="url(#paint74_linear)"/>
<path fill-rule="evenodd" clip-rule="evenodd" d="M308.114 204.388C305.883 209.758 303.506 215.504 302.653 215.4C301.8 215.298 304.786 205.02 305.614 203.736C306.442 202.451 308.915 202.464 308.114 204.388Z" fill="url(#paint75_linear)"/>
<path fill-rule="evenodd" clip-rule="evenodd" d="M306.877 201.734C304.645 207.103 302.269 212.849 301.415 212.745C300.562 212.643 303.549 202.365 304.376 201.081C305.204 199.797 307.677 199.809 306.877 201.734Z" fill="url(#paint76_linear)"/>
<path fill-rule="evenodd" clip-rule="evenodd" d="M310.509 204.222C308.277 209.591 305.901 215.337 305.047 215.233C304.194 215.13 307.181 204.853 308.009 203.569C308.836 202.285 311.309 202.298 310.509 204.222Z" fill="url(#paint77_linear)"/>
<path fill-rule="evenodd" clip-rule="evenodd" d="M307.213 189.662C305.384 191.926 301.055 199.345 301.168 200.241C302.038 200.482 305.014 198.461 306.249 195.502C307.485 192.543 307.213 189.662 307.213 189.662Z" fill="url(#paint78_linear)"/>
<path fill-rule="evenodd" clip-rule="evenodd" d="M344.166 18.1591C343.661 19.9614 342.908 22.8472 342.507 24.397C342.388 24.8556 342.828 25.2623 343.277 25.1091L356.132 20.7473C356.645 20.5731 357.106 21.1188 356.848 21.5961C356.588 22.0767 357.056 22.6245 357.571 22.4426L361.919 20.9027C367.461 18.9395 371.927 14.7442 374.235 9.33521L375.684 5.93462C375.713 5.86628 375.609 5.69432 375.431 5.46724C374.29 4.01772 372.641 3.06313 370.832 2.70488C367.022 1.94981 359.744 0.6513 356.56 1.05364C356.022 1.12198 355.473 1.19143 354.923 1.26308C347.017 2.28711 340.157 7.23203 336.689 14.4113L332.303 23.4942C332.039 24.041 332.666 24.5877 333.171 24.2493C335.859 22.4526 340.836 19.128 343.261 17.5077C343.723 17.199 344.316 17.6267 344.166 18.1591Z" fill="#BC6862"/>
<path fill-rule="evenodd" clip-rule="evenodd" d="M373.259 6.35905L371.493 12.0656C370.118 16.509 370.345 21.293 372.135 25.5864L376.15 35.215L380.078 33.0964C381.219 32.4802 382.023 31.3867 382.267 30.1114C382.772 27.4703 383.594 23.1437 383.594 22.9608C383.594 22.6973 385.202 25.9259 385.201 25.6614C385.2 25.5291 385.343 21.4605 385.486 17.4504C385.66 12.5859 382.983 8.05549 378.627 5.88286L378.544 5.84097C376.829 4.98669 374.775 5.18731 373.259 6.35905Z" fill="#BC6862"/>
<path fill-rule="evenodd" clip-rule="evenodd" d="M376.495 38.8077L377.3 34.6914C377.662 32.8438 378.834 31.2575 380.494 30.369C380.999 30.0989 381.609 30.4759 381.591 31.048L381.358 38.7151C381.311 40.2684 380.764 41.7654 379.8 42.9836C379.016 43.9735 377.432 43.5888 377.189 42.3497L376.495 38.8077Z" fill="#F4B5B0"/>
<defs>
<linearGradient id="paint0_linear" x1="112.226" y1="203.698" x2="64.4619" y2="203.698" gradientUnits="userSpaceOnUse">
<stop stop-color="#E6384C"/>
<stop offset="1" stop-color="#CC1F38"/>
</linearGradient>
<linearGradient id="paint1_linear" x1="387.51" y1="203.697" x2="339.746" y2="203.697" gradientUnits="userSpaceOnUse">
<stop stop-color="#E6384C"/>
<stop offset="1" stop-color="#CC1F38"/>
</linearGradient>
<linearGradient id="paint2_linear" x1="245.358" y1="39.4181" x2="217.607" y2="39.4181" gradientUnits="userSpaceOnUse">
<stop stop-color="#F8C7C4"/>
<stop offset="1" stop-color="#F4B5B0"/>
</linearGradient>
<linearGradient id="paint3_linear" x1="258.119" y1="205.249" x2="211.565" y2="205.249" gradientUnits="userSpaceOnUse">
<stop stop-color="#A31225"/>
<stop offset="0.4167" stop-color="#E6384C"/>
<stop offset="1" stop-color="#CC1F38"/>
</linearGradient>
<linearGradient id="paint4_linear" x1="290.79" y1="196.593" x2="290.745" y2="210.304" gradientUnits="userSpaceOnUse">
<stop stop-color="#F8C7C4"/>
<stop offset="1" stop-color="#F4B5B0"/>
</linearGradient>
<linearGradient id="paint5_linear" x1="289.045" y1="199.216" x2="289" y2="212.927" gradientUnits="userSpaceOnUse">
<stop stop-color="#F8C7C4"/>
<stop offset="1" stop-color="#F4B5B0"/>
</linearGradient>
<linearGradient id="paint6_linear" x1="287.197" y1="200.58" x2="287.152" y2="214.291" gradientUnits="userSpaceOnUse">
<stop stop-color="#F8C7C4"/>
<stop offset="1" stop-color="#F4B5B0"/>
</linearGradient>
<linearGradient id="paint7_linear" x1="285.712" y1="198.996" x2="285.667" y2="212.706" gradientUnits="userSpaceOnUse">
<stop stop-color="#F8C7C4"/>
<stop offset="1" stop-color="#F4B5B0"/>
</linearGradient>
<linearGradient id="paint8_linear" x1="280.748" y1="191.881" x2="281.367" y2="201.558" gradientUnits="userSpaceOnUse">
<stop stop-color="#F8C7C4"/>
<stop offset="1" stop-color="#F4B5B0"/>
</linearGradient>
<linearGradient id="paint9_linear" x1="248.571" y1="100.29" x2="248.571" y2="154.146" gradientUnits="userSpaceOnUse">
<stop stop-color="#F6F7FA"/>
<stop offset="1" stop-color="#B2BCC9"/>
</linearGradient>
<linearGradient id="paint10_linear" x1="213.843" y1="102.297" x2="213.843" y2="159.23" gradientUnits="userSpaceOnUse">
<stop stop-color="#F6F7FA"/>
<stop offset="1" stop-color="#B2BCC9"/>
</linearGradient>
<linearGradient id="paint11_linear" x1="223.827" y1="74.0617" x2="223.827" y2="82.4353" gradientUnits="userSpaceOnUse">
<stop stop-color="#F6F7FA"/>
<stop offset="1" stop-color="#B2BCC9"/>
</linearGradient>
<linearGradient id="paint12_linear" x1="236.822" y1="73.854" x2="236.822" y2="81.8416" gradientUnits="userSpaceOnUse">
<stop stop-color="#F6F7FA"/>
<stop offset="1" stop-color="#B2BCC9"/>
</linearGradient>
<linearGradient id="paint13_linear" x1="253.843" y1="101.616" x2="279.323" y2="133.769" gradientUnits="userSpaceOnUse">
<stop stop-color="#F6F7FA"/>
<stop offset="1" stop-color="#B2BCC9"/>
</linearGradient>
<linearGradient id="paint14_linear" x1="286.618" y1="166.505" x2="267.025" y2="158.264" gradientUnits="userSpaceOnUse">
<stop stop-color="#F6F7FA"/>
<stop offset="1" stop-color="#B2BCC9"/>
</linearGradient>
<linearGradient id="paint15_linear" x1="165.732" y1="196.603" x2="165.778" y2="210.313" gradientUnits="userSpaceOnUse">
<stop stop-color="#F8C7C4"/>
<stop offset="1" stop-color="#F4B5B0"/>
</linearGradient>
<linearGradient id="paint16_linear" x1="167.47" y1="199.225" x2="167.515" y2="212.936" gradientUnits="userSpaceOnUse">
<stop stop-color="#F8C7C4"/>
<stop offset="1" stop-color="#F4B5B0"/>
</linearGradient>
<linearGradient id="paint17_linear" x1="169.318" y1="200.59" x2="169.363" y2="214.301" gradientUnits="userSpaceOnUse">
<stop stop-color="#F8C7C4"/>
<stop offset="1" stop-color="#F4B5B0"/>
</linearGradient>
<linearGradient id="paint18_linear" x1="170.803" y1="199.005" x2="170.848" y2="212.716" gradientUnits="userSpaceOnUse">
<stop stop-color="#F8C7C4"/>
<stop offset="1" stop-color="#F4B5B0"/>
</linearGradient>
<linearGradient id="paint19_linear" x1="175.769" y1="191.89" x2="175.15" y2="201.568" gradientUnits="userSpaceOnUse">
<stop stop-color="#F8C7C4"/>
<stop offset="1" stop-color="#F4B5B0"/>
</linearGradient>
<linearGradient id="paint20_linear" x1="202.679" y1="101.611" x2="177.199" y2="133.764" gradientUnits="userSpaceOnUse">
<stop stop-color="#F6F7FA"/>
<stop offset="1" stop-color="#B2BCC9"/>
</linearGradient>
<linearGradient id="paint21_linear" x1="169.899" y1="166.509" x2="189.492" y2="158.268" gradientUnits="userSpaceOnUse">
<stop stop-color="#F6F7FA"/>
<stop offset="1" stop-color="#B2BCC9"/>
</linearGradient>
<linearGradient id="paint22_linear" x1="145.741" y1="194.638" x2="145.695" y2="208.706" gradientUnits="userSpaceOnUse">
<stop stop-color="#F8C7C4"/>
<stop offset="1" stop-color="#F4B5B0"/>
</linearGradient>
<linearGradient id="paint23_linear" x1="143.954" y1="197.327" x2="143.907" y2="211.394" gradientUnits="userSpaceOnUse">
<stop stop-color="#F8C7C4"/>
<stop offset="1" stop-color="#F4B5B0"/>
</linearGradient>
<linearGradient id="paint24_linear" x1="142.058" y1="198.729" x2="142.011" y2="212.796" gradientUnits="userSpaceOnUse">
<stop stop-color="#F8C7C4"/>
<stop offset="1" stop-color="#F4B5B0"/>
</linearGradient>
<linearGradient id="paint25_linear" x1="140.534" y1="197.103" x2="140.488" y2="211.171" gradientUnits="userSpaceOnUse">
<stop stop-color="#F8C7C4"/>
<stop offset="1" stop-color="#F4B5B0"/>
</linearGradient>
<linearGradient id="paint26_linear" x1="135.441" y1="189.802" x2="136.076" y2="199.731" gradientUnits="userSpaceOnUse">
<stop stop-color="#F8C7C4"/>
<stop offset="1" stop-color="#F4B5B0"/>
</linearGradient>
<linearGradient id="paint27_linear" x1="102.43" y1="98.1164" x2="102.43" y2="157.593" gradientUnits="userSpaceOnUse">
<stop stop-color="#F6F7FA"/>
<stop offset="1" stop-color="#B2BCC9"/>
</linearGradient>
<linearGradient id="paint28_linear" x1="66.7983" y1="100.327" x2="66.7983" y2="163.194" gradientUnits="userSpaceOnUse">
<stop stop-color="#F6F7FA"/>
<stop offset="1" stop-color="#B2BCC9"/>
</linearGradient>
<linearGradient id="paint29_linear" x1="99.138" y1="33.3849" x2="70.6656" y2="33.3849" gradientUnits="userSpaceOnUse">
<stop stop-color="#F8C7C4"/>
<stop offset="1" stop-color="#F4B5B0"/>
</linearGradient>
<linearGradient id="paint30_linear" x1="77.0411" y1="68.931" x2="77.0411" y2="77.5222" gradientUnits="userSpaceOnUse">
<stop stop-color="#F6F7FA"/>
<stop offset="1" stop-color="#B2BCC9"/>
</linearGradient>
<linearGradient id="paint31_linear" x1="90.3777" y1="68.7192" x2="90.3777" y2="76.9152" gradientUnits="userSpaceOnUse">
<stop stop-color="#F6F7FA"/>
<stop offset="1" stop-color="#B2BCC9"/>
</linearGradient>
<linearGradient id="paint32_linear" x1="43.2506" y1="88.4413" x2="17.587" y2="120.826" gradientUnits="userSpaceOnUse">
<stop stop-color="#F6F7FA"/>
<stop offset="1" stop-color="#B2BCC9"/>
</linearGradient>
<linearGradient id="paint33_linear" x1="32.0781" y1="139.501" x2="8.7717" y2="140.322" gradientUnits="userSpaceOnUse">
<stop stop-color="#F6F7FA"/>
<stop offset="1" stop-color="#B2BCC9"/>
</linearGradient>
<linearGradient id="paint34_linear" x1="49.3219" y1="175.838" x2="47.805" y2="185.18" gradientUnits="userSpaceOnUse">
<stop stop-color="#F8C7C4"/>
<stop offset="1" stop-color="#F4B5B0"/>
</linearGradient>
<linearGradient id="paint35_linear" x1="46.9488" y1="176.211" x2="45.432" y2="185.553" gradientUnits="userSpaceOnUse">
<stop stop-color="#F8C7C4"/>
<stop offset="1" stop-color="#F4B5B0"/>
</linearGradient>
<linearGradient id="paint36_linear" x1="44.9942" y1="175.246" x2="43.4773" y2="184.588" gradientUnits="userSpaceOnUse">
<stop stop-color="#F8C7C4"/>
<stop offset="1" stop-color="#F4B5B0"/>
</linearGradient>
<linearGradient id="paint37_linear" x1="42.1031" y1="174.442" x2="42.4974" y2="182.655" gradientUnits="userSpaceOnUse">
<stop stop-color="#F8C7C4"/>
<stop offset="1" stop-color="#F4B5B0"/>
</linearGradient>
<linearGradient id="paint38_linear" x1="107.844" y1="97.2062" x2="133.986" y2="130.195" gradientUnits="userSpaceOnUse">
<stop stop-color="#F6F7FA"/>
<stop offset="1" stop-color="#B2BCC9"/>
</linearGradient>
<linearGradient id="paint39_linear" x1="141.464" y1="163.776" x2="121.362" y2="155.32" gradientUnits="userSpaceOnUse">
<stop stop-color="#F6F7FA"/>
<stop offset="1" stop-color="#B2BCC9"/>
</linearGradient>
<linearGradient id="paint40_linear" x1="342.238" y1="99.0402" x2="342.238" y2="160.233" gradientUnits="userSpaceOnUse">
<stop stop-color="#F6F7FA"/>
<stop offset="1" stop-color="#B2BCC9"/>
</linearGradient>
<linearGradient id="paint41_linear" x1="377.867" y1="101.315" x2="377.867" y2="165.993" gradientUnits="userSpaceOnUse">
<stop stop-color="#F6F7FA"/>
<stop offset="1" stop-color="#B2BCC9"/>
</linearGradient>
<linearGradient id="paint42_linear" x1="345.524" y1="33.3849" x2="373.996" y2="33.3849" gradientUnits="userSpaceOnUse">
<stop stop-color="#F8C7C4"/>
<stop offset="1" stop-color="#F4B5B0"/>
</linearGradient>
<linearGradient id="paint43_linear" x1="367.627" y1="68.9334" x2="367.627" y2="77.5247" gradientUnits="userSpaceOnUse">
<stop stop-color="#F6F7FA"/>
<stop offset="1" stop-color="#B2BCC9"/>
</linearGradient>
<linearGradient id="paint44_linear" x1="354.289" y1="68.7192" x2="354.289" y2="76.9152" gradientUnits="userSpaceOnUse">
<stop stop-color="#F6F7FA"/>
<stop offset="1" stop-color="#B2BCC9"/>
</linearGradient>
<linearGradient id="paint45_linear" x1="401.434" y1="88.462" x2="427.098" y2="120.847" gradientUnits="userSpaceOnUse">
<stop stop-color="#F6F7FA"/>
<stop offset="1" stop-color="#B2BCC9"/>
</linearGradient>
<linearGradient id="paint46_linear" x1="412.598" y1="139.532" x2="435.904" y2="140.353" gradientUnits="userSpaceOnUse">
<stop stop-color="#F6F7FA"/>
<stop offset="1" stop-color="#B2BCC9"/>
</linearGradient>
<linearGradient id="paint47_linear" x1="395.352" y1="175.87" x2="396.869" y2="185.211" gradientUnits="userSpaceOnUse">
<stop stop-color="#F8C7C4"/>
<stop offset="1" stop-color="#F4B5B0"/>
</linearGradient>
<linearGradient id="paint48_linear" x1="397.728" y1="176.247" x2="399.245" y2="185.589" gradientUnits="userSpaceOnUse">
<stop stop-color="#F8C7C4"/>
<stop offset="1" stop-color="#F4B5B0"/>
</linearGradient>
<linearGradient id="paint49_linear" x1="399.683" y1="175.277" x2="401.2" y2="184.619" gradientUnits="userSpaceOnUse">
<stop stop-color="#F8C7C4"/>
<stop offset="1" stop-color="#F4B5B0"/>
</linearGradient>
<linearGradient id="paint50_linear" x1="402.538" y1="174.454" x2="402.143" y2="182.667" gradientUnits="userSpaceOnUse">
<stop stop-color="#F8C7C4"/>
<stop offset="1" stop-color="#F4B5B0"/>
</linearGradient>
<linearGradient id="paint51_linear" x1="336.833" y1="97.1855" x2="310.691" y2="130.174" gradientUnits="userSpaceOnUse">
<stop stop-color="#F6F7FA"/>
<stop offset="1" stop-color="#B2BCC9"/>
</linearGradient>
<linearGradient id="paint52_linear" x1="303.189" y1="163.787" x2="323.291" y2="155.332" gradientUnits="userSpaceOnUse">
<stop stop-color="#F6F7FA"/>
<stop offset="1" stop-color="#B2BCC9"/>
</linearGradient>
<linearGradient id="paint53_linear" x1="122.897" y1="208.5" x2="184.692" y2="208.5" gradientUnits="userSpaceOnUse">
<stop stop-color="#E6384C"/>
<stop offset="1" stop-color="#CC1F38"/>
</linearGradient>
<linearGradient id="paint54_linear" x1="194.316" y1="114.835" x2="168.53" y2="114.835" gradientUnits="userSpaceOnUse">
<stop stop-color="#F6F7FA"/>
<stop offset="1" stop-color="#B2BCC9"/>
</linearGradient>
<linearGradient id="paint55_linear" x1="145.317" y1="114.435" x2="110.758" y2="114.435" gradientUnits="userSpaceOnUse">
<stop stop-color="#F6F7FA"/>
<stop offset="1" stop-color="#B2BCC9"/>
</linearGradient>
<linearGradient id="paint56_linear" x1="188.115" y1="189.334" x2="183.344" y2="198.001" gradientUnits="userSpaceOnUse">
<stop stop-color="#F8C7C4"/>
<stop offset="1" stop-color="#F4B5B0"/>
</linearGradient>
<linearGradient id="paint57_linear" x1="185.952" y1="190.371" x2="181.181" y2="199.039" gradientUnits="userSpaceOnUse">
<stop stop-color="#F8C7C4"/>
<stop offset="1" stop-color="#F4B5B0"/>
</linearGradient>
<linearGradient id="paint58_linear" x1="184.182" y1="190.586" x2="179.41" y2="199.254" gradientUnits="userSpaceOnUse">
<stop stop-color="#F8C7C4"/>
<stop offset="1" stop-color="#F4B5B0"/>
</linearGradient>
<linearGradient id="paint59_linear" x1="183.75" y1="189.082" x2="178.979" y2="197.75" gradientUnits="userSpaceOnUse">
<stop stop-color="#F8C7C4"/>
<stop offset="1" stop-color="#F4B5B0"/>
</linearGradient>
<linearGradient id="paint60_linear" x1="183.037" y1="182.828" x2="180.073" y2="189.19" gradientUnits="userSpaceOnUse">
<stop stop-color="#F8C7C4"/>
<stop offset="1" stop-color="#F4B5B0"/>
</linearGradient>
<linearGradient id="paint61_linear" x1="143.753" y1="183.953" x2="152.135" y2="186.514" gradientUnits="userSpaceOnUse">
<stop stop-color="#F8C7C4"/>
<stop offset="1" stop-color="#F4B5B0"/>
</linearGradient>
<linearGradient id="paint62_linear" x1="147.087" y1="184.171" x2="154.835" y2="186.539" gradientUnits="userSpaceOnUse">
<stop stop-color="#F8C7C4"/>
<stop offset="1" stop-color="#F4B5B0"/>
</linearGradient>
<linearGradient id="paint63_linear" x1="148.392" y1="182.641" x2="156.775" y2="185.202" gradientUnits="userSpaceOnUse">
<stop stop-color="#F8C7C4"/>
<stop offset="1" stop-color="#F4B5B0"/>
</linearGradient>
<linearGradient id="paint64_linear" x1="148.161" y1="179.719" x2="156.544" y2="182.28" gradientUnits="userSpaceOnUse">
<stop stop-color="#F8C7C4"/>
<stop offset="1" stop-color="#F4B5B0"/>
</linearGradient>
<linearGradient id="paint65_linear" x1="142.207" y1="170.41" x2="149.799" y2="174.036" gradientUnits="userSpaceOnUse">
<stop stop-color="#F8C7C4"/>
<stop offset="1" stop-color="#F4B5B0"/>
</linearGradient>
<linearGradient id="paint66_linear" x1="259.991" y1="208.501" x2="321.786" y2="208.501" gradientUnits="userSpaceOnUse">
<stop stop-color="#E6384C"/>
<stop offset="1" stop-color="#CC1F38"/>
</linearGradient>
<linearGradient id="paint67_linear" x1="331.407" y1="114.838" x2="305.62" y2="114.838" gradientUnits="userSpaceOnUse">
<stop stop-color="#F6F7FA"/>
<stop offset="1" stop-color="#B2BCC9"/>
</linearGradient>
<linearGradient id="paint68_linear" x1="284.016" y1="113.534" x2="250.176" y2="120.54" gradientUnits="userSpaceOnUse">
<stop stop-color="#F6F7FA"/>
<stop offset="1" stop-color="#B2BCC9"/>
</linearGradient>
<linearGradient id="paint69_linear" x1="269.374" y1="202.177" x2="274.952" y2="208.054" gradientUnits="userSpaceOnUse">
<stop stop-color="#F8C7C4"/>
<stop offset="1" stop-color="#F4B5B0"/>
</linearGradient>
<linearGradient id="paint70_linear" x1="271.36" y1="202.896" x2="277.395" y2="209.254" gradientUnits="userSpaceOnUse">
<stop stop-color="#F8C7C4"/>
<stop offset="1" stop-color="#F4B5B0"/>
</linearGradient>
<linearGradient id="paint71_linear" x1="273.213" y1="202.461" x2="279.247" y2="208.819" gradientUnits="userSpaceOnUse">
<stop stop-color="#F8C7C4"/>
<stop offset="1" stop-color="#F4B5B0"/>
</linearGradient>
<linearGradient id="paint72_linear" x1="274.451" y1="199.806" x2="280.485" y2="206.164" gradientUnits="userSpaceOnUse">
<stop stop-color="#F8C7C4"/>
<stop offset="1" stop-color="#F4B5B0"/>
</linearGradient>
<linearGradient id="paint73_linear" x1="273.902" y1="188.76" x2="278.725" y2="195.654" gradientUnits="userSpaceOnUse">
<stop stop-color="#F8C7C4"/>
<stop offset="1" stop-color="#F4B5B0"/>
</linearGradient>
<linearGradient id="paint74_linear" x1="312.628" y1="204.516" x2="306.593" y2="210.874" gradientUnits="userSpaceOnUse">
<stop stop-color="#F8C7C4"/>
<stop offset="1" stop-color="#F4B5B0"/>
</linearGradient>
<linearGradient id="paint75_linear" x1="307.942" y1="205.657" x2="301.908" y2="212.016" gradientUnits="userSpaceOnUse">
<stop stop-color="#F8C7C4"/>
<stop offset="1" stop-color="#F4B5B0"/>
</linearGradient>
<linearGradient id="paint76_linear" x1="306.704" y1="203.003" x2="300.669" y2="209.361" gradientUnits="userSpaceOnUse">
<stop stop-color="#F8C7C4"/>
<stop offset="1" stop-color="#F4B5B0"/>
</linearGradient>
<linearGradient id="paint77_linear" x1="310.336" y1="205.491" x2="304.302" y2="211.849" gradientUnits="userSpaceOnUse">
<stop stop-color="#F8C7C4"/>
<stop offset="1" stop-color="#F4B5B0"/>
</linearGradient>
<linearGradient id="paint78_linear" x1="307.249" y1="191.947" x2="302.426" y2="198.841" gradientUnits="userSpaceOnUse">
<stop stop-color="#F8C7C4"/>
<stop offset="1" stop-color="#F4B5B0"/>
</linearGradient>
</defs>
</svg>
