<svg width="424" height="249" viewBox="0 0 424 249" fill="none" xmlns="http://www.w3.org/2000/svg">
<path fill-rule="evenodd" clip-rule="evenodd" d="M93.1953 249.31V181.643C93.1953 179.803 91.7032 178.309 89.8612 178.309H32.3576C30.5167 178.309 29.0236 179.801 29.0236 181.643V249.31H16.5616V167.759C16.5616 165.918 18.0537 164.425 19.8956 164.425H102.323C104.164 164.425 105.657 165.918 105.657 167.759V249.31H93.1953Z" fill="#D9DCE2"/>
<path fill-rule="evenodd" clip-rule="evenodd" d="M4.40549 153.121H224.161C226.361 153.121 228.143 154.903 228.143 157.102V160.443C228.143 162.643 226.361 164.425 224.161 164.425H4.40549C2.20599 164.425 0.423645 162.643 0.423645 160.443V157.102C0.423645 154.904 2.20709 153.121 4.40549 153.121Z" fill="#E6E8EF"/>
<path fill-rule="evenodd" clip-rule="evenodd" d="M256.779 216.184H340.012L389.218 236.265H305.985L256.779 216.184Z" fill="#B2BCC9"/>
<path fill-rule="evenodd" clip-rule="evenodd" d="M205.391 129.637C199.541 129.169 184.67 129.246 181.442 130.475C178.215 131.705 181.673 141.156 182.595 140.696C185.245 141.272 208.876 137.468 208.876 137.468L205.391 129.637Z" fill="#F8C7C4"/>
<path fill-rule="evenodd" clip-rule="evenodd" d="M192.691 133.666C192.691 133.666 186.483 134.556 182.595 134.175C180.421 134.994 172.744 139.886 169.955 139.328C169.312 139.028 178.621 131.392 180.98 130.663C183.339 129.934 192.691 133.666 192.691 133.666Z" fill="url(#paint0_linear)"/>
<path fill-rule="evenodd" clip-rule="evenodd" d="M190.806 136.798C190.806 136.798 184.598 137.688 180.71 137.308C178.536 138.126 170.859 143.018 168.071 142.46C167.427 142.16 176.736 134.524 179.096 133.795C181.455 133.065 186.259 131.951 186.259 131.951L190.806 136.798Z" fill="url(#paint1_linear)"/>
<path fill-rule="evenodd" clip-rule="evenodd" d="M190.293 139.415C190.293 139.415 184.086 140.306 180.198 139.925C178.023 140.744 170.347 145.635 167.558 145.078C166.915 144.777 176.224 137.141 178.583 136.412C180.943 135.683 185.747 134.568 185.747 134.568L190.293 139.415Z" fill="url(#paint2_linear)"/>
<path fill-rule="evenodd" clip-rule="evenodd" d="M192.691 140.186C192.691 140.186 186.483 141.077 182.595 140.696C180.421 141.515 172.744 146.406 169.955 145.849C169.312 145.549 178.621 137.913 180.98 137.183C183.34 136.454 188.144 135.339 188.144 135.339L192.691 140.186Z" fill="url(#paint3_linear)"/>
<path fill-rule="evenodd" clip-rule="evenodd" d="M206.961 139.424C200.693 143.463 189.165 142.894 187.436 143.41C185.707 143.925 185.361 142.137 186.284 141.418C187.206 140.697 189.166 139.545 191.701 138.969C194.236 138.393 208.3 133.782 208.3 133.782L206.961 139.424Z" fill="url(#paint4_linear)"/>
<path fill-rule="evenodd" clip-rule="evenodd" d="M340.797 52.8081L339.923 58.9795C339.923 58.9795 338.671 71.6754 338.481 73.6046C338.316 75.2743 340.966 77.4683 345.266 78.8379C347.312 79.489 344.422 82.6034 339.627 85.6692C329.973 91.8428 326.62 131.624 322.278 130.57C312.788 128.265 310.667 75.5403 315.207 75.8714C316.491 75.9652 318.243 74.2733 319.948 72.7482C322.297 70.6436 323.216 60.3182 321.362 57.4113C319.504 54.5021 340.797 52.8081 340.797 52.8081Z" fill="#F4B5B0"/>
<path fill-rule="evenodd" clip-rule="evenodd" d="M407.998 162.159C403.574 151.91 394.616 144.316 383.782 141.628L344.777 131.95C344.777 131.95 308.158 150.175 308.739 150.901C309.319 151.628 339.481 201.942 340.586 202.333C341.691 202.724 407.998 162.159 407.998 162.159Z" fill="#B2BCC9"/>
<path fill-rule="evenodd" clip-rule="evenodd" d="M287.276 185.146C262.119 184.823 211.926 192.033 214.831 205.611C217.737 219.188 285.551 231.586 332.327 217.935C353.755 211.682 361.986 196.352 352.216 190.299C340.997 183.347 304.905 185.374 287.276 185.146Z" fill="url(#paint5_linear)"/>
<path fill-rule="evenodd" clip-rule="evenodd" d="M293.888 84.3524C290.708 79.7636 274.226 98.5051 257.832 118.053C248.976 117.743 214.704 124.379 204.991 128.264C206.656 133.259 207.211 142.417 207.211 142.417C223.584 144.082 253.976 143.694 264.701 140.919C275.425 138.144 294.6 126.038 299.316 120.211C304.036 114.383 299.147 91.9408 293.888 84.3524Z" fill="url(#paint6_linear)"/>
<path fill-rule="evenodd" clip-rule="evenodd" d="M316.328 74.209L293.438 84.3534C293.438 84.3534 293.438 157.304 287.277 185.146C295.001 189.767 321.696 193.417 321.696 193.417L324.691 142.476C324.691 128.028 324.691 83.6537 324.691 83.6537C316.211 83.6537 316.328 74.209 316.328 74.209Z" fill="url(#paint7_linear)"/>
<path fill-rule="evenodd" clip-rule="evenodd" d="M365.71 82.8564C373.473 77.6926 429.814 118.775 423.044 137.005C416.87 149.266 369.489 124.195 362.121 116.031C354.753 107.865 361.407 85.7192 365.71 82.8564Z" fill="url(#paint8_linear)"/>
<path fill-rule="evenodd" clip-rule="evenodd" d="M341.667 74.209L365.34 82.8547C365.34 82.8547 377.184 140.756 363.236 186.898C353.02 191.08 333.758 194.463 321.698 193.416L324.693 83.6526C336.953 83.6537 341.667 74.209 341.667 74.209Z" fill="url(#paint9_linear)"/>
<path fill-rule="evenodd" clip-rule="evenodd" d="M135.663 128.979H159.014C160.611 128.979 161.712 127.376 161.138 125.886L144.727 83.2681C144.13 81.7164 142.639 80.6934 140.976 80.6934H117.625C116.028 80.6934 114.927 82.2958 115.501 83.7857L131.912 126.404C132.509 127.954 134 128.979 135.663 128.979Z" fill="#E6384C"/>
<path fill-rule="evenodd" clip-rule="evenodd" d="M94.779 106.554H118.13C119.727 106.554 120.828 104.951 120.254 103.461L103.843 60.8433C103.246 59.2916 101.755 58.2686 100.092 58.2686H76.7404C75.1435 58.2686 74.0432 59.871 74.6171 61.3609L91.0278 103.979C91.626 105.53 93.1169 106.554 94.779 106.554Z" fill="#E6E8EF"/>
<path fill-rule="evenodd" clip-rule="evenodd" d="M117.216 77.752H140.568C142.165 77.752 143.265 76.1496 142.691 74.6597L126.28 32.0415C125.683 30.4898 124.192 29.4668 122.529 29.4668H99.178C97.581 29.4668 96.4807 31.0692 97.0546 32.5591L113.465 75.1773C114.063 76.729 115.554 77.752 117.216 77.752Z" fill="#E6E8EF"/>
<path fill-rule="evenodd" clip-rule="evenodd" d="M317.792 74.621C318.493 74.0626 319.223 73.3938 319.947 72.7471C322.295 70.6425 323.215 60.3171 321.36 57.4102C319.503 54.501 340.796 52.8081 340.796 52.8081L339.922 58.9795C339.922 58.9795 339.236 65.9389 338.803 70.3357C334.474 73.8032 328.933 75.7897 322.992 75.4939C321.192 75.4034 319.458 75.0922 317.792 74.621Z" fill="#E57E77"/>
<path fill-rule="evenodd" clip-rule="evenodd" d="M346.486 55.135C346.58 55.1064 346.79 54.9618 347.078 54.7366C350.777 51.8375 353.045 47.4804 353.454 42.7978L354.52 30.594C355.204 22.7551 352.618 14.9812 347.375 9.11334L344.122 5.47363C344.122 5.47363 328.034 13.8821 327.592 15.0121C327.149 16.1422 346.486 55.135 346.486 55.135Z" fill="#BC6862"/>
<path fill-rule="evenodd" clip-rule="evenodd" d="M328.068 3.04394C340.977 3.68624 351.012 14.7753 350.368 27.6854L349.308 49.0171C348.664 61.9282 337.575 71.9634 324.666 71.3211C311.754 70.6777 301.719 59.5897 302.36 46.6785L303.423 25.3468C304.066 12.4368 315.155 2.40053 328.068 3.04394Z" fill="url(#paint10_linear)"/>
<path fill-rule="evenodd" clip-rule="evenodd" d="M315.372 21.921C310.945 21.0547 306.579 23.6725 305.258 27.9865L302.998 35.3696L302.237 28.3132C301.675 23.1107 302.926 17.7836 306.127 13.6439C306.401 13.2897 306.686 12.9443 306.983 12.6077L311.254 7.76611L315.372 21.921Z" fill="#BC6862"/>
<path fill-rule="evenodd" clip-rule="evenodd" d="M315.513 0.100244C309.311 -0.719739 299.162 3.50819 300.699 12.144C301.378 15.9547 303.317 20.8194 311.296 22.3822L332.002 23.765C333.545 24.0674 334.948 24.8609 336.002 26.0285L337.814 28.0382C339.992 30.4529 341.45 33.4293 342.021 36.6309L342.513 42.384L347.584 38.2797L348.69 53.2844C348.69 53.2844 352.43 39.8777 352.204 33.8719C352.049 29.7742 351.704 17.7834 350.132 13.8799C348.074 8.76801 344.804 3.03144 333.29 1.77884L315.513 0.100244Z" fill="#BC6862"/>
<path fill-rule="evenodd" clip-rule="evenodd" d="M344.774 45.4098L345.687 40.7493C346.096 38.6579 347.423 36.8613 349.301 35.8559C349.873 35.5491 350.562 35.9762 350.543 36.6251L350.28 45.305C350.227 47.0641 349.608 48.7582 348.515 50.1377C347.628 51.2579 345.835 50.8219 345.56 49.4193L344.774 45.4098Z" fill="#F4B5B0"/>
<path fill-rule="evenodd" clip-rule="evenodd" d="M127.054 153.121H191.639C192.503 153.121 193.202 152.421 193.202 151.557V150.245C193.202 149.381 192.503 148.681 191.639 148.681H127.054C126.19 148.681 125.49 149.381 125.49 150.245V151.557C125.489 152.421 126.19 153.121 127.054 153.121Z" fill="#E6E8EF"/>
<path fill-rule="evenodd" clip-rule="evenodd" d="M98.3752 153.121H160.014C161.611 153.121 162.711 151.519 162.137 150.029L145.727 107.411C145.13 105.859 143.639 104.836 141.976 104.836H80.3366C78.7397 104.836 77.6394 106.438 78.2133 107.928L94.624 150.546C95.2211 152.098 96.712 153.121 98.3752 153.121Z" fill="#D9DCE2"/>
<path fill-rule="evenodd" clip-rule="evenodd" d="M78.1587 153.121H224.161C226.361 153.121 228.143 154.903 228.143 157.102V160.443C228.143 162.643 226.361 164.425 224.161 164.425H78.1576C75.9581 164.425 74.1758 162.643 74.1758 160.443V157.102C74.1769 154.904 75.9592 153.121 78.1587 153.121Z" fill="#F6F7FA"/>
<path fill-rule="evenodd" clip-rule="evenodd" d="M324.694 83.6547L327.591 90.7245C327.591 90.7245 338.278 86.9181 344.779 75.3479L339.506 72.1904C339.506 72.1893 335.3 79.2668 324.694 83.6547Z" fill="url(#paint11_linear)"/>
<path fill-rule="evenodd" clip-rule="evenodd" d="M319.573 89.869L324.691 83.6523C324.691 83.6523 318.962 78.6507 319.085 72.188L314.571 74.9879C314.571 74.9879 315.37 84.7482 319.573 89.869Z" fill="url(#paint12_linear)"/>
<path d="M332.325 111.365H352.214V113.531H332.325V111.365Z" fill="#D9DCE2"/>
<path d="M213.576 140.977C212.951 140.977 212.444 140.47 212.444 139.845C212.444 139.219 212.951 138.712 213.576 138.712C214.202 138.712 214.708 139.219 214.708 139.845C214.708 140.47 214.202 140.977 213.576 140.977Z" fill="#D9DCE2"/>
<path d="M326.383 93.7519C325.758 93.7519 325.251 93.245 325.251 92.6196C325.251 91.9943 325.758 91.4873 326.383 91.4873C327.009 91.4873 327.516 91.9943 327.516 92.6196C327.516 93.245 327.009 93.7519 326.383 93.7519Z" fill="#D9DCE2"/>
<path d="M326.383 103.8C325.758 103.8 325.251 103.293 325.251 102.667C325.251 102.042 325.758 101.535 326.383 101.535C327.009 101.535 327.516 102.042 327.516 102.667C327.516 103.293 327.009 103.8 326.383 103.8Z" fill="#D9DCE2"/>
<path d="M326.383 113.852C325.758 113.852 325.251 113.345 325.251 112.72C325.251 112.094 325.758 111.587 326.383 111.587C327.009 111.587 327.516 112.094 327.516 112.72C327.516 113.345 327.009 113.852 326.383 113.852Z" fill="#D9DCE2"/>
<path d="M326.383 123.904C325.758 123.904 325.251 123.397 325.251 122.772C325.251 122.147 325.758 121.64 326.383 121.64C327.009 121.64 327.516 122.147 327.516 122.772C327.516 123.397 327.009 123.904 326.383 123.904Z" fill="#D9DCE2"/>
<path d="M326.383 133.954C325.758 133.954 325.251 133.447 325.251 132.822C325.251 132.196 325.758 131.689 326.383 131.689C327.009 131.689 327.516 132.196 327.516 132.822C327.516 133.447 327.009 133.954 326.383 133.954Z" fill="#D9DCE2"/>
<path d="M326.383 144.006C325.758 144.006 325.251 143.499 325.251 142.874C325.251 142.249 325.758 141.742 326.383 141.742C327.009 141.742 327.516 142.249 327.516 142.874C327.516 143.499 327.009 144.006 326.383 144.006Z" fill="#D9DCE2"/>
<path d="M326.383 154.059C325.758 154.059 325.251 153.552 325.251 152.926C325.251 152.301 325.758 151.794 326.383 151.794C327.009 151.794 327.516 152.301 327.516 152.926C327.516 153.552 327.009 154.059 326.383 154.059Z" fill="#D9DCE2"/>
<path d="M326.383 164.111C325.758 164.111 325.251 163.604 325.251 162.978C325.251 162.353 325.758 161.846 326.383 161.846C327.009 161.846 327.516 162.353 327.516 162.978C327.516 163.604 327.009 164.111 326.383 164.111Z" fill="#D9DCE2"/>
<path fill-rule="evenodd" clip-rule="evenodd" d="M310.316 191.697C285.159 193.911 234.966 206.184 237.871 219.468C240.777 232.752 308.591 238.31 355.367 219.94C376.795 211.525 385.026 195.366 375.256 190.298C364.039 184.478 327.946 190.145 310.316 191.697Z" fill="url(#paint13_linear)"/>
<path fill-rule="evenodd" clip-rule="evenodd" d="M407.998 162.158L342.184 175.58C316.701 180.777 298.397 203.192 298.397 229.198C298.397 233.102 301.561 236.266 305.464 236.266H389.22C393.732 236.266 397.564 232.958 398.222 228.493L407.998 162.158Z" fill="#E6E8EF"/>
<path fill-rule="evenodd" clip-rule="evenodd" d="M367.368 166.302C361.101 171.124 355.797 174.66 352.903 174.338C350.011 174.017 342.939 172.751 342.457 170.329C341.974 167.908 357.082 158.587 366.404 157.301C368.012 163.409 367.368 166.302 367.368 166.302Z" fill="#F8C7C4"/>
<path fill-rule="evenodd" clip-rule="evenodd" d="M365.605 169.551C365.605 169.551 417.476 160.808 423.051 137.002C424.445 126.139 402.246 117.377 361.822 156.806C365.596 162.33 365.605 169.551 365.605 169.551Z" fill="url(#paint14_linear)"/>
<path fill-rule="evenodd" clip-rule="evenodd" d="M342.969 169.124C341.239 170.646 340.588 176.878 340.588 178.016C340.588 179.154 342.052 185.766 343.081 185.604C344.111 185.441 344.536 179.804 343.724 177.854C344.916 175.849 346.39 172.054 346.442 171.025C346.494 169.995 343.712 168.471 342.969 169.124Z" fill="url(#paint15_linear)"/>
<path fill-rule="evenodd" clip-rule="evenodd" d="M345.195 170.697C343.466 172.219 342.815 178.451 342.815 179.588C342.815 180.726 344.278 187.338 345.308 187.176C346.337 187.014 346.762 181.376 345.95 179.426C347.142 177.421 348.616 173.627 348.668 172.597C348.721 171.567 345.939 170.043 345.195 170.697Z" fill="url(#paint16_linear)"/>
<path fill-rule="evenodd" clip-rule="evenodd" d="M347.66 170.697C345.931 172.219 345.28 178.451 345.28 179.588C345.28 180.726 346.743 187.338 347.773 187.176C348.803 187.014 349.228 181.376 348.415 179.426C349.607 177.421 351.082 173.627 351.134 172.597C351.187 171.567 348.404 170.043 347.66 170.697Z" fill="url(#paint17_linear)"/>
<path fill-rule="evenodd" clip-rule="evenodd" d="M351.688 171.329C349.944 172.31 348.268 177.49 348.062 178.457C347.857 179.424 347.91 185.307 348.814 185.355C349.718 185.402 351.095 180.688 350.755 178.884C352.13 177.394 354.066 174.436 354.296 173.57C354.527 172.704 352.437 170.907 351.688 171.329Z" fill="url(#paint18_linear)"/>
<path d="M368.902 167.142C368.276 167.142 367.769 166.635 367.769 166.01C367.769 165.384 368.276 164.877 368.902 164.877C369.527 164.877 370.034 165.384 370.034 166.01C370.034 166.635 369.527 167.142 368.902 167.142Z" fill="#D9DCE2"/>
<path fill-rule="evenodd" clip-rule="evenodd" d="M179.224 249.31V181.643C179.224 179.803 177.731 178.309 175.89 178.309H118.386C116.545 178.309 115.052 179.801 115.052 181.643V249.31H102.59V167.759C102.59 165.918 104.082 164.425 105.924 164.425H188.352C190.192 164.425 191.686 165.918 191.686 167.759V249.31H179.224Z" fill="#E6E8EF"/>
<path fill-rule="evenodd" clip-rule="evenodd" d="M237.791 249.311H204.043C208.388 229.179 213.007 208.945 214.852 203.334C218.802 191.324 248.03 190.873 245.94 221.565C245.382 229.729 242.118 239.536 237.791 249.311Z" fill="url(#paint19_linear)"/>
<path fill-rule="evenodd" clip-rule="evenodd" d="M247.597 249.312C242.912 234.648 238.905 221.596 237.892 217.193C235.191 205.455 264.17 202.081 279.073 231.27C281.8 236.611 283.676 242.815 284.935 249.314H247.597V249.312Z" fill="url(#paint20_linear)"/>
<path fill-rule="evenodd" clip-rule="evenodd" d="M304.918 249.312H382.695C386.298 249.312 389.218 246.392 389.218 242.789C389.218 239.187 386.298 236.267 382.695 236.267H304.918C301.316 236.267 298.396 239.187 298.396 242.789C298.396 246.392 301.316 249.312 304.918 249.312Z" fill="#D9DCE2"/>
<defs>
<linearGradient id="paint0_linear" x1="187.871" y1="131.653" x2="173.5" y2="138.516" gradientUnits="userSpaceOnUse">
<stop stop-color="#F8C7C4"/>
<stop offset="1" stop-color="#F4B5B0"/>
</linearGradient>
<linearGradient id="paint1_linear" x1="185.987" y1="134.784" x2="171.617" y2="141.648" gradientUnits="userSpaceOnUse">
<stop stop-color="#F8C7C4"/>
<stop offset="1" stop-color="#F4B5B0"/>
</linearGradient>
<linearGradient id="paint2_linear" x1="185.474" y1="137.402" x2="171.104" y2="144.265" gradientUnits="userSpaceOnUse">
<stop stop-color="#F8C7C4"/>
<stop offset="1" stop-color="#F4B5B0"/>
</linearGradient>
<linearGradient id="paint3_linear" x1="187.871" y1="138.173" x2="173.5" y2="145.036" gradientUnits="userSpaceOnUse">
<stop stop-color="#F8C7C4"/>
<stop offset="1" stop-color="#F4B5B0"/>
</linearGradient>
<linearGradient id="paint4_linear" x1="197.811" y1="139.848" x2="187.344" y2="144.009" gradientUnits="userSpaceOnUse">
<stop stop-color="#F8C7C4"/>
<stop offset="1" stop-color="#F4B5B0"/>
</linearGradient>
<linearGradient id="paint5_linear" x1="243.847" y1="204.45" x2="259.652" y2="204.45" gradientUnits="userSpaceOnUse">
<stop stop-color="#E6384C"/>
<stop offset="1" stop-color="#CC1F38"/>
</linearGradient>
<linearGradient id="paint6_linear" x1="301.224" y1="113.53" x2="204.992" y2="113.53" gradientUnits="userSpaceOnUse">
<stop stop-color="#F6F7FA"/>
<stop offset="1" stop-color="#B2BCC9"/>
</linearGradient>
<linearGradient id="paint7_linear" x1="305.983" y1="107.896" x2="305.983" y2="170.455" gradientUnits="userSpaceOnUse">
<stop stop-color="#F6F7FA"/>
<stop offset="1" stop-color="#B2BCC9"/>
</linearGradient>
<linearGradient id="paint8_linear" x1="372.955" y1="103.751" x2="412.461" y2="125.023" gradientUnits="userSpaceOnUse">
<stop stop-color="#F6F7FA"/>
<stop offset="1" stop-color="#B2BCC9"/>
</linearGradient>
<linearGradient id="paint9_linear" x1="345.866" y1="110.227" x2="345.866" y2="176.36" gradientUnits="userSpaceOnUse">
<stop stop-color="#F6F7FA"/>
<stop offset="1" stop-color="#B2BCC9"/>
</linearGradient>
<linearGradient id="paint10_linear" x1="309.716" y1="37.1828" x2="341.952" y2="37.1828" gradientUnits="userSpaceOnUse">
<stop stop-color="#F8C7C4"/>
<stop offset="1" stop-color="#F4B5B0"/>
</linearGradient>
<linearGradient id="paint11_linear" x1="334.736" y1="77.4272" x2="334.736" y2="87.154" gradientUnits="userSpaceOnUse">
<stop stop-color="#F6F7FA"/>
<stop offset="1" stop-color="#B2BCC9"/>
</linearGradient>
<linearGradient id="paint12_linear" x1="319.632" y1="77.1846" x2="319.632" y2="86.4635" gradientUnits="userSpaceOnUse">
<stop stop-color="#F6F7FA"/>
<stop offset="1" stop-color="#B2BCC9"/>
</linearGradient>
<linearGradient id="paint13_linear" x1="253.767" y1="209.704" x2="315.911" y2="209.704" gradientUnits="userSpaceOnUse">
<stop stop-color="#E6384C"/>
<stop offset="1" stop-color="#CC1F38"/>
</linearGradient>
<linearGradient id="paint14_linear" x1="380.479" y1="143.157" x2="403.727" y2="155.675" gradientUnits="userSpaceOnUse">
<stop stop-color="#F6F7FA"/>
<stop offset="1" stop-color="#B2BCC9"/>
</linearGradient>
<linearGradient id="paint15_linear" x1="344.752" y1="171.4" x2="341.608" y2="181.643" gradientUnits="userSpaceOnUse">
<stop stop-color="#F8C7C4"/>
<stop offset="1" stop-color="#F4B5B0"/>
</linearGradient>
<linearGradient id="paint16_linear" x1="346.978" y1="172.972" x2="343.835" y2="183.215" gradientUnits="userSpaceOnUse">
<stop stop-color="#F8C7C4"/>
<stop offset="1" stop-color="#F4B5B0"/>
</linearGradient>
<linearGradient id="paint17_linear" x1="349.443" y1="172.972" x2="346.3" y2="183.215" gradientUnits="userSpaceOnUse">
<stop stop-color="#F8C7C4"/>
<stop offset="1" stop-color="#F4B5B0"/>
</linearGradient>
<linearGradient id="paint18_linear" x1="352.787" y1="173.596" x2="348.27" y2="181.736" gradientUnits="userSpaceOnUse">
<stop stop-color="#F8C7C4"/>
<stop offset="1" stop-color="#F4B5B0"/>
</linearGradient>
<linearGradient id="paint19_linear" x1="231.273" y1="210.063" x2="223.523" y2="241.221" gradientUnits="userSpaceOnUse">
<stop stop-color="#E6384C"/>
<stop offset="1" stop-color="#CC1F38"/>
</linearGradient>
<linearGradient id="paint20_linear" x1="263.979" y1="221.478" x2="258.606" y2="243.082" gradientUnits="userSpaceOnUse">
<stop stop-color="#E6384C"/>
<stop offset="1" stop-color="#CC1F38"/>
</linearGradient>
</defs>
</svg>
