<svg width="145" height="56" viewBox="0 0 145 56" fill="none" xmlns="http://www.w3.org/2000/svg">
<path d="M0.976592 55.1519H2.32616C3.08545 55.1519 3.51507 54.8165 3.51507 54.2278C3.51507 53.6385 3.06997 53.2961 2.32616 53.2961H0.976592V55.1519ZM0.132812 55.9048V50.6875H3.92149V51.4404H0.976592V52.5432H2.40292C3.00868 52.5432 3.49186 52.6999 3.84473 53.0128C4.19759 53.3187 4.37373 53.7281 4.37373 54.2278C4.37373 54.7268 4.19759 55.1368 3.84473 55.4422C3.4996 55.7481 3.01642 55.9048 2.40292 55.9048H0.132812Z" fill="#4F4744"/>
<path d="M12.6408 55.2329C13.1698 55.2329 13.6149 55.0467 13.9749 54.6812C14.3355 54.3088 14.5193 53.8468 14.5193 53.2951C14.5193 52.744 14.3355 52.2813 13.9749 51.9164C13.6149 51.544 13.1698 51.3572 12.6408 51.3572C12.1112 51.3572 11.6667 51.544 11.3061 51.9164C10.9455 52.2813 10.7693 52.744 10.7693 53.2951C10.7693 53.8468 10.9455 54.3088 11.3061 54.6812C11.6667 55.0467 12.1112 55.2329 12.6408 55.2329ZM12.6408 56.0009C11.8505 56.0009 11.199 55.7401 10.6771 55.2254C10.1636 54.7038 9.90234 54.063 9.90234 53.2951C9.90234 52.5277 10.1636 51.8864 10.6771 51.3723C11.199 50.8506 11.8505 50.5898 12.6408 50.5898C13.4304 50.5898 14.0826 50.8506 14.6038 51.3723C15.1251 51.8864 15.3863 52.5277 15.3863 53.2951C15.3863 54.063 15.1251 54.7038 14.6038 55.2254C14.0826 55.7401 13.4304 56.0009 12.6408 56.0009Z" fill="#4F4744"/>
<path d="M20.5234 55.1444C20.6002 55.1669 20.6918 55.1744 20.8073 55.1744C21.1828 55.1744 21.4285 54.9657 21.5588 54.4886C21.704 54.0115 21.7504 53.4303 21.7736 52.4761L21.7962 50.6875H25.3701V55.9048H24.5269V51.4404H22.6091L22.5865 52.5583C22.5633 53.7281 22.4639 54.4666 22.2104 55.0697C21.9575 55.666 21.5201 55.9268 20.8531 55.9268C20.7073 55.9268 20.6002 55.9123 20.5234 55.8898V55.1444Z" fill="#4F4744"/>
<path d="M32.3164 55.1519H33.6583C34.4176 55.1519 34.8549 54.8014 34.8549 54.2052C34.8549 53.6015 34.4021 53.2441 33.6583 53.2441H32.3164V55.1519ZM31.4727 55.9048V50.6875H32.3164V52.4912H33.7047C34.3253 52.4912 34.8162 52.6479 35.1768 52.9683C35.5374 53.2886 35.7136 53.6986 35.7136 54.2052C35.7136 54.7049 35.5297 55.1143 35.1691 55.4352C34.8085 55.7481 34.3253 55.9048 33.7047 55.9048H31.4727Z" fill="#4F4744"/>
<path d="M41.4609 55.9042V50.6875H42.3047V55.1513H44.3059V50.6875H45.1496V55.1513H47.1514V50.6875H47.9946V55.9042H41.4609Z" fill="#4F4744"/>
<path d="M54.0977 55.9042V50.6875H57.9167V51.4399H54.9408V52.7445H57.3645V53.4968H54.9408V55.1513H58.0161V55.9042H54.0977Z" fill="#4F4744"/>
<path d="M73.6726 55.9042V53.7206C73.2352 53.8773 72.7753 53.9514 72.2921 53.9514C71.0038 53.9514 70.3594 53.4002 70.3594 52.2969V50.6875H71.2032V52.1332C71.2032 52.9081 71.5864 53.184 72.4224 53.184C72.8824 53.184 73.2971 53.0943 73.6726 52.9232V50.6875H74.5158V55.9042H73.6726Z" fill="#4F4744"/>
<path d="M80.6172 55.9042V50.6875H84.4362V51.4399H81.461V52.7445H83.884V53.4968H81.461V55.1513H84.5362V55.9042H80.6172Z" fill="#4F4744"/>
<path d="M90.3047 55.9042V50.6875H91.1633L92.9045 53.0348L94.6301 50.6875H95.4739V55.9042H94.6301V51.9395L93.1347 53.9068H92.6438L91.1485 51.9395V55.9042H90.3047Z" fill="#4F4744"/>
<path d="M109.188 55.1519H110.537C111.296 55.1519 111.726 54.8165 111.726 54.2278C111.726 53.6385 111.281 53.2961 110.537 53.2961H109.188V55.1519ZM108.344 55.9048V50.6875H112.132V51.4404H109.188V52.5432H110.613C111.22 52.5432 111.703 52.6999 112.055 53.0128C112.408 53.3187 112.585 53.7281 112.585 54.2278C112.585 54.7268 112.408 55.1368 112.055 55.4422C111.711 55.7481 111.227 55.9048 110.613 55.9048H108.344Z" fill="#4F4744"/>
<path d="M119.687 53.8837H121.65L120.668 51.6925L119.687 53.8837ZM117.923 55.9036L120.269 50.6562H121.083L123.429 55.9036H122.524L121.941 54.6065H119.396L118.82 55.9036H117.923Z" fill="#4F4744"/>
<path d="M129.035 55.9042V50.6875H129.879V52.7445H132.678V50.6875H133.522V55.9042H132.678V53.4968H129.879V55.9042H129.035Z" fill="#4F4744"/>
<path d="M139.625 55.9042V50.6875H140.468V52.8185L142.669 50.6875H143.751L141.266 53.0724L144.15 55.9042H142.999L140.468 53.4003V55.9042H139.625Z" fill="#4F4744"/>
<path d="M32.5777 24.7304C32.2886 24.8079 31.991 24.8588 31.6953 24.8814L30.9342 24.9386L31.3442 25.5643C31.5037 25.8084 31.6399 26.0669 31.7471 26.3352C31.9642 26.8707 32.0743 27.4276 32.0743 27.9908C32.0743 30.4971 29.9762 32.5362 27.3972 32.5362C26.4422 32.5362 25.555 32.254 24.8135 31.7746C23.9537 31.2183 23.3122 30.3873 22.979 29.418V37.314H20.1448H20.1436H17.31V32.6264V29.418C16.9767 30.3873 16.3347 31.2183 15.4754 31.7746C14.734 32.254 13.8462 32.5362 12.8911 32.5362C10.3122 32.5362 8.21406 30.4971 8.21406 27.9908C8.21406 27.4276 8.32474 26.8707 8.54133 26.3352C8.64904 26.0669 8.78471 25.8084 8.94418 25.5643L9.35477 24.9386L8.5931 24.8814C8.29736 24.8588 8.00043 24.8079 7.71064 24.7304C5.68986 24.1857 4.279 22.3861 4.279 20.3522C4.279 18.478 5.49647 16.7709 7.30839 16.1047C7.59283 16.0006 7.88559 15.9237 8.17954 15.8757L8.97334 15.7462L8.45327 15.1494C8.2569 14.9227 8.08434 14.6792 7.93855 14.4231C7.55474 13.7528 7.35243 12.993 7.35243 12.2256C7.35243 9.71927 9.45057 7.68081 12.0295 7.68081C12.7132 7.68081 13.3803 7.82712 14.0128 8.11568C14.2836 8.24001 14.5442 8.39095 14.7858 8.56328L15.4118 9.00914L15.5123 8.26083C15.551 7.97285 15.6183 7.68717 15.7123 7.41248C16.3543 5.5556 18.1353 4.30882 20.1442 4.30824C22.1531 4.30882 23.9347 5.5556 24.5767 7.41248C24.6707 7.68717 24.738 7.97285 24.7767 8.26083L24.8766 9.00914L25.5026 8.56328C25.7448 8.39095 26.0054 8.24001 26.2762 8.11568C26.9081 7.82712 27.5758 7.68081 28.2595 7.68081C30.8384 7.68081 32.9366 9.71927 32.9366 12.2256C32.9366 12.993 32.7336 13.7528 32.3504 14.4231C32.2046 14.6792 32.0315 14.9227 31.8351 15.1494L31.3156 15.7462L32.1094 15.8757C32.4034 15.9237 32.6962 16.0006 32.98 16.1047C34.7925 16.7709 36.01 18.478 36.01 20.3522C36.01 22.3861 34.5985 24.1857 32.5777 24.7304ZM40.2884 20.2892C40.2884 17.5435 38.7002 15.0719 36.1974 13.854C36.5919 12.9612 36.7907 12.0174 36.7907 11.0401C36.7907 7.06898 33.4662 3.83809 29.3794 3.83809C28.5296 3.83809 27.6977 3.97862 26.8986 4.25735C25.7097 1.69149 23.0599 0.000578287 20.1448 0H20.1442H20.1436C17.2285 0.000578287 14.5787 1.69149 13.3904 4.25735C12.5912 3.97862 11.7594 3.83809 10.909 3.83809C6.82283 3.83809 3.49829 7.06898 3.49829 11.0401C3.49829 12.0174 3.69704 12.9612 4.09156 13.854C1.58819 15.0719 0 17.5435 0 20.2892C0 23.2633 1.9351 25.9587 4.76753 27.0164C4.57533 27.6635 4.47893 28.3222 4.47893 28.9826C4.47893 32.9537 7.80347 36.1846 11.8897 36.1846C12.9346 36.1846 13.9283 35.9706 14.8304 35.5901V41.6216H25.4586V35.5901C26.3607 35.9706 27.3544 36.1846 28.3993 36.1846C32.4855 36.1846 35.8101 32.9537 35.8101 28.9826C35.8101 28.3222 35.7131 27.6635 35.5215 27.0164C38.3539 25.9587 40.2884 23.2633 40.2884 20.2892Z" fill="#FF0600"/>
<path d="M52.746 6.68359H47.8047V37.2403H52.6204V13.7601L61.5325 25.486H64.3459L73.2579 13.7601V37.2403H78.073V6.68359H73.2216L63.0296 20.5515L62.9689 20.47L52.746 6.68359Z" fill="#FF0600"/>
<path d="M98.9131 32.9552H90.8972V21.8897H98.9131C103.34 21.8897 105.983 23.9663 105.983 27.4441C105.983 30.9462 103.406 32.9552 98.9131 32.9552ZM107.8 20.3497C105.747 18.5281 102.909 17.6045 99.3659 17.6045H90.8972V10.9681H108.227V6.68359H86.082V37.2403H99.3659C102.939 37.2403 105.776 36.3318 107.799 34.5403C109.849 32.7632 110.889 30.376 110.889 27.4441C110.889 24.5116 109.849 22.1244 107.8 20.3497Z" fill="#FF0600"/>
<path d="M126.794 20.6458L126.847 20.5949L141.34 6.68359H135.189L122.132 19.3296V6.68359H117.316V37.2403H122.132V22.4003L122.259 22.5263L137.13 37.2403H143.69L126.794 20.6458Z" fill="#FF0600"/>
</svg>
