<svg width="51" height="20" viewBox="0 0 51 20" fill="none" xmlns="http://www.w3.org/2000/svg">
<path d="M0.800469 19.3847H1.26894C1.53251 19.3847 1.68165 19.2682 1.68165 19.0639C1.68165 18.8593 1.52714 18.7405 1.26894 18.7405H0.800469V19.3847ZM0.507568 19.646V17.835H1.82273V18.0963H0.800469V18.4791H1.29559C1.50587 18.4791 1.67359 18.5335 1.79608 18.6421C1.91857 18.7483 1.97971 18.8905 1.97971 19.0639C1.97971 19.2371 1.91857 19.3795 1.79608 19.4854C1.67628 19.5916 1.50855 19.646 1.29559 19.646H0.507568Z" fill="#4F4744"/>
<path d="M4.85171 19.4115C5.03534 19.4115 5.18984 19.3469 5.31481 19.22C5.43999 19.0908 5.50381 18.9304 5.50381 18.7389C5.50381 18.5476 5.43999 18.387 5.31481 18.2603C5.18984 18.131 5.03534 18.0662 4.85171 18.0662C4.66787 18.0662 4.51357 18.131 4.3884 18.2603C4.26322 18.387 4.20208 18.5476 4.20208 18.7389C4.20208 18.9304 4.26322 19.0908 4.3884 19.22C4.51357 19.3469 4.66787 19.4115 4.85171 19.4115ZM4.85171 19.6781C4.5774 19.6781 4.35122 19.5876 4.17006 19.4089C3.9918 19.2279 3.90112 19.0055 3.90112 18.7389C3.90112 18.4725 3.9918 18.2499 4.17006 18.0714C4.35122 17.8903 4.5774 17.7998 4.85171 17.7998C5.12581 17.7998 5.3522 17.8903 5.53315 18.0714C5.71409 18.2499 5.80477 18.4725 5.80477 18.7389C5.80477 19.0055 5.71409 19.2279 5.53315 19.4089C5.3522 19.5876 5.12581 19.6781 4.85171 19.6781Z" fill="#4F4744"/>
<path d="M7.59106 19.3821C7.61771 19.3899 7.64952 19.3925 7.68959 19.3925C7.81993 19.3925 7.90524 19.32 7.95048 19.1544C8.00088 18.9888 8.01699 18.7871 8.02504 18.4559L8.03289 17.835H9.27349V19.646H8.98079V18.0963H8.31505L8.3072 18.4844C8.29915 18.8905 8.26465 19.1468 8.17666 19.3562C8.08887 19.5631 7.93705 19.6537 7.7055 19.6537C7.65489 19.6537 7.61771 19.6486 7.59106 19.6408V19.3821Z" fill="#4F4744"/>
<path d="M11.6889 19.3847H12.1547C12.4183 19.3847 12.5701 19.263 12.5701 19.0561C12.5701 18.8465 12.4129 18.7224 12.1547 18.7224H11.6889V19.3847ZM11.396 19.646V17.835H11.6889V18.4611H12.1708C12.3862 18.4611 12.5566 18.5155 12.6818 18.6267C12.807 18.7379 12.8681 18.8802 12.8681 19.0561C12.8681 19.2295 12.8043 19.3716 12.6791 19.483C12.554 19.5916 12.3862 19.646 12.1708 19.646H11.396Z" fill="#4F4744"/>
<path d="M14.8594 19.6458V17.835H15.1523V19.3845H15.8469V17.835H16.1398V19.3845H16.8347V17.835H17.1274V19.6458H14.8594Z" fill="#4F4744"/>
<path d="M19.2432 19.6458V17.835H20.5689V18.0961H19.5359V18.549H20.3772V18.8102H19.5359V19.3845H20.6034V19.6458H19.2432Z" fill="#4F4744"/>
<path d="M26.0398 19.6458V18.8878C25.8879 18.9422 25.7283 18.9679 25.5605 18.9679C25.1133 18.9679 24.8896 18.7766 24.8896 18.3936V17.835H25.1825V18.3368C25.1825 18.6058 25.3156 18.7016 25.6058 18.7016C25.7655 18.7016 25.9094 18.6704 26.0398 18.611V17.835H26.3325V19.6458H26.0398Z" fill="#4F4744"/>
<path d="M28.447 19.6458V17.835H29.7727V18.0961H28.7399V18.549H29.581V18.8102H28.7399V19.3845H29.8074V19.6458H28.447Z" fill="#4F4744"/>
<path d="M31.8091 19.6458V17.835H32.1071L32.7115 18.6498L33.3106 17.835H33.6035V19.6458H33.3106V18.2696L32.7915 18.9525H32.6211L32.102 18.2696V19.6458H31.8091Z" fill="#4F4744"/>
<path d="M38.3693 19.3847H38.8378C39.1014 19.3847 39.2505 19.2682 39.2505 19.0639C39.2505 18.8593 39.096 18.7405 38.8378 18.7405H38.3693V19.3847ZM38.0764 19.646V17.835H39.3916V18.0963H38.3693V18.4791H38.8642C39.0747 18.4791 39.2424 18.5335 39.3647 18.6421C39.4872 18.7483 39.5486 18.8905 39.5486 19.0639C39.5486 19.2371 39.4872 19.3795 39.3647 19.4854C39.2451 19.5916 39.0774 19.646 38.8642 19.646H38.0764Z" fill="#4F4744"/>
<path d="M42.0121 18.9416H42.6938L42.3528 18.181L42.0121 18.9416ZM41.3999 19.6428L42.2144 17.8213H42.4967L43.3114 19.6428H42.9972L42.7948 19.1925H41.9111L41.7114 19.6428H41.3999Z" fill="#4F4744"/>
<path d="M45.2573 19.6458V17.835H45.5502V18.549H46.5219V17.835H46.8148V19.6458H46.5219V18.8102H45.5502V19.6458H45.2573Z" fill="#4F4744"/>
<path d="M48.9333 19.6458V17.835H49.226V18.5747L49.9901 17.835H50.3656L49.503 18.6628L50.504 19.6458H50.1045L49.226 18.7766V19.6458H48.9333Z" fill="#4F4744"/>
<path d="M11.775 8.82441C11.6746 8.85131 11.5713 8.86898 11.4687 8.8768L11.2045 8.89668L11.3468 9.11388C11.4022 9.19859 11.4495 9.28832 11.4866 9.38147C11.562 9.56735 11.6003 9.76066 11.6003 9.95619C11.6003 10.8262 10.8719 11.534 9.9767 11.534C9.64517 11.534 9.33719 11.436 9.07982 11.2696C8.78134 11.0765 8.55867 10.7881 8.443 10.4516V13.1925H7.45916H7.45874H6.47511V11.5653V10.4516C6.35944 10.7881 6.13656 11.0765 5.83829 11.2696C5.58092 11.436 5.27273 11.534 4.9412 11.534C4.04598 11.534 3.31765 10.8262 3.31765 9.95619C3.31765 9.76066 3.35607 9.56735 3.43126 9.38147C3.46864 9.28832 3.51574 9.19859 3.5711 9.11388L3.71362 8.89668L3.44923 8.8768C3.34657 8.86898 3.24349 8.85131 3.1429 8.82441C2.44143 8.63531 1.95167 8.01061 1.95167 7.30461C1.95167 6.65401 2.37429 6.06142 3.00327 5.83017C3.102 5.79403 3.20363 5.76734 3.30567 5.75067L3.58122 5.70571L3.40069 5.49854C3.33252 5.41985 3.27262 5.33534 3.22201 5.24641C3.08878 5.01376 3.01855 4.74998 3.01855 4.4836C3.01855 3.61359 3.74688 2.90598 4.64211 2.90598C4.87944 2.90598 5.11099 2.95677 5.33057 3.05694C5.42455 3.1001 5.51502 3.15249 5.59889 3.21231L5.81619 3.36708L5.8511 3.10732C5.86452 3.00735 5.88786 2.90819 5.9205 2.81284C6.14338 2.16826 6.76161 1.73546 7.45895 1.73526C8.15629 1.73546 8.77473 2.16826 8.99761 2.81284C9.03024 2.90819 9.05359 3.00735 9.06701 3.10732L9.10172 3.36708L9.31901 3.21231C9.40308 3.15249 9.49356 3.1001 9.58754 3.05694C9.80691 2.95677 10.0387 2.90598 10.276 2.90598C11.1712 2.90598 11.8996 3.61359 11.8996 4.4836C11.8996 4.74998 11.8291 5.01376 11.6961 5.24641C11.6455 5.33534 11.5854 5.41985 11.5172 5.49854L11.3369 5.70571L11.6124 5.75067C11.7145 5.76734 11.8161 5.79403 11.9146 5.83017C12.5438 6.06142 12.9664 6.65401 12.9664 7.30461C12.9664 8.01061 12.4765 8.63531 11.775 8.82441ZM14.4516 7.28272C14.4516 6.32961 13.9003 5.47164 13.0315 5.04888C13.1684 4.73894 13.2374 4.41133 13.2374 4.07208C13.2374 2.6936 12.0834 1.57206 10.6647 1.57206C10.3698 1.57206 10.081 1.62084 9.8036 1.7176C9.3909 0.826912 8.47109 0.239947 7.45916 0.239746H7.45895H7.45874C6.44681 0.239947 5.527 0.826912 5.11451 1.7176C4.8371 1.62084 4.54833 1.57206 4.25315 1.57206C2.83471 1.57206 1.68067 2.6936 1.68067 4.07208C1.68067 4.41133 1.74966 4.73894 1.88661 5.04888C1.01761 5.47164 0.466309 6.32961 0.466309 7.28272C0.466309 8.31513 1.13804 9.25078 2.12126 9.61794C2.05454 9.84257 2.02108 10.0712 2.02108 10.3005C2.02108 11.6789 3.17512 12.8005 4.59356 12.8005C4.95628 12.8005 5.30124 12.7262 5.61438 12.5941V14.6878H9.30373V12.5941C9.61687 12.7262 9.96183 12.8005 10.3245 12.8005C11.743 12.8005 12.897 11.6789 12.897 10.3005C12.897 10.0712 12.8634 9.84257 12.7968 9.61794C13.7801 9.25078 14.4516 8.31513 14.4516 7.28272Z" fill="#FF0000"/>
<path d="M18.7751 2.55737H17.0598V13.1645H18.7315V5.01383L21.8251 9.08425H22.8017L25.8954 5.01383V13.1645H27.5668V2.55737H25.8828L22.3448 7.37133L22.3238 7.34302L18.7751 2.55737Z" fill="#FF0600"/>
<path d="M34.8051 11.677H32.0225V7.83584H34.8051C36.3417 7.83584 37.2592 8.5567 37.2592 9.76395C37.2592 10.9796 36.3648 11.677 34.8051 11.677ZM37.8899 7.30127C37.1772 6.66894 36.1924 6.34836 34.9623 6.34836H32.0225V4.04466H38.0382V2.55737H30.3511V13.1645H34.9623C36.2025 13.1645 37.1874 12.8491 37.8897 12.2272C38.6015 11.6104 38.9623 10.7817 38.9623 9.76395C38.9623 8.746 38.6015 7.91734 37.8899 7.30127Z" fill="#FF0600"/>
<path d="M44.4807 7.40405L44.4991 7.38638L49.5299 2.55737H47.3947L42.8624 6.94716V2.55737H41.1907V13.1645H42.8624V8.0131L42.9066 8.05686L48.0687 13.1645H50.3456L44.4807 7.40405Z" fill="#FF0600"/>
</svg>
