<svg width="32" height="11" viewBox="0 0 32 11" fill="none" xmlns="http://www.w3.org/2000/svg">
<path d="M10.3717 0.0479476L10.2456 0.0477237L7.56414 5.63634L4.78626 0L0.982909 10.1822H0V11H5.38472V10.1822H4.31629L5.38472 6.99994L7.56414 11L9.65825 6.99994L10.7265 10.1822H9.65825V11H15V10.1822H14.0746L10.3717 0.0479476Z" fill="#992286"/>
<path d="M27.3717 0.0479476L27.2456 0.0477237L24.5641 5.63634L21.7863 0L17.9829 10.1822H17V11H22.3847V10.1822H21.3163L22.3847 6.99994L24.5641 11L26.6582 6.99994L27.7265 10.1822H26.6582V11H32V10.1822H31.0746L27.3717 0.0479476Z" fill="#EF8127"/>
</svg>
