<svg width="18" height="13" viewBox="0 0 18 13" fill="none" xmlns="http://www.w3.org/2000/svg">
<path d="M2.133 13H0.261V4.162H2.169L5.193 7.834L8.235 4.162H10.143V13H8.271V6.808L5.571 10.066H4.815L2.133 6.808V13ZM17.2733 7.204H12.2513V6.052L14.2493 4.324C15.0413 3.664 15.4373 3.088 15.4373 2.596C15.4373 2.344 15.3413 2.14 15.1493 1.984C14.9573 1.828 14.6993 1.75 14.3753 1.75C13.7393 1.75 13.1093 1.99 12.4853 2.47V0.885999C13.0373 0.478 13.7093 0.274 14.5013 0.274C15.1853 0.274 15.7793 0.472 16.2832 0.868C16.7993 1.24 17.0573 1.75 17.0573 2.398C17.0573 2.854 16.9493 3.268 16.7333 3.64C16.5173 4.012 16.1333 4.456 15.5813 4.972L14.6093 5.872H17.2733V7.204Z" fill="#0E0E0E"/>
</svg>
