<svg width="22" height="19" viewBox="0 0 22 19" fill="none" xmlns="http://www.w3.org/2000/svg">
<g opacity="0.3">
<path d="M19.7442 1.75312C18.6195 0.62839 17.1305 0.0136607 15.5413 0.0136607C13.9521 0.0136607 12.4585 0.632944 11.3338 1.75767L10.7464 2.34508L10.1499 1.74856C9.02517 0.623837 7.52705 0 5.93786 0C4.35322 0 2.85966 0.619283 1.73948 1.73946C0.614755 2.86419 -0.00452862 4.35775 2.4934e-05 5.94694C2.4934e-05 7.53613 0.623862 9.02514 1.74859 10.1499L10.3002 18.7014C10.4186 18.8198 10.5779 18.8836 10.7327 18.8836C10.8876 18.8836 11.0469 18.8244 11.1653 18.706L19.7351 10.1681C20.8599 9.04336 21.4791 7.54979 21.4791 5.9606C21.4837 4.37141 20.869 2.87785 19.7442 1.75312ZM18.8699 9.29836L10.7327 17.4037L2.61376 9.2847C1.72127 8.3922 1.22948 7.20828 1.22948 5.94694C1.22948 4.68561 1.71671 3.50168 2.60921 2.61374C3.49715 1.7258 4.68108 1.23401 5.93786 1.23401C7.19919 1.23401 8.38767 1.7258 9.28017 2.61829L10.3093 3.6474C10.5506 3.88873 10.9377 3.88873 11.179 3.6474L12.199 2.6274C13.0915 1.7349 14.28 1.24312 15.5367 1.24312C16.7935 1.24312 17.9775 1.7349 18.8699 2.62285C19.7624 3.51534 20.2497 4.69927 20.2497 5.9606C20.2542 7.22194 19.7624 8.40586 18.8699 9.29836Z" fill="#E0E0E0"/>
<path d="M18.8699 9.29836L10.7327 17.4037L2.61376 9.2847C1.72127 8.3922 1.22948 7.20828 1.22948 5.94694C1.22948 4.68561 1.71671 3.50168 2.60921 2.61374C3.49715 1.7258 4.68108 1.23401 5.93786 1.23401C7.19919 1.23401 8.38767 1.7258 9.28017 2.61829L10.3093 3.6474C10.5506 3.88873 10.9377 3.88873 11.179 3.6474L12.199 2.6274C13.0915 1.7349 14.28 1.24312 15.5367 1.24312C16.7935 1.24312 17.9775 1.7349 18.8699 2.62285C19.7624 3.51534 20.2497 4.69927 20.2497 5.9606C20.2542 7.22194 19.7624 8.40586 18.8699 9.29836Z" fill="#E0E0E0"/>
</g>
</svg>
