<svg width="31" height="31" viewBox="0 0 31 31" fill="none" xmlns="http://www.w3.org/2000/svg">
<path d="M23.0835 2.25002C23.4556 1.87794 23.8973 1.58279 24.3834 1.38143C24.8696 1.18006 25.3906 1.07642 25.9168 1.07642C26.443 1.07642 26.9641 1.18006 27.4502 1.38143C27.9364 1.58279 28.3781 1.87794 28.7502 2.25002C29.1222 2.6221 29.4174 3.06382 29.6188 3.54997C29.8201 4.03611 29.9238 4.55716 29.9238 5.08335C29.9238 5.60955 29.8201 6.1306 29.6188 6.61674C29.4174 7.10289 29.1222 7.54461 28.7502 7.91669L9.62516 27.0417L1.8335 29.1667L3.9585 21.375L23.0835 2.25002Z" stroke="black" stroke-width="2" stroke-linecap="round" stroke-linejoin="round"/>
</svg>
